<svg width="375" height="889" viewBox="0 0 375 889" fill="none" xmlns="http://www.w3.org/2000/svg">
<g clip-path="url(#clip0_348_129)">
<g opacity="0.7" filter="url(#filter0_f_348_129)">
<circle cx="-68" cy="447" r="100" fill="#FF3333"/>
</g>
<g opacity="0.7" filter="url(#filter1_f_348_129)">
<circle cx="368" cy="976" r="100" fill="#FF3333"/>
</g>
<path d="M-342.145 802.195C-349.822 799.323 -351.969 796.509 -350.145 791.713C-349.301 789.491 -347.677 787.674 -346.54 787.674C-345.401 787.674 -340.417 790.292 -335.466 793.493C-330.513 796.695 -324.457 800.04 -322.008 800.93L-317.555 802.547L-323.033 802.666C-326.046 802.731 -330.467 803.069 -332.856 803.414C-335.246 803.761 -339.426 803.212 -342.145 802.195ZM-359.568 787.449C-361.014 786.64 -363.423 786.368 -364.924 786.844C-366.812 787.442 -368.271 786.551 -369.668 783.938C-370.779 781.865 -372.767 779.796 -374.089 779.342C-377.121 778.299 -383.476 768.002 -387.013 758.402C-388.8 753.552 -391.202 750.201 -394.055 748.579C-399.116 745.7 -399.479 744.394 -395.561 743.151C-391.079 741.728 -390.245 733.827 -394.018 728.529C-395.819 726.001 -396.767 723.032 -396.224 721.618C-395.583 719.95 -397.35 717.022 -401.629 712.663C-407.028 707.161 -408.026 705.161 -408.268 699.364C-408.424 695.611 -409.339 691.594 -410.299 690.436C-411.509 688.978 -411.756 683.745 -411.102 673.399C-410.395 662.187 -410.807 655.267 -412.758 645.622C-415.655 631.298 -417.135 604.612 -416.383 580.264C-416.221 575.069 -416.894 567.937 -417.878 564.415C-420.274 555.838 -431.293 545.011 -444.912 537.855C-454.652 532.736 -456.023 531.424 -459.831 523.562C-462.136 518.801 -466.544 511.684 -469.624 507.748C-472.705 503.813 -476.053 498.032 -477.067 494.903C-480.282 484.973 -485.95 474.996 -489.813 472.463C-491.869 471.116 -494.215 467.613 -495.025 464.679C-496.336 459.931 -495.991 458.605 -491.887 452.64C-487.437 446.173 -487.385 445.91 -490.391 445.123C-497.781 443.191 -494.673 433.316 -481.411 416.579C-472.595 405.456 -470.013 396.982 -472.455 387.192C-473.386 383.461 -474.219 379.559 -474.307 378.52C-474.394 377.481 -475.057 376.631 -475.778 376.631C-476.501 376.631 -476.362 375.269 -475.47 373.603C-474.097 371.036 -474.444 370.303 -477.745 368.798C-482.556 366.606 -489.821 368.774 -489.849 372.41C-489.883 376.769 -491.8 377.091 -498.122 373.796C-501.509 372.03 -505.026 370.587 -505.939 370.587C-506.851 370.587 -510.4 368.172 -513.825 365.222C-517.251 362.271 -520.904 359.184 -521.943 358.361C-522.982 357.54 -523.831 355.299 -523.831 353.383C-523.831 351.466 -525.166 348.691 -526.797 347.214C-528.428 345.739 -530.542 342.17 -531.494 339.285C-532.745 335.494 -533.682 334.497 -534.874 335.69C-537.364 338.18 -541.051 337.707 -549.997 333.75C-554.675 331.682 -559.547 328.15 -561.493 325.417C-563.351 322.806 -566.902 319.623 -569.381 318.34C-573.476 316.222 -574.499 316.239 -580.462 318.516L-587.032 321.025L-607.189 311.258C-619.589 305.249 -629.212 299.518 -632.193 296.365C-636.815 291.478 -636.964 290.948 -635.427 284.89C-634.018 279.339 -634.257 277.622 -637.32 271.292C-639.25 267.308 -643.463 261.188 -646.685 257.692C-649.907 254.197 -652.178 250.745 -651.73 250.022C-651.282 249.298 -653.552 244.42 -656.774 239.182C-660.433 233.232 -663.015 226.858 -663.656 222.193C-664.479 216.214 -665.437 214.384 -668.471 213.002C-671.686 211.537 -672.586 211.724 -674.427 214.239C-677.02 217.781 -676.283 221.521 -670.549 233.912C-668.219 238.948 -665.811 246.412 -665.198 250.5C-664.585 254.587 -662.775 260.498 -661.174 263.634C-657.384 271.063 -659.832 270.933 -665.808 263.386C-669.333 258.936 -670.285 256.495 -669.584 253.704C-668.837 250.724 -669.573 249.289 -673.236 246.58C-678.793 242.471 -679.968 239.822 -677.928 236.009C-676.738 233.785 -677.283 231.345 -680.306 225.381C-683.376 219.323 -684.017 216.389 -683.257 211.89C-682.016 204.537 -685.314 197.882 -691.464 195.333C-695.015 193.863 -696.239 192.218 -696.963 187.943C-697.475 184.918 -698.455 180.239 -699.141 177.544C-699.855 174.741 -699.804 172.283 -699.02 171.799C-698.267 171.334 -698.76 169.26 -700.115 167.192C-702.111 164.145 -702.248 162.703 -700.835 159.601C-699.875 157.495 -699.513 155.088 -700.03 154.251C-700.547 153.414 -699.259 150.915 -697.167 148.698C-695.076 146.479 -692.292 142.056 -690.98 138.866C-689.668 135.678 -685.626 129.766 -681.998 125.731C-678.369 121.695 -673.768 114.625 -671.775 110.02C-669.007 103.628 -667.385 101.642 -664.916 101.621C-663.139 101.608 -661.779 102.445 -661.894 103.484C-662.375 107.814 -658.953 106.481 -655.108 100.841C-652.841 97.5153 -651.617 94.5686 -652.39 94.2922C-653.162 94.0146 -653.792 92.7645 -653.792 91.5119C-653.792 90.2605 -656.921 86.1955 -660.745 82.4799C-667.086 76.3165 -667.495 75.4989 -665.386 73.1689C-663.677 71.2817 -663.476 69.8959 -664.616 67.8603C-666.618 64.2815 -663.458 56.2693 -660.033 56.2373C-658.617 56.2232 -658.213 55.7421 -659.082 55.1036C-661.032 53.6719 -661.915 50.4194 -661.641 45.6814C-661.203 38.1144 -662.859 34.9502 -668.485 32.5997C-671.519 31.3317 -676.149 28.6563 -678.775 26.6539C-681.399 24.6515 -684.729 23.0137 -686.174 23.0137C-687.62 23.0137 -694.19 21.6386 -700.774 19.9573C-711.36 17.2544 -713.226 17.1477 -716.893 19.0351C-724.493 22.9459 -732.544 24.5401 -735.827 22.7834C-738.289 21.4661 -740.976 22.2799 -750.345 27.181C-756.669 30.4885 -764.222 33.7078 -767.132 34.3347C-770.04 34.963 -775.608 37.0818 -779.503 39.0446C-790.552 44.6117 -806.38 50.2249 -810.758 50.1276C-813.583 50.0637 -811.673 48.8251 -804.155 45.8439C-791.379 40.777 -778.251 34.1786 -777.037 32.2146C-775.541 29.7938 -778.787 28.9263 -782.687 30.7035C-785.559 32.0112 -787.328 31.8883 -790.641 30.1533L-794.903 27.9206L-790.267 25.5228C-785.027 22.8128 -783.379 19.7475 -784.583 14.9505C-785.749 10.3048 -779.32 6.89118 -765.47 4.80239C-758.029 3.68014 -752.371 1.81195 -748.562 -0.780833C-741.846 -5.35301 -743 -8.80857 -750.242 -5.80903C-753.67 -4.38904 -756.167 -4.37356 -761.243 -5.74058C-767.413 -7.40189 -767.633 -7.63911 -764.873 -9.65701C-760.256 -13.0335 -750.705 -15.0644 -744.431 -14.0042C-740.46 -13.3335 -737.208 -13.8031 -733.87 -15.5292L-729.046 -18.0234L-732.222 -21.4032C-733.968 -23.2621 -735.397 -25.1826 -735.397 -25.6711C-735.397 -27.0732 -726.299 -29.8774 -721.751 -29.8774C-719.48 -29.8774 -713.256 -31.521 -707.919 -33.5298C-702.582 -35.5387 -690.269 -38.2811 -680.557 -39.6242C-664.804 -41.8027 -661.468 -41.8293 -649.656 -39.8707C-642.373 -38.6631 -632.334 -37.2229 -627.348 -36.6701C-622.36 -36.1174 -613.534 -34.3629 -607.732 -32.7712C-594.259 -29.0746 -585.483 -29.1198 -570.431 -32.9629C-563.784 -34.66 -557.066 -35.6424 -555.501 -35.146C-553.938 -34.6497 -551.279 -34.9818 -549.593 -35.8843C-547.269 -37.1277 -545.467 -36.9772 -542.152 -35.2631C-539.157 -33.7143 -535.461 -33.2723 -530.427 -33.8611C-525.117 -34.4823 -520.467 -33.839 -513.678 -31.5437C-508.51 -29.796 -502.771 -28.3662 -500.923 -28.3662C-497.65 -28.3662 -497.64 -28.3106 -500.497 -26.2074C-503.3 -24.1448 -503.308 -24.0009 -500.676 -22.9811C-499.161 -22.3941 -493.902 -22.3339 -488.99 -22.8474C-480.118 -23.7747 -480.042 -23.7486 -477.567 -18.9646L-475.077 -14.1483L-471.844 -18.2028C-469.986 -20.5328 -465.57 -23.1723 -461.464 -24.4083C-455.256 -26.2763 -453.373 -26.2701 -447.139 -24.3609C-442.738 -23.0132 -437.471 -22.5223 -433.527 -23.092C-428.503 -23.8175 -426.171 -23.3656 -422.894 -21.032C-418.756 -18.0859 -418.642 -18.0843 -414.973 -20.9284C-412.924 -22.5155 -408.709 -24.5214 -405.608 -25.3859C-398.179 -27.4554 -395.66 -31.8653 -400.121 -34.9898C-403.275 -37.1992 -403.137 -37.3678 -394.846 -41.4345C-388.661 -44.4675 -385.877 -45.1563 -384.672 -43.9509C-383.466 -42.7456 -383.478 -41.4196 -384.716 -39.1067C-386.826 -35.1644 -384.199 -29.2055 -380.909 -30.4682C-379.726 -30.9222 -377.764 -30.9121 -376.548 -30.4456C-374.639 -29.7131 -374.67 -29.0919 -376.773 -25.8819C-382.583 -17.0143 -369.557 -19.5268 -360.738 -28.9747C-357.153 -32.8159 -351.598 -33.9805 -346.391 -31.9824C-343.029 -30.6922 -343.344 -29.6358 -348.912 -23.53C-355.549 -16.2537 -358.945 -14.7655 -368.911 -14.7655C-373.728 -14.7655 -379.415 -13.722 -382.065 -12.3516C-385.733 -10.4548 -387.522 -10.297 -390.415 -11.6153C-395.808 -14.0727 -397.687 -12.0273 -393.817 -7.90882L-390.515 -4.39338L-397.103 -2.52339C-400.728 -1.4948 -406.753 -0.55385 -410.493 -0.432297C-415.917 -0.256109 -417.295 0.332717 -417.304 2.47678C-417.312 4.31146 -419.95 6.24235 -425.616 8.55825C-443.972 16.0623 -459.545 29.5929 -453.908 33.1397C-452.851 33.8037 -451.175 36.199 -450.181 38.4624C-449.037 41.0675 -446.832 42.8844 -444.168 43.4179C-441.854 43.8811 -435.881 46.2699 -430.893 48.7253C-425.907 51.1819 -419.786 53.6348 -417.294 54.1785C-410.429 55.6743 -410.369 55.833 -413.565 63.9437C-416.301 70.8825 -416.356 71.8728 -414.237 75.9723C-412.966 78.429 -411.094 80.4147 -410.076 80.3853C-405.124 80.242 -400.482 75.6729 -397.597 68.1021C-394.847 60.8883 -393.595 59.5422 -385.702 55.3263C-374.054 49.1053 -369.211 42.9778 -370.501 36.0979C-371.342 31.6158 -370.905 30.564 -367.069 27.8336C-364.652 26.1114 -361.452 21.9921 -359.958 18.6782C-356.617 11.2708 -351.25 8.70297 -342.199 10.1827C-334.172 11.495 -324.68 16.5911 -323.533 20.2036C-323.062 21.6866 -323.453 24.3495 -324.402 26.1216C-325.838 28.806 -325.566 29.9396 -322.777 32.9094L-319.427 36.4741L-313.957 33.64C-310.949 32.0802 -306.128 29.0389 -303.243 26.8803L-297.998 22.9548L-296.766 26.2867C-296.089 28.1176 -295.896 30.5602 -296.339 31.7143C-296.781 32.8671 -296.437 35.1306 -295.574 36.744C-294.602 38.5584 -294.527 40.612 -295.375 42.1282C-296.332 43.8376 -295.693 46.435 -293.262 50.7162C-289.776 56.8514 -289.776 56.8553 -292.837 58.9984C-296.862 61.8197 -294.279 64.8099 -289.861 62.4454C-285.471 60.0962 -280.447 60.402 -277.348 63.2054C-272.769 67.351 -276.577 72.3091 -288.735 78.0285C-301.958 84.2507 -307.852 85.4829 -325.111 85.6351C-337.856 85.7477 -339.544 86.1546 -351.934 92.094C-359.207 95.5807 -365.158 99.0315 -365.158 99.7621C-365.158 102.88 -362.866 102.609 -354.074 98.4506C-348.894 95.9991 -342.216 94.0415 -339.037 94.0415C-333.604 94.0402 -333.406 94.2078 -335.102 97.3771C-336.085 99.2132 -338.204 101.78 -339.812 103.082C-342.339 105.128 -342.488 105.992 -340.905 109.465C-338.533 114.672 -332.336 117.179 -324.924 115.927L-319.066 114.94L-323.57 118.046C-326.047 119.756 -330.128 121.597 -332.638 122.139C-335.147 122.682 -340.305 124.689 -344.1 126.601C-347.951 128.541 -351.82 129.568 -352.861 128.926C-355.252 127.447 -352.728 125.229 -344.957 121.983C-338.047 119.095 -339.152 116.028 -346.599 117.426C-349.499 117.969 -358.906 121.512 -367.502 125.3C-380.92 131.21 -383.26 132.769 -384.042 136.326C-385.002 140.697 -388.277 142.765 -399.794 146.269C-403.467 147.386 -408.228 150.088 -410.373 152.272C-412.516 154.456 -416.622 157.725 -419.496 159.538C-422.369 161.35 -425.122 164.525 -425.61 166.593C-426.416 170.003 -426.603 170.084 -427.613 167.457C-429.504 162.537 -432.353 167.347 -432.517 175.738C-432.685 184.335 -437.043 190.199 -446.599 194.688C-456.398 199.292 -470.34 210.172 -473.166 215.416C-475.659 220.048 -475.764 221.852 -474.228 233.756C-472.793 244.86 -472.879 247.647 -474.766 251.295C-476.175 254.02 -477.818 255.322 -479.186 254.797C-482.428 253.553 -486.394 240.209 -485.282 234.285C-484.511 230.169 -485.023 228.609 -488.09 225.728C-490.562 223.407 -492.843 222.524 -494.781 223.139C-496.401 223.653 -500.978 222.679 -504.959 220.972C-511.057 218.358 -513.003 218.139 -517.357 219.576C-520.309 220.55 -523.243 222.861 -524.202 224.968C-525.631 228.104 -526.578 228.507 -530.524 227.659C-533.077 227.11 -537.001 225.722 -539.247 224.575C-544.774 221.751 -547.869 221.948 -554.079 225.518C-556.975 227.184 -562.884 230.371 -567.211 232.601C-572.185 235.164 -575.6 238.08 -576.495 240.529C-577.275 242.66 -580.061 250.965 -582.688 258.983L-587.463 273.566L-585.024 282.978C-580.542 300.27 -574.309 305.447 -561.318 302.662C-551.526 300.561 -545.644 296.305 -543.483 289.755C-542.11 285.596 -540.628 284.22 -536.195 282.989C-529.524 281.135 -526.737 281.068 -524.175 282.694C-522.06 284.036 -522.804 286.245 -532.272 306.743C-538.768 320.809 -538.301 322.067 -527.171 320.461C-517.029 318.999 -507.761 320.122 -506.678 322.943C-506.256 324.044 -506.942 331.466 -508.203 339.437C-510.46 353.699 -510.444 354.019 -507.195 359.273C-505.379 362.211 -501.976 365.607 -499.631 366.82C-495.887 368.756 -494.712 368.751 -490.002 366.783C-482.517 363.656 -478.454 363.987 -473.255 368.146C-469.098 371.472 -468.511 371.566 -465.244 369.425C-463.304 368.154 -460.66 365.007 -459.366 362.429C-456.448 356.616 -451.532 352.53 -447.403 352.486C-445.677 352.468 -442.669 350.752 -440.716 348.674C-436.752 344.454 -429.771 343.08 -433.184 347.191C-436.047 350.641 -437.684 361.738 -435.839 365.186C-434.302 368.057 -434.178 368.041 -431.382 364.587C-429.391 362.128 -428.99 360.552 -430.078 359.464C-432.673 356.868 -431.893 354.711 -427.063 351.141C-422.048 347.433 -418.169 347.814 -413.842 352.437C-410.67 355.828 -393.729 360.41 -388.875 359.192C-381.482 357.336 -361.505 369.483 -353.999 380.397C-350.426 385.594 -339.007 390.823 -333.988 389.563C-323.66 386.972 -309.501 397.318 -306.191 409.878C-305.204 413.618 -303.718 417.102 -302.887 417.619C-300.681 418.993 -303.985 424.419 -311.204 431.288C-315.817 435.675 -316.918 437.565 -315.621 438.862C-314.323 440.16 -312.19 439.022 -307.069 434.301C-299.618 427.435 -297.133 426.738 -293.401 430.47C-291.131 432.74 -291.2 433.202 -294.312 436.514C-296.165 438.487 -298.753 440.144 -300.062 440.197C-301.443 440.252 -300.885 440.915 -298.735 441.773C-295.783 442.952 -294.243 442.62 -291.18 440.144C-283.201 433.698 -281.325 433.389 -274.238 437.349C-269.629 439.922 -267.784 441.882 -268.017 443.955C-268.663 449.718 -267.304 450.993 -263.308 448.375C-260.133 446.295 -257.955 446.196 -247.33 447.651C-236.029 449.198 -234.549 449.815 -229.128 455.237C-225.103 459.263 -220.574 461.91 -214.887 463.563C-207.25 465.783 -206.421 466.46 -205.035 471.604C-203.027 479.062 -205.379 487.338 -211.743 495.199C-214.461 498.556 -217.793 503.486 -219.148 506.154C-220.502 508.82 -223.38 512.774 -225.545 514.94C-229.211 518.605 -229.415 519.522 -228.501 528.224C-226.716 545.226 -235.033 576.946 -243.054 583.729C-245.665 585.937 -247.901 586.457 -252.041 585.816C-255.446 585.287 -257.965 585.628 -258.631 586.705C-259.223 587.663 -262.523 589.685 -265.963 591.197C-269.405 592.711 -274.527 595.92 -277.347 598.328C-282.228 602.498 -282.392 602.96 -280.749 607.937C-278.856 613.676 -280.131 620.47 -284.19 626.265C-285.503 628.139 -286.576 631.326 -286.576 633.348C-286.576 635.371 -288.152 639.13 -290.079 641.702C-292.006 644.274 -295.725 650.161 -298.341 654.785C-304.777 666.16 -308.647 668.131 -317.981 664.785C-326.081 661.882 -330.4 661.536 -330.4 663.789C-330.4 664.638 -328.786 666.068 -326.813 666.967C-324.84 667.867 -321.764 671.527 -319.979 675.101C-317.32 680.425 -317.038 682.272 -318.424 685.314C-320.571 690.025 -328.778 693.98 -336.408 693.98C-343.165 693.98 -344.841 695.633 -342.507 699.994C-341.066 702.686 -342.035 707.017 -344.821 710.337C-345.047 710.606 -347.412 709.697 -350.079 708.319C-356.443 705.028 -358.696 707.124 -355.48 713.345C-354.172 715.875 -351.683 718.394 -349.952 718.944C-346.975 719.889 -346.943 720.098 -349.362 722.773C-350.772 724.331 -351.504 726.695 -350.99 728.034C-350.439 729.472 -351.669 732.579 -354.006 735.642C-357.803 740.622 -357.858 740.966 -355.423 744.681C-354.031 746.807 -351.86 748.941 -350.597 749.426C-346.046 751.172 -345.292 757.139 -348.762 763.941C-352.239 770.755 -352.772 777.588 -350.082 780.83C-347.635 783.778 -355.866 789.52 -359.568 787.449ZM-470.94 132.94C-466.902 124.503 -459.389 118.219 -453.338 118.219C-448.983 118.219 -448.932 118.925 -452.919 123.995L-456.055 127.982L-452.838 130.587C-450.246 132.685 -448.909 132.867 -445.953 131.521C-443.937 130.602 -441.869 128.536 -441.358 126.929C-440.665 124.743 -439.536 124.231 -436.876 124.899C-434.413 125.519 -432.872 124.989 -431.858 123.178C-428.787 117.691 -436.601 110.674 -442.354 113.752C-446.469 115.955 -451.846 111.573 -450.699 106.95C-450.274 105.238 -451.149 102.256 -452.664 100.256C-455.787 96.1334 -460.539 95.6997 -470.94 98.5862C-474.68 99.6252 -478.945 100.427 -480.418 100.371C-481.89 100.314 -482.7 100.906 -482.218 101.688C-481.734 102.468 -481.89 103.122 -482.562 103.14C-483.235 103.159 -485.477 104.475 -487.546 106.064L-491.306 108.953L-487.083 110.559C-483.782 111.814 -481.835 111.635 -478.168 109.738C-473.859 107.51 -473.061 107.511 -468.357 109.754C-465.524 111.105 -461.656 111.798 -459.698 111.307C-457.751 110.818 -455.741 111.093 -455.231 111.917C-454.71 112.761 -456.839 113.846 -460.093 114.396C-468.937 115.889 -473.531 119.573 -479.947 130.308C-485.304 139.276 -485.612 140.357 -483.476 142.728C-481.381 145.054 -480.802 145.09 -477.928 143.08C-476.162 141.845 -473.018 137.282 -470.94 132.94ZM-443.485 142.268C-438.105 139.524 -437.588 138.834 -439.484 136.938C-441.379 135.043 -442.577 135.166 -448.745 137.894C-455.986 141.098 -458.284 145.42 -452.746 145.42C-451.051 145.42 -446.883 144.002 -443.485 142.268ZM-416.69 130.849C-413.542 128.644 -413.426 128.212 -415.646 126.969C-418.913 125.141 -428.627 128.292 -428.627 131.182C-428.627 134.158 -421.115 133.949 -416.69 130.849ZM-303.199 783.443C-303.199 782.777 -302.383 781.417 -301.386 780.419C-300.388 779.423 -300.144 778.606 -300.841 778.606C-301.54 778.606 -302.926 779.722 -303.922 781.085C-305.353 783.041 -306.342 783.21 -308.623 781.886C-310.253 780.94 -310.649 780.189 -309.533 780.163C-308.444 780.138 -307.974 779.438 -308.489 778.606C-309.475 777.011 -306.882 776.576 -299.421 777.085C-292.762 777.539 -292.093 778.512 -296.208 781.749C-300.043 784.764 -303.199 785.53 -303.199 783.443ZM958.84 745.516C954.515 742.776 963.51 736.728 985.837 727.376C992.069 724.763 1001.58 719.303 1006.95 715.238C1016.08 708.327 1016.84 708.027 1018.66 710.615C1021.41 714.541 1019.78 717.383 1013.07 720.412C1009.87 721.859 1005.82 724.665 1004.1 726.646C1002.38 728.628 999.605 730.249 997.941 730.249C996.278 730.249 992.363 732.539 989.241 735.338C978.57 744.919 965.046 749.446 958.84 745.516ZM853.077 725.884C851.503 724.889 851.413 723.865 852.693 721.473C853.614 719.759 854.369 716.227 854.369 713.623C854.369 709.366 854.714 709.009 857.76 710.084C859.64 710.743 863.543 711.37 866.46 711.478C869.365 711.587 872.269 711.774 872.909 711.895C875.417 712.365 868.725 719.984 862.711 723.51C855.546 727.709 855.84 727.636 853.077 725.884ZM1027.7 712.67C1027.18 712.144 1028.42 710.396 1030.47 708.785C1033.55 706.359 1033.91 705.334 1032.56 702.815C1030.61 699.17 1033.51 695.258 1040.22 692.478C1045.41 690.324 1046.73 685.955 1045.33 675.408C1044.37 668.152 1044.49 667.699 1046.83 669.632C1048.66 671.151 1049.12 673.064 1048.46 676.553C1047.74 680.376 1048.39 682.363 1051.58 686.153C1055.02 690.248 1056.04 690.693 1058.73 689.257C1061.39 687.828 1061.71 687.959 1060.87 690.15C1060.33 691.562 1059.88 692.983 1059.88 693.309C1059.88 693.636 1057.68 695.034 1054.97 696.417C1052.27 697.8 1047 701.459 1043.26 704.546C1037.18 709.568 1030.93 713.625 1029.26 713.625C1028.93 713.625 1028.23 713.195 1027.7 712.67ZM867.893 693.152C864.72 689.764 864.131 689.633 861.073 691.637C857.171 694.19 849.852 692.698 843.979 688.156C840.857 685.732 840.64 684.952 842.252 681.936C843.634 679.362 843.672 677.557 842.431 674.828C841.51 672.816 840.768 669.842 840.768 668.218C840.768 664.558 838.388 664.382 836.417 667.9C835.611 669.347 834.511 670.098 833.986 669.57C833.449 669.04 835.202 666.121 837.876 663.082C844.44 655.602 841.881 653.573 833.206 659.382C829.47 661.885 826.169 664.619 825.874 665.458C825.58 666.298 823.776 663.708 821.882 659.703C819.822 655.361 816.265 650.998 813.067 648.891C808.268 645.729 806.631 645.467 797.405 646.386C783.881 647.732 770.83 651.068 762.296 655.362C758.406 657.314 750.832 659.313 744.984 659.926C739.265 660.526 730.181 662.678 724.781 664.71C716.528 667.815 714.174 668.142 710.003 666.762C704.386 664.911 702.057 661.095 705.691 659.703C706.996 659.199 709.389 655.732 710.988 651.997C713.547 646.019 713.688 644.159 712.165 636.434C710.911 630.044 710.873 623.995 712.037 614.157C712.92 606.729 713.253 599.189 712.792 597.402C712.319 595.614 713.048 591.238 714.417 587.678C716.81 581.399 717.386 580.988 733.597 574.121C742.796 570.228 752.214 567.04 754.517 567.04C760.761 567.04 768.502 561.097 772.762 553.022C775.398 548.031 777.228 546.132 778.802 546.744C783.216 548.449 784.086 548.114 783.753 544.841C783.536 542.736 784.431 541.206 786.235 540.635C787.796 540.141 790.663 537.389 792.62 534.519C794.629 531.583 798.749 528.273 802.063 526.945C807.578 524.73 808.128 524.763 811.122 527.491C816.662 532.523 820.59 533.992 822.458 531.735C823.367 530.637 823.686 529.307 823.149 528.778C821.422 527.048 829.342 517.117 833.206 516.164C835.291 515.65 839.552 513.946 842.687 512.375C847.575 509.925 849.302 509.762 854.778 511.234C866.588 514.406 866.985 514.924 862.596 521.564C856.941 530.104 858.438 533.443 872.295 543.201C878.705 547.706 884.744 551.122 885.729 550.795C886.715 550.466 889.824 547.017 892.639 543.129C896.49 537.832 897.974 533.979 898.588 527.749C899.471 518.9 903.694 506.593 905.869 506.593C906.585 506.593 908.236 510.233 909.528 514.681C910.82 519.129 913.52 524.32 915.542 526.217C920.263 530.649 923.001 543.043 920.89 550.366C919.483 555.218 919.751 555.997 924.562 560.945C927.415 563.881 931.932 571.045 934.606 576.863C937.268 582.681 942.066 590.913 945.277 595.156L951.112 602.872L949.449 614.791C948.246 623.44 946.39 629.204 942.667 635.789C936.973 645.877 928.465 655.503 923.974 656.928C922.361 657.44 918.613 661.226 915.657 665.341C912.701 669.457 909.618 672.823 908.812 672.823C907.993 672.823 904.538 676.355 901.122 680.672C895.428 687.87 894.392 688.529 888.455 688.641C883.912 688.726 880.42 689.961 876.683 692.81L871.373 696.858L867.893 693.152ZM131.017 661.378C127.817 658.178 127.282 656.542 127.997 652.134C128.67 647.986 128.029 645.547 125.154 641.316C123.113 638.311 121.442 635.114 121.442 634.21C121.442 633.307 118.771 628.986 115.504 624.608C110.456 617.842 109.419 615.139 108.587 606.578C107.118 591.474 102.294 575.126 95.8125 563.276C92.6253 557.451 89.5647 549.887 89.0094 546.467C87.8285 539.192 90.7828 528.364 97.5283 515.245L102.016 506.517L99.4936 498.926C98.0836 494.681 97.394 489.656 97.9301 487.522C98.557 485.024 97.8827 482.049 95.9788 478.906C94.3795 476.263 92.0035 470.362 90.6996 465.791C88.9582 459.685 86.5311 455.715 81.5525 450.83C71.9742 441.433 70.7292 437.734 73.7014 427.509C79.7522 406.694 73.2153 394.554 57.2459 396.948C51.0288 397.881 50.7908 397.765 49.9118 393.372C49.2375 390.002 47.4116 388.02 42.8246 385.68C36.8634 382.638 34.3133 382.627 26.9933 385.608C25.3312 386.285 18.5307 388.632 11.8824 390.822C1.88442 394.117 -1.1185 394.542 -5.47008 393.279C-9.59262 392.084 -13.0652 392.392 -21.5022 394.707C-30.2208 397.099 -33.3811 397.355 -38.0909 396.055C-47.92 393.342 -64.8069 378.121 -67.2085 369.81C-69.0676 363.379 -80.6279 348.391 -84.5623 347.311C-87.0625 346.626 -87.3696 346.095 -85.8393 345.107C-84.3001 344.113 -84.5675 343.61 -86.973 342.98C-90.7923 341.982 -91.1722 338.862 -87.4783 338.828C-85.2174 338.809 -85.1637 338.593 -87.1009 337.34C-88.5275 336.418 -88.6862 335.868 -87.5295 335.852C-86.3294 335.838 -86.7862 333.974 -88.8449 330.483C-91.7442 325.571 -91.8043 324.921 -89.5895 322.475C-82.8286 315.004 -81.347 298.919 -86.4867 288.784C-88.9408 283.947 -87.3632 277.264 -82.1275 270.316C-80.1558 267.699 -76.3071 261.334 -73.5741 256.171C-68.7938 247.138 -58.1381 234.58 -55.2541 234.58C-52.0618 234.58 -41.7644 223.509 -41.7644 220.079C-41.7644 212.332 -37.1339 204.608 -29.5823 199.763C-25.525 197.159 -20.7703 192.708 -19.0174 189.87C-15.4297 184.066 -14.9218 183.877 -10.7442 186.789C-9.10515 187.931 -5.0312 189.323 -1.69171 189.884C3.40198 190.739 5.83683 190.123 13.4204 186.068C26.4688 179.09 34.5322 177.347 49.4627 178.279C59.3097 178.893 63.7419 178.5 68.5157 176.59C75.544 173.778 81.6216 175.442 79.9762 179.73C79.4823 181.017 79.7842 182.923 80.6466 183.964C81.7342 185.273 81.7252 187.148 80.6198 190.055C79.2302 193.708 79.5386 194.796 82.9791 198.387C85.1569 200.659 89.0529 202.941 91.6401 203.458C103.785 205.887 107.238 207.46 109.746 211.706C111.584 214.816 113.993 216.413 117.975 217.16C121.071 217.741 125.567 219.231 127.968 220.472C132.042 222.579 132.569 222.502 135.967 219.31C138.251 217.164 139.287 214.892 138.751 213.204C138.282 211.725 138.64 209.129 139.546 207.436C141.885 203.067 148.523 203.495 158.887 208.685C170.18 214.338 191.595 218.372 199.186 216.276C202.837 215.268 206.348 215.254 209.545 216.237C219.987 219.446 225.334 216.934 226.76 208.15C227.234 205.232 228.041 202.845 228.557 202.845C229.533 202.845 230.045 198.458 230.186 188.867C230.232 185.75 230.969 183.2 231.823 183.2C232.841 183.2 232.791 182.105 231.677 180.025C229.82 176.553 226.05 176.632 217.031 180.334C212.752 182.089 211.562 182.015 207.73 179.75C202.761 176.815 197.662 176.375 196.192 178.755C195.098 180.524 187.371 179.283 183.181 176.667C180.17 174.786 177.356 169.189 177.356 165.079C177.356 163.504 175.826 161.137 173.957 159.819C171.061 157.781 170.893 157.204 172.823 155.941C174.069 155.125 176.633 154.82 178.522 155.264C180.929 155.831 183.142 154.883 185.938 152.087C188.569 149.458 191.767 148.006 195.351 147.815C198.336 147.656 202.661 146.287 204.962 144.771C209.955 141.48 221.293 142.395 230.09 146.798C241.951 152.735 252.485 152.386 256.725 145.915C258.931 142.549 258.944 141.841 256.849 138.646C255.575 136.7 249.447 132.215 243.235 128.68L231.938 122.253L234.055 118.161C235.219 115.909 235.791 113.687 235.325 113.221C234.86 112.757 235.037 111.48 235.721 110.386C236.404 109.292 237.096 107.518 237.259 106.445C237.605 104.156 235.168 104.788 223.151 110.103C216.174 113.188 215.137 114.134 216.686 115.998C217.699 117.22 219.975 118.248 221.743 118.285C224.223 118.337 223.636 119.049 219.174 121.405C213.755 124.263 213.15 124.3 209.628 121.992C206.615 120.018 206.222 119.101 207.648 117.38C209.066 115.673 208.854 115.015 206.617 114.174C205.069 113.592 203.073 112.145 202.181 110.956C197.853 105.187 184.12 120.365 180.126 135.332C178.251 142.357 178.313 142.723 181.842 145.385L185.505 148.148L178.785 149.533C175.09 150.295 170.11 150.384 167.718 149.731C163.305 148.525 157.711 150.342 157.711 152.982C157.711 153.757 156.682 153.998 155.424 153.515C154.168 153.033 152.172 153.441 150.99 154.422C149.155 155.944 149.363 157.191 152.402 162.907C155.694 169.098 155.795 169.944 153.742 174.06C151.169 179.218 148.776 178.835 145.142 172.682C142.608 168.392 142.626 168.294 145.978 167.818C150.208 167.218 150.48 164.524 146.377 163.868C137.014 162.371 132.021 157.437 132.021 149.683C132.021 143.632 126.412 136.962 119.61 134.924C116.075 133.865 112.232 131.641 111.071 129.983C109.909 128.323 106.508 125.943 103.514 124.692C100.519 123.441 97.1675 121.13 96.0658 119.557C94.4844 117.299 93.4442 117.028 91.1296 118.266C89.5161 119.13 88.1969 120.809 88.1969 121.997C88.1969 125.922 107.459 143.672 116.873 148.424C126.856 153.464 128.415 155.263 121.479 153.739C115.295 152.382 113.612 153.74 115.727 158.384C117.212 161.644 116.969 162.636 113.98 165.507L110.509 168.844L111.298 164.341C112.552 157.196 103.131 146.931 95.3174 146.931C92.4538 146.931 81.4501 136.257 78.5674 130.683C75.4877 124.727 72.0599 123.576 67.2055 126.868C59.8906 131.828 54.4066 133.504 48.6694 132.535C41.0487 131.248 36.2531 133.906 37.4686 138.743C38.1019 141.27 37.7488 142.398 36.3247 142.398C35.1911 142.398 32.2879 144.097 29.8735 146.174C27.4578 148.25 24.9628 149.951 24.3269 149.952C22.4575 149.954 17.1834 159.502 17.177 162.894C17.1706 166.138 11.2607 172.53 5.5592 175.459C3.74359 176.392 -0.482628 177.155 -3.83236 177.155C-8.44239 177.155 -10.331 177.914 -11.5951 180.277C-13.2508 183.371 -13.3007 183.364 -17.1737 179.491C-20.8075 175.857 -22.8995 174.948 -30.231 173.813C-34.0836 173.217 -34.7348 164.497 -31.8533 152.072C-30.6212 146.761 -30.0173 140.809 -30.5099 138.846C-31.9416 133.141 -27.4583 129.775 -19.9604 130.928C-2.64496 133.587 7.48355 133.734 9.8583 131.361C13.1197 128.098 14.5912 117.34 12.6003 111.307C11.3029 107.373 9.51667 105.764 4.18755 103.73C-3.64938 100.737 -3.81443 97.8416 3.84722 97.7648C6.76703 97.7354 10.9778 96.5173 13.2054 95.0574C15.433 93.5975 17.8974 92.7991 18.6805 93.2827C20.8172 94.6032 28.9062 89.9407 31.5932 85.8411C32.8906 83.8592 35.447 81.8568 37.2741 81.391C39.1 80.9266 43.9941 77.3772 48.1499 73.5067C54.042 68.0189 57.1332 66.298 62.1847 65.6954C68.444 64.9481 74.7379 59.8007 71.7835 57.8456C69.9462 56.6313 68.412 49.3139 69.4356 46.6487C69.9193 45.3858 72.0586 43.2106 74.189 41.8147L78.062 39.2762L77.0679 45.4946C76.2055 50.8915 76.4255 51.6541 78.735 51.2677C80.1988 51.0233 82.9369 49.9767 84.8191 48.9428C87.6851 47.3677 88.3876 47.4445 89.1438 49.4137C90.4386 52.789 86.8381 56.7567 84.352 54.6942C82.9791 53.5554 82.1091 53.5964 81.3414 54.8375C80.5506 56.117 79.9313 56.0479 79.0229 54.5765C78.3409 53.4723 77.4351 52.917 77.0116 53.3405C76.588 53.764 77.7958 56.062 79.6959 58.4457C82.8998 62.4633 83.5102 62.654 88.0767 61.0623C91.9868 59.6983 93.8651 59.7917 97.1944 61.5139C100.952 63.4575 102.222 63.3641 109.446 60.6196C115.775 58.2141 118.269 57.9057 121.071 59.1827C123.648 60.3573 125.557 60.333 127.951 59.0957C134.749 55.5834 136.631 52.9349 135.788 48.0728C134.537 40.8679 136.828 38.5072 142.861 40.7847C146.967 42.3342 148.167 42.2728 150.022 40.4175C151.988 38.4522 151.817 37.7267 148.598 34.3002C145.501 31.0016 145.283 30.1828 147.172 28.9084C148.397 28.0818 152.988 27.7862 157.373 28.2507C165.399 29.1003 175.401 25.9655 173.659 23.1455C172.133 20.6755 162.92 19.962 155.115 21.7086C148.194 23.2581 146.377 23.1327 141.071 20.7401C132.832 17.0245 131.861 12.6774 137.513 4.80061C144.787 -5.33805 146.117 -8.56891 144.046 -11.0657C140.976 -14.7629 137.963 -13.5576 130.953 -5.83065C127.248 -1.74763 122.202 2.42841 119.737 3.44933C117.272 4.47037 114.223 7.30192 112.962 9.74155C110.907 13.7148 110.909 14.5475 112.992 17.7256C114.271 19.6771 116.695 21.7112 118.38 22.2459C123.016 23.7174 122.099 26.4786 115.468 31.0157C113.429 32.4104 110.708 36.3589 109.423 39.788C107.813 44.0858 105.364 47.0184 101.545 49.223C96.1606 52.3309 95.9162 52.3437 92.9413 49.6504C91.2575 48.1265 89.4701 45.0186 88.9698 42.7423C88.4708 40.4674 86.2009 36.3768 83.9272 33.6528L79.7919 28.6998L74.5498 31.896C71.6658 33.654 67.9463 35.0794 66.2842 35.064C61.4886 35.0205 55.9369 29.8398 55.5659 25.0635C55.3816 22.69 54.7636 19.5832 54.1955 18.1602C52.8405 14.7754 59.6078 8.42749 66.6399 6.48572C73.6976 4.53704 88.0127 -5.49542 90.4527 -10.2027C91.5377 -12.2966 95.2137 -16.5101 98.6223 -19.5662C102.031 -22.6222 104.819 -25.7961 104.819 -26.6194C104.819 -27.4425 108.05 -29.2672 111.998 -30.674C115.945 -32.0808 122.576 -34.6334 126.732 -36.3464C131.834 -38.4495 138.214 -39.5614 146.377 -39.7702C160.641 -40.1351 169.968 -38.2444 177.666 -33.4286C181.527 -31.0122 184.575 -30.1878 187.492 -30.7711C192.709 -31.8145 220.523 -23.1939 221.681 -20.1739C222.846 -17.1386 214.869 -14.2735 208.005 -15.2619C204.863 -15.7147 198.362 -16.9254 193.56 -17.9523C187.095 -19.3348 184.387 -19.3784 183.129 -18.1204C181.872 -16.8624 182.5 -15.9339 185.552 -14.5436C187.818 -13.5107 190.655 -10.7648 191.857 -8.44135C194.916 -2.52519 204.715 2.29751 209.77 0.375444C214.627 -1.47126 214.594 -2.05368 209.469 -4.83392C204.729 -7.40546 206.917 -7.96141 212.869 -5.6981C217.622 -3.89093 223.008 -6.13915 221.754 -9.40713C221.166 -10.9377 222.818 -12.0428 227.477 -13.2365C237.447 -15.7913 238.176 -16.1565 237.349 -18.1784C234.221 -25.8257 234.178 -25.606 238.729 -25.0864C241.157 -24.809 242.932 -23.7704 242.73 -22.7443C242.53 -21.7301 243.796 -20.1357 245.542 -19.2012C248.165 -17.7972 250.234 -18.2974 257.448 -22.0782C268.024 -27.6223 276.258 -29.4298 279.329 -26.8814C281.041 -25.4605 283.88 -25.4506 292.097 -26.8365C297.908 -27.8169 303.324 -28.2108 304.13 -27.7122C304.938 -27.2136 306.043 -27.5265 306.588 -28.4076C307.778 -30.3344 304.485 -34.7066 302.682 -33.5924C300.506 -32.2473 293.358 -34.657 294.913 -36.2117C296.479 -37.7772 338.535 -27.9774 341.052 -25.4605C342.748 -23.7639 348.12 -26.0273 348.12 -28.4388C348.12 -29.2516 345.12 -31.3736 341.455 -33.1547C330.089 -38.6766 329.358 -47.5206 340.047 -50.2033C346.251 -51.7603 348.935 -49.9643 357.515 -38.5092C368.654 -23.637 368.37 -24.3937 364.731 -19.2824C362.035 -15.4975 361.873 -14.6118 363.744 -13.8942C367.286 -12.5347 374.869 -17.2921 375.936 -21.544C377.186 -26.5261 374.852 -30.772 369.276 -33.6552C364.892 -35.9219 361.721 -40.0753 361.721 -43.5467C361.721 -44.7301 363.365 -45.0252 366.631 -44.4284C371.531 -43.5336 375.583 -45.3102 386.676 -53.2167C389.213 -55.0249 393.502 -56.2163 397.827 -56.3143C406.599 -56.5133 409.438 -57.986 406.914 -61.0276C405.923 -62.2204 405.428 -63.511 405.813 -63.8955C407.743 -65.8255 432.622 -69.3032 438.351 -68.444C443.864 -67.6172 445.571 -68.0645 450.107 -71.5242C453.026 -73.7502 455.413 -76.1708 455.413 -76.9033C455.413 -78.7505 442.208 -78.5855 441.057 -76.7239C439.475 -74.1625 437.422 -75.0538 437.999 -78.0521C438.487 -80.5836 437.209 -80.9956 426.201 -81.8526C396.144 -84.1928 393.7 -84.7419 397.307 -88.3477C400.477 -91.5179 408.252 -91.4565 414.761 -88.2098C417.427 -86.8795 421.844 -85.791 424.577 -85.791C427.309 -85.791 429.965 -85.1111 430.478 -84.2799C430.993 -83.4488 433.64 -82.7687 436.36 -82.7687C443.898 -82.7687 458.47 -79.5131 457.555 -78.0336C457.11 -77.3133 458.52 -76.7239 460.689 -76.7239C462.856 -76.7239 466.808 -75.5528 469.47 -74.1216C473.04 -72.1967 478.042 -71.5042 488.662 -71.4616C500.075 -71.4159 503.863 -70.8297 507.177 -68.6011C509.454 -67.0595 511.322 -65.3663 511.309 -64.8385C511.297 -64.3107 507.804 -61.9603 503.556 -59.6152C493.294 -53.9516 495.457 -51.4834 507.88 -54.7009C515.916 -56.7849 517.771 -56.7982 524.424 -54.8208C529.888 -53.1984 533.304 -52.9901 537.002 -54.0527C540.7 -55.1135 544.5 -54.8856 550.948 -53.2165C557.666 -51.4749 561.146 -51.2977 565.407 -52.4808C575.131 -55.1808 587.094 -54.4182 594.029 -50.656C597.471 -48.7859 603.843 -45.3257 608.168 -42.9666C615.832 -38.7849 616.164 -38.7387 621.474 -41.1224C625.927 -43.1178 628.409 -43.2846 634.973 -42.0297C641.499 -40.7823 643.878 -40.9343 647.551 -42.8345C651.146 -44.6935 651.722 -45.6073 650.353 -47.2606C647.704 -50.4577 657.108 -51.6462 668.675 -49.5744C673.972 -48.6255 680.69 -47.6783 683.607 -47.4695C686.511 -47.2607 692.192 -45.603 696.236 -43.7856C702.39 -41.014 707.035 -40.3862 725.05 -39.8914C742.144 -39.4218 747.595 -38.7378 751.715 -36.5399C755.899 -34.3091 760.671 -33.7416 776.537 -33.5869C791.136 -33.4445 797.687 -32.7522 802.012 -30.8907C808.998 -27.886 811.8 -28.988 808 -33.248C805.262 -36.3122 805.274 -36.3165 815.83 -35.2678C833.513 -33.5105 854.74 -29.6398 861.918 -26.8598C865.667 -25.4123 872.794 -23.7303 877.758 -23.122C882.735 -22.5137 889.99 -20.4009 893.88 -18.4269C899.804 -15.4306 901.723 -15.0996 905.51 -16.4231C910.705 -18.2331 914.07 -16.9298 922.003 -10.0428L926.929 -5.76348L923.219 -4.83161C919.495 -3.89642 909.605 -6.3459 906.189 -9.04757C905.191 -9.84201 903.783 -10.1302 903.067 -9.68785C902.35 -9.24565 898.819 -9.89973 895.211 -11.1415C886.766 -14.0499 883.017 -12.9575 886.868 -8.70927C889.491 -5.80787 889.44 -5.74698 884.424 -6.09616C875.058 -6.74985 877.63 -3.98254 891.385 1.38344C898.87 4.30096 905.306 6.99841 905.702 7.37753C907.123 8.75044 902.44 10.4523 899.036 9.80193C895.3 9.08771 886.1 13.0972 886.1 15.4383C886.1 16.2157 884.642 18.207 882.863 19.8633C879.895 22.6301 879.281 22.6925 875.314 20.6389C871.591 18.7166 870.401 18.6966 866.831 20.4966C864.541 21.6481 860.638 23.0802 858.156 23.679C855.661 24.2778 852.782 25.4716 851.746 26.3302C848.701 28.8533 854.062 36.2003 861.624 39.8571C865.731 41.848 868.712 44.5157 869.595 47.0031C870.375 49.1859 872.026 52.7698 873.254 54.968C875.276 58.5519 875.25 59.0611 873.088 59.8928C871.501 60.5019 871.041 61.7225 871.732 63.4511C872.308 64.8982 872.96 67.7835 873.178 69.8614C873.395 71.9393 874.06 74.767 874.662 76.1476C875.429 77.9427 874.79 78.9548 872.41 79.711C869.761 80.5529 867.97 79.5383 863.62 74.7184C860.6 71.3917 855.584 66.8124 852.462 64.54C849.34 62.2689 843.736 56.3639 840.013 51.4161C833.462 42.6899 833.321 42.292 835.496 38.0824C836.737 35.6948 837.761 32.1788 837.799 30.2672C837.825 28.3556 838.784 25.1031 839.923 23.0393C842.111 19.0965 841.267 15.9485 836.597 10.5956C833.539 7.08094 828.088 9.7157 829.457 14.0467C830.724 18.0367 826.847 19.3296 822.369 16.4052C820.436 15.1373 815.971 13.6411 812.465 13.0803C806.426 12.1174 805.978 12.3026 804.417 16.404C803.509 18.793 803.125 22.5695 803.573 24.796C804.264 28.2661 803.777 28.9762 800.208 29.7592C797.789 30.2928 793.618 29.662 790.24 28.2456C786.517 26.6897 782.998 26.2201 780.478 26.9379C778.315 27.5534 770.984 28.1125 764.19 28.1803C753.442 28.2878 751.369 28.7574 748.094 31.8282C746.034 33.7666 743.551 38.5264 742.592 42.4058C741.619 46.2853 739.854 50.9734 738.651 52.8236C736.578 56.021 736.783 56.3447 742.707 59.3657C749.13 62.645 756.142 63.5087 761.452 61.6777C765.546 60.2638 778.047 70.0111 781.949 77.6625C783.549 80.796 786.197 84.0754 787.822 84.948C794.002 88.2517 795.256 109.926 790.087 124.096C786.517 133.907 782.512 137.115 776.639 134.882C774.4 134.028 772.34 133.331 772.059 133.331C771.777 133.331 770.101 136.12 768.322 139.53C765.994 144.007 765.533 146.263 766.685 147.65C768.885 150.304 767.26 153.756 762.859 155.761C760.825 156.687 759.161 158.104 759.161 158.908C759.161 159.713 763.883 163.625 769.666 167.601C777.023 172.662 780.951 176.548 782.742 180.542C784.163 183.683 785.046 186.502 784.713 186.808C784.367 187.112 781.284 188.78 777.842 190.512L771.598 193.664L767.836 185.032C763.627 175.37 760.019 171.486 753.659 169.774C750.448 168.912 749.335 167.69 749.335 165.044C749.335 162.618 747.774 160.556 744.434 158.605C739.585 155.763 739.495 155.766 734.326 158.957C729.157 162.151 729.106 162.153 727.519 159.189C726.636 157.543 725.92 155.157 725.92 153.884C725.92 152.612 724.64 150.891 723.092 150.061C720.789 148.825 719.33 149.572 715.083 154.163C712.229 157.25 708.57 160.528 706.958 161.446C704.45 162.87 704.322 163.472 706.049 165.553C707.162 166.895 711.001 169.631 714.584 171.633C720.29 174.819 721.378 175.001 723.297 173.078C725.127 171.252 726.611 171.184 732.125 172.681L738.766 174.481L735.068 176.952C728.21 181.534 726.048 183.938 725.076 188.073C724.269 191.467 724.743 192.488 727.788 193.876C729.822 194.802 732.919 198.498 734.659 202.089C736.399 205.679 739.892 209.833 742.4 211.318C747.94 214.586 749.54 218.057 746.341 219.845C743.372 221.511 744.793 224.002 748.721 224.002C753.429 224.002 753.455 226.809 748.9 243.013C743.398 262.638 738.421 269.185 725.408 273.945C720.29 275.819 714.046 277.466 711.564 277.604C705.768 277.925 701.264 280.379 697.349 285.364L694.239 289.322L692.781 285.504C690.887 280.523 686.55 279.27 680.318 281.907C674.599 284.324 670.837 288.178 669.315 293.162C667.959 297.621 672.77 305.465 680.741 311.776C687.279 316.958 694.623 329.96 696.338 339.421C697.848 347.649 695.186 353.051 688.06 356.264C684.81 357.728 681.777 360.128 681.304 361.598C680.191 365.13 673.473 369.525 672.245 367.534C671.733 366.705 671.72 364.768 672.207 363.23C672.693 361.693 672.667 359.331 672.155 357.982C671.4 356.041 670.582 355.867 668.189 357.144C665.707 358.474 664.747 358.137 662.738 355.228C657.812 348.077 643.52 336.585 639.554 336.585C638.159 336.585 637.622 338.264 637.865 341.875C638.057 344.783 637.455 350.455 636.547 354.478C635.05 361.033 635.203 362.233 638.018 366.038C639.746 368.373 641.588 371.993 642.113 374.082C642.637 376.204 647.013 381.049 652.003 385.058C660.346 391.738 661.216 393.057 664.721 404.156C666.794 410.713 668.496 416.723 668.496 417.511C668.496 420.074 665.336 419.036 658.746 414.305C651.939 409.413 647.589 401.676 643.955 387.998C642.381 382.06 640.654 379.514 635.754 375.91C629.74 371.488 629.561 371.101 630.047 363.786C630.316 359.63 631.007 353.74 631.557 350.697C632.35 346.412 631.698 343.341 628.691 337.096C626.554 332.66 624.021 325.845 623.061 321.954C620.937 313.26 617.93 311.804 612.62 316.892C610.432 318.996 608.206 320.718 607.694 320.718C605.289 320.718 601.975 315.598 602.768 313.1C604.214 308.564 595.36 292.752 590.178 290.606C587.35 289.432 584.753 286.584 583.013 282.737C580.006 276.055 576.628 273.498 573.25 275.347C572.022 276.017 567.121 277.366 562.349 278.345C553.597 280.137 550.462 282.786 551.665 287.363C552.1 289.048 550.577 290.675 546.905 292.426C543.924 293.844 540.725 296.697 539.778 298.764C538.844 300.833 536.772 302.939 535.172 303.445C533.573 303.95 531.116 306.264 529.709 308.585C528.301 310.906 524.092 315.147 520.368 318.011C515.263 321.93 513.677 324.122 513.932 326.879C515.417 342.993 513.139 356.476 507.586 364.484C502.174 372.294 501.803 372.511 497.222 370.424C494.702 369.277 493.141 367.034 492.501 363.608C491.976 360.802 488.931 352.893 485.745 346.034C466.412 304.532 463.56 296.614 465.207 289.118C466.322 284.054 463.649 276.413 461.071 277.278C460.037 277.626 459.174 278.871 459.152 280.045C459.023 286.943 451.273 288.003 445.221 281.949L441.21 277.939L444.66 276.662C448.542 275.225 448.187 271.352 444.237 272.063C442.833 272.315 439.622 270.786 437.1 268.663C434.578 266.54 431.932 264.804 431.22 264.804C430.509 264.804 429.493 263.436 428.962 261.765C427.57 257.376 419.553 253.558 415.535 255.37C411.921 257 379.118 256.66 373.628 254.935C371.65 254.313 367.992 251.47 365.498 248.617C360.993 243.461 360.924 243.44 354.164 245.261C347.76 246.988 346.83 246.824 338.203 242.47C330.749 238.707 328.516 236.678 326.216 231.575C323.279 225.065 316.759 220.35 312.795 221.871C311.546 222.351 310.088 224.731 309.554 227.162C308.788 230.651 309.57 232.92 313.275 237.959C315.854 241.467 318.665 246.937 319.521 250.114C321.359 256.94 324.989 258.971 327.997 254.856C329.812 252.374 330.303 252.287 331.532 254.233C332.316 255.475 332.74 257.173 332.473 258.003C331.632 260.616 340.353 264.914 344.422 263.893C346.478 263.377 350.872 259.875 354.184 256.111C359.406 250.179 361.228 249.779 360.336 254.76C359.735 258.112 362.373 262.041 366.739 264.299C373.482 267.784 382.877 275.55 382.877 277.639C382.877 278.601 381.11 281.037 378.952 283.052C376.793 285.067 373.686 289.331 372.047 292.527C368.066 300.292 356.526 311.65 352.618 311.65C348.102 311.65 341.383 315.465 338.709 319.546C337.441 321.479 334.11 324.207 331.306 325.608C316.942 332.779 299.65 340.048 294.782 340.961C289.579 341.937 289.158 341.701 286.4 336.264C284.805 333.117 282.993 326.8 282.376 322.229C281.573 316.283 280.017 312.504 276.908 308.953C274.516 306.223 272.56 303.334 272.56 302.533C272.56 301.732 269.833 298.265 266.5 294.831C262.35 290.554 259.666 285.912 257.985 280.095C256.635 275.425 253.888 269.564 251.881 267.071C238.011 249.848 233.905 243.775 231.837 237.433C229.097 229.028 226.779 227.671 225.711 233.845L224.951 238.227L219.84 231.772C211.962 221.827 210.969 226.347 218.364 238.49C221.864 244.236 227.442 254.377 230.761 261.026C234.079 267.675 238.382 275.219 240.322 277.792C242.319 280.439 243.848 284.579 243.848 287.336C243.848 293.03 245.547 296.584 252.221 304.85C254.904 308.175 257.557 313.028 258.113 315.637C258.827 318.982 261.744 322.479 268.015 327.509C277.545 335.152 283.721 343.131 285.254 349.781C285.83 352.278 288.01 354.843 290.776 356.273C294.99 358.452 296.474 358.392 309.792 355.507C317.737 353.786 326.153 351.387 328.495 350.175L332.752 347.974L333.762 353.956C334.681 359.391 333.692 362.009 322.934 382.642C311.367 404.828 310.826 405.561 299.325 414.641C292.85 419.752 286.075 426.01 284.27 428.546C282.463 431.083 276.684 437.935 271.426 443.772C256.085 460.806 254 475.788 264.174 495.868C266.759 500.968 267.768 504.83 267.157 507.271C266.646 509.3 266.974 514.427 267.882 518.664C269.313 525.335 269.15 527.119 266.674 531.971C263.102 538.971 260.259 541.487 250.271 546.493C245.907 548.68 242.337 551.114 242.337 551.904C242.337 552.693 239.276 556.785 235.536 560.996C231.796 565.207 228.736 569.337 228.736 570.174C228.736 571.011 230.138 574.442 231.851 577.802C236.989 587.872 233.537 595.169 221.223 600.269C216.032 602.42 214.327 606.81 215.612 614.722C216.284 618.869 215.856 620.248 213.507 621.506C211.885 622.374 208.952 625.606 206.991 628.687C200.797 638.415 182.99 655.629 174.9 659.71C168.149 663.114 166.423 663.415 161.464 662.046C157.09 660.838 153.561 661.029 146.23 662.871C134.356 665.854 135.615 665.978 131.017 661.378ZM330.061 179.383C333.962 177.365 334.518 176.255 334.518 170.501C334.518 166.376 333.637 163.192 332.153 161.96C330.851 160.88 328.743 157.978 327.466 155.51C325.356 151.428 325.365 151.109 327.566 151.953C330.473 153.067 334.518 151.727 334.518 149.647C334.518 148.826 333.114 146.179 331.395 143.765C328.807 140.13 327.769 139.647 325.35 140.942C323.393 141.988 322.43 141.997 322.43 140.97C322.43 140.127 319.733 138.06 316.435 136.379C309.14 132.657 306.543 128.533 308.82 124.281C310.542 121.063 316.694 118.809 319.321 120.432C322.864 122.622 323.908 119.395 320.985 115.29C313.897 105.336 304.028 105.991 291.79 117.229C283.891 124.48 283.205 126.406 287.672 128.797C289.334 129.687 290.694 131.426 290.694 132.662C290.694 133.898 293.383 137.825 296.668 141.389C304.234 149.599 305.622 153.349 304.686 163.064L303.932 170.886L314.314 176.212C320.024 179.142 324.9 181.574 325.149 181.614C325.398 181.655 327.608 180.651 330.061 179.383ZM288.428 601.504C284.161 599.083 283.555 597.806 282.44 588.887C281.55 581.759 281.922 580.209 286.185 573.279C290.519 566.236 290.831 564.879 289.875 557.229C288.495 546.183 290.844 540.378 297.265 538.969C303.313 537.643 316.401 526.089 319.537 519.306L321.933 514.124L323.599 517.78C327.79 526.978 327.363 531.019 320.072 551.192C316.17 561.986 311.985 574.899 310.771 579.885C306.885 595.846 304.678 599.693 298.312 601.601C291.536 603.632 292.191 603.638 288.428 601.504ZM1032.83 575.23C1028.01 569.955 1025.13 565.428 1025.13 563.14C1025.13 558.07 1025.94 558.512 1030.3 565.954C1032.39 569.512 1036.16 574.4 1038.68 576.815C1041.2 579.23 1043.26 581.76 1043.26 582.435C1043.26 585.342 1040.05 583.119 1032.83 575.23ZM358.698 573.085C358.698 572.254 359.378 571.574 360.21 571.574C361.04 571.574 361.721 572.254 361.721 573.085C361.721 573.916 361.04 574.596 360.21 574.596C359.378 574.596 358.698 573.916 358.698 573.085ZM1154.5 570.329C1153.96 569.466 1154.27 568.306 1155.17 567.749C1157.41 566.361 1158.21 567.465 1156.7 569.89C1155.91 571.19 1155.13 571.345 1154.5 570.329ZM369.276 567.885C369.276 567.519 369.957 566.799 370.787 566.286C371.619 565.771 372.298 566.071 372.298 566.951C372.298 567.831 371.619 568.552 370.787 568.552C369.957 568.552 369.276 568.252 369.276 567.885ZM1115.19 552.547C1113.72 548.713 1115.59 547.368 1119.76 549.266C1123.36 550.903 1123.43 551.154 1120.93 552.986C1117.42 555.549 1116.32 555.465 1115.19 552.547ZM1124.78 545.828C1121.82 544.003 1123.87 542.544 1128.57 543.125C1132.25 543.581 1132.33 543.747 1129.7 545.367C1128.03 546.403 1126.01 546.591 1124.78 545.828ZM1054.21 540.282C1051.12 533.599 1052.21 531.033 1055.42 537.465C1058.76 544.158 1058.81 544.378 1057.25 544.361C1056.62 544.355 1055.26 542.519 1054.21 540.282ZM1060.01 539.21C1059.93 537.617 1060.29 536.724 1060.8 537.227C1061.3 537.728 1061.35 539.032 1060.92 540.122C1060.43 541.327 1060.07 540.971 1060.01 539.21ZM1183.03 524.7C1181.65 522.463 1182.96 521.32 1186.18 521.949C1188.55 522.41 1188.57 522.654 1186.44 524.423C1184.74 525.831 1183.78 525.91 1183.03 524.7ZM289.939 517.172C289.425 516.34 289.726 515.661 290.606 515.661C291.486 515.661 292.205 516.34 292.205 517.172C292.205 518.002 291.906 518.683 291.54 518.683C291.173 518.683 290.453 518.002 289.939 517.172ZM953.351 502.973C943.78 499.959 939.443 497.157 935.681 491.563C931.382 485.173 923.513 480.335 919.495 481.611C917.87 482.126 915.132 484.93 913.418 487.84C910.501 492.796 909.938 493.069 904.628 492.124C901.506 491.569 897.143 489.431 894.929 487.373C892.127 484.758 889.977 483.932 887.789 484.626C886.062 485.173 883.567 485.013 882.236 484.269C880.151 483.106 880.356 482.561 883.682 480.385C887.534 477.863 887.534 477.83 884.962 472.415C882.876 468.066 880.023 465.798 870.67 461.095C864.234 457.859 856.953 455.213 854.497 455.213C848.88 455.213 846.564 450.032 850.799 446.937C853.307 445.096 852.949 444.638 846.372 441.447C839.399 438.058 839.296 437.914 842.636 436.064C844.517 435.019 847.549 434.14 849.366 434.11C852.91 434.053 857.388 439.16 857.388 443.256C857.388 444.621 858.86 447.606 860.651 449.889C863.876 453.981 863.952 453.998 866.319 451.043C867.637 449.395 871.86 446.25 875.685 444.053L882.659 440.061L892.306 444.418C897.616 446.814 905.165 449.925 909.067 451.332C912.97 452.739 920.775 456.921 926.418 460.625C937.191 467.699 941.861 473.662 939.187 476.896C936.999 479.531 945.584 491.537 954.477 498.274C964.252 505.677 964.086 506.361 953.351 502.973ZM1019.12 502.852C1017.93 501.416 1017.81 500.548 1018.81 500.548C1020.64 500.548 1022.76 503.416 1021.71 504.464C1021.33 504.844 1020.17 504.118 1019.12 502.852ZM765.201 496.7C763.013 495.489 762.386 494.598 763.691 494.581C766.39 494.544 770.715 497.059 769.692 498.076C769.295 498.468 767.286 497.85 765.201 496.7ZM790.752 494.704C795.038 488.685 801.743 486.109 807.949 488.1C812.465 489.551 812.529 489.673 808.947 489.816C806.823 489.9 801.871 492.01 797.943 494.504C788.961 500.194 786.799 500.254 790.752 494.704ZM1010.02 496.77C1007.97 494.31 1008.46 494.003 1012.16 495.422C1013.47 495.926 1014.55 496.945 1014.55 497.688C1014.55 499.778 1012.11 499.283 1010.02 496.77ZM1017.1 495.437C1016.53 493.956 1016.11 491.611 1016.16 490.224C1016.23 488.554 1016.75 488.936 1017.71 491.351C1018.52 493.359 1018.94 495.704 1018.64 496.564C1018.36 497.425 1017.66 496.917 1017.1 495.437ZM1133.94 496.86C1133.94 496.494 1134.62 495.773 1135.45 495.259C1136.28 494.746 1136.96 495.045 1136.96 495.926C1136.96 496.806 1136.28 497.526 1135.45 497.526C1134.62 497.526 1133.94 497.226 1133.94 496.86ZM747.441 490.512C746.392 490.072 745.931 489.091 746.392 488.331C747.543 486.462 757.229 486.566 758.406 488.458C758.918 489.29 758.445 489.98 757.357 489.991C756.27 490.003 754.018 490.305 752.354 490.662C750.704 491.02 748.478 490.953 747.441 490.512ZM769.871 489.378C767.133 486.07 770.293 485.063 777.407 486.979C784.585 488.91 784.559 489.212 777.125 490.554C773.261 491.252 771.137 490.907 769.871 489.378ZM996.764 488.458C995.715 486.785 995.536 485.436 996.355 485.436C997.161 485.436 998.543 486.796 999.438 488.458C1000.33 490.122 1000.51 491.482 999.861 491.482C999.195 491.482 997.801 490.122 996.764 488.458ZM1006.23 486.938C1002.19 482.474 1004.35 481.772 1008.51 486.198C1010.45 488.273 1011.36 489.97 1010.52 489.97C1009.66 489.97 1007.74 488.606 1006.23 486.938ZM722.887 486.676C717.488 485.928 709.875 484.266 705.96 482.983C702.057 481.701 697.451 481.099 695.737 481.645C692.269 482.743 677.555 478.417 677.555 476.301C677.555 471.471 691.105 471.103 698.308 475.739C700.995 477.47 703.106 477.585 708.787 476.312C715.082 474.901 716.4 475.075 720.098 477.809C722.401 479.511 724.96 480.903 725.805 480.903C728.786 480.903 737.858 485.958 737.09 487.197C736.668 487.89 735.503 488.364 734.518 488.249C733.52 488.132 728.3 487.426 722.887 486.676ZM994.154 479.392C992.644 477.73 992.094 476.37 992.926 476.37C993.758 476.37 995.664 477.73 997.174 479.392C998.671 481.054 999.221 482.414 998.389 482.414C997.57 482.414 995.651 481.054 994.154 479.392ZM984.622 477.478C983.765 476.444 982.626 473.561 982.089 471.071C981.218 467.063 981.321 466.891 982.933 469.569C983.931 471.231 985.722 473.715 986.899 475.086C988.153 476.54 988.46 477.951 987.616 478.469C986.823 478.958 985.479 478.512 984.622 477.478ZM952.622 472.673L948.86 470.594L954.682 469.503C957.88 468.903 962.806 466.391 965.609 463.923C968.679 461.227 970.714 460.251 970.701 461.479C970.663 464.552 968.807 466.919 963.165 471.087C957.266 475.441 957.535 475.399 952.622 472.673ZM669.136 466.789C663.583 463.626 653.577 451.389 650.314 443.782C648.561 439.68 644.531 432.923 641.358 428.767C638.197 424.611 634.551 419.171 633.284 416.678C632.005 414.185 628.128 409.424 624.66 406.099C617.367 399.09 612.876 391.724 615.934 391.777C619.901 391.844 630.111 397.52 634.487 402.091C646.565 414.699 649.035 416.943 654.741 420.455C660.243 423.846 662.853 427.374 663.109 431.789C663.16 432.621 664.721 435.001 666.589 437.079C668.458 439.157 671.963 443.064 674.407 445.763C676.838 448.461 679.269 452.672 679.807 455.12C681.56 463.131 675.111 470.191 669.136 466.789ZM364.743 465.791C364.743 464.96 365.422 464.28 366.254 464.28C367.086 464.28 367.765 464.96 367.765 465.791C367.765 466.622 367.086 467.302 366.254 467.302C365.422 467.302 364.743 466.622 364.743 465.791ZM764.446 465.778C763.921 464.939 763.921 462.93 764.42 461.313C764.945 459.694 764.318 456.781 763.038 454.828C760.927 451.616 760.953 450.943 763.256 447.663C764.65 445.672 766.288 440.325 766.902 435.78C767.67 430.173 769.167 426.377 771.585 423.965C774.874 420.667 775.705 420.521 783.126 421.927C789.486 423.133 791.993 422.985 795.461 421.192C801.257 418.192 801.679 418.326 799.76 422.555C797.303 427.932 792.416 429.65 787.246 426.946C778.034 422.118 765.815 429.293 772.263 435.744C774.63 438.115 775.948 438.331 780.337 437.071C787.86 434.913 790.829 435.309 786.159 437.849C780.862 440.724 779.864 443.915 782.589 449.189C783.83 451.588 784.841 455.309 784.841 457.457C784.841 460.897 784.483 461.17 781.821 459.745C780.158 458.855 777.752 455.639 776.486 452.6C774.195 447.116 774.157 447.097 771.227 450.03C768.655 452.602 768.476 453.744 769.883 458.842C771.163 463.448 771.073 464.971 769.487 465.978C766.813 467.669 765.572 467.62 764.433 465.778H764.446ZM971.776 457.717C970.355 455.543 967.093 452.68 964.521 451.355C961.962 450.03 960.209 448.606 960.619 448.19C962.973 445.84 976.088 456.513 974.962 459.865C974.629 460.895 973.26 459.973 971.776 457.717ZM734.467 452.687C732.189 451.494 729.119 450.899 727.635 451.367C723.886 452.559 708.941 449.521 707.47 447.261C706.292 445.463 702.825 434.392 700.982 426.5C700.471 424.331 700.982 421.515 702.16 419.886C703.9 417.523 704.795 417.344 707.533 418.81C710.425 420.357 711.039 420.092 712.613 416.613C713.611 414.438 716.912 411.388 719.958 409.836C723.169 408.193 726.265 405.115 727.366 402.467C728.632 399.413 730.936 397.36 734.403 396.219C737.231 395.285 741.325 392.195 743.487 389.353C745.663 386.512 748.234 384.187 749.22 384.187C750.205 384.187 753.186 386.432 755.847 389.175L760.684 394.164L756.807 399.377C752.406 405.297 752.636 410.39 757.626 417.396L760.646 421.638L756.884 424.105C754.811 425.461 753.122 427.404 753.122 428.424C753.135 431.885 743.449 451.837 741.031 453.351C739.329 454.407 737.371 454.209 734.467 452.687ZM822.253 452.661C819.131 451.843 818.696 449.169 821.69 449.169C822.829 449.169 826.028 449.62 828.792 450.174C833.052 451.025 833.372 451.357 830.877 452.334C827.589 453.619 826.13 453.674 822.253 452.661ZM1062.9 433.39C1062.9 433.024 1063.59 432.304 1064.42 431.789C1065.26 431.276 1065.93 431.576 1065.93 432.456C1065.93 433.336 1065.26 434.057 1064.42 434.057C1063.59 434.057 1062.9 433.756 1062.9 433.39ZM816.956 429.292C815.754 428.084 815.677 426.683 816.726 424.726C817.558 423.174 817.839 421.253 817.34 420.455C815.984 418.251 819.387 412.9 822.164 412.9C824.377 412.9 824.377 413.16 822.061 415.711C820.065 417.917 819.848 419.377 821.038 422.498C823.431 428.807 820.82 433.156 816.956 429.292ZM57.9726 424.323C57.9726 423.956 58.6533 423.236 59.4837 422.723C60.3153 422.208 60.9948 422.509 60.9948 423.389C60.9948 424.27 60.3153 424.989 59.4837 424.989C58.6533 424.989 57.9726 424.689 57.9726 424.323ZM1105.98 420.455C1105.46 419.625 1105.76 418.944 1106.65 418.944C1107.52 418.944 1108.25 419.625 1108.25 420.455C1108.25 421.287 1107.94 421.967 1107.58 421.967C1107.21 421.967 1106.49 421.287 1105.98 420.455ZM67.0404 406.189C67.0404 405.822 67.7198 405.101 68.5515 404.588C69.3819 404.074 70.0626 404.375 70.0626 405.255C70.0626 406.135 69.3819 406.854 68.5515 406.854C67.7198 406.854 67.0404 406.555 67.0404 406.189ZM793.938 383.468C791.046 376.744 790.663 376.442 786.235 377.416C781.808 378.387 781.655 378.268 783.305 375.173C784.687 372.608 785.954 372.1 789.204 372.814C792.339 373.503 794.348 372.807 797.418 369.961C799.645 367.891 801.487 364.975 801.513 363.48C801.551 359.666 807.168 372.457 808.448 379.296C809.42 384.49 809.292 384.771 806.938 382.815C803.432 379.912 800.054 382.924 802.933 386.39C804.085 387.773 804.225 388.721 803.291 388.721C802.434 388.721 800.655 389.131 799.338 389.633C797.585 390.306 796.177 388.691 793.938 383.468ZM518.398 386.138C516.709 383.393 515.749 371.079 516.978 367.812C518.27 364.345 518.36 364.388 522.211 370.078C526.83 376.897 528.301 381.271 526.779 383.606C525.32 385.841 519.332 387.652 518.398 386.138ZM855.879 378.321C855.879 377.49 856.557 376.389 857.388 375.876C858.22 375.362 858.898 375.622 858.898 376.453C858.898 377.284 858.22 378.384 857.388 378.898C856.557 379.412 855.879 379.152 855.879 378.321ZM1093.14 378.142C1093.14 377.312 1093.43 376.631 1093.8 376.631C1094.16 376.631 1094.89 377.312 1095.4 378.142C1095.91 378.974 1095.61 379.653 1094.74 379.653C1093.85 379.653 1093.14 378.974 1093.14 378.142ZM750.09 369.412C750.09 368.766 753.122 364.856 756.82 360.723C762.258 354.666 763.576 353.81 763.627 356.313C763.665 358.021 761.388 361.931 758.573 365.002C753.813 370.211 750.09 372.141 750.09 369.412ZM782.819 365.379C782.269 363.945 782.384 361.766 783.075 360.539C784.137 358.636 784.585 358.617 786.069 360.415C787.413 362.024 787.349 363.17 785.826 365.255C783.945 367.817 783.766 367.824 782.819 365.379ZM-374.423 359.491C-373.498 358.377 -373.187 357.016 -373.734 356.469C-374.281 355.922 -373.319 355.475 -371.595 355.475C-369.207 355.475 -368.651 356.192 -369.254 358.497C-369.712 360.252 -371.315 361.519 -373.075 361.519C-375.439 361.519 -375.735 361.074 -374.423 359.491ZM792.966 359.092C792.403 357.518 791.661 355.72 791.328 355.097C790.995 354.474 791.353 353.964 792.147 353.964C793.644 353.964 795.768 360.169 794.655 361.292C794.283 361.655 793.529 360.664 792.966 359.092ZM777.65 355.148C775.526 352.591 777.599 348.95 780.772 349.659C782.755 350.103 782.832 350.732 781.233 353.688C779.697 356.54 779.032 356.812 777.65 355.148ZM795.512 349.955C793.785 347.75 792.62 345.694 792.927 345.386C794.156 344.157 798.404 346.864 800.668 350.313C804.136 355.617 799.734 355.31 795.512 349.955ZM770.677 344.105C769.333 342.759 768.233 340.875 768.233 339.92C768.233 338.963 769.717 339.673 771.547 341.496C773.364 343.321 774.464 345.204 773.991 345.683C773.517 346.16 772.02 345.451 770.677 344.105ZM-415.53 343.889C-416.084 343.335 -416.537 342.179 -416.537 341.319C-416.537 340.373 -415.834 340.462 -414.75 341.547C-413.766 342.53 -413.313 343.687 -413.742 344.115C-414.172 344.545 -414.976 344.443 -415.53 343.889ZM-424.094 341.873C-424.094 341.043 -423.793 340.362 -423.428 340.362C-423.06 340.362 -422.34 341.043 -421.827 341.873C-421.313 342.705 -421.613 343.386 -422.494 343.386C-423.374 343.386 -424.094 342.705 -424.094 341.873ZM-353.068 338.851C-353.068 338.021 -352.768 337.34 -352.401 337.34C-352.035 337.34 -351.315 338.021 -350.802 338.851C-350.288 339.683 -350.587 340.362 -351.467 340.362C-352.348 340.362 -353.068 339.683 -353.068 338.851ZM785.877 338.621C784.355 337.768 781.489 337.477 779.493 337.979C776.562 338.713 774.554 337.536 769.077 331.9C761.336 323.939 759.827 320.581 762.104 316.34C762.974 314.701 763.691 311.315 763.691 308.816C763.691 300.613 769.193 300.945 773.21 309.391C775.449 314.07 775.462 315.074 773.364 320.094C771.112 325.497 771.15 325.738 775.181 329.941C778.085 332.977 780.273 334.008 782.563 333.431C784.508 332.944 786.607 333.548 787.745 334.926C790.471 338.205 789.281 340.544 785.877 338.621ZM-362.136 329.118C-362.136 328.752 -361.455 328.032 -360.625 327.517C-359.793 327.004 -359.112 327.304 -359.112 328.184C-359.112 329.064 -359.793 329.785 -360.625 329.785C-361.455 329.785 -362.136 329.485 -362.136 329.118ZM-124.879 323.74C-124.879 322.909 -124.2 322.229 -123.368 322.229C-122.538 322.229 -121.857 322.909 -121.857 323.74C-121.857 324.571 -122.538 325.251 -123.368 325.251C-124.2 325.251 -124.879 324.571 -124.879 323.74ZM-366.669 317.874C-366.669 317.042 -365.988 315.942 -365.158 315.429C-364.326 314.914 -363.647 315.174 -363.647 316.006C-363.647 316.836 -364.326 317.937 -365.158 318.451C-365.988 318.964 -366.669 318.704 -366.669 317.874ZM-379.504 311.668C-380.032 310.811 -379.426 310.558 -378.081 311.073C-375.463 312.079 -374.984 313.161 -377.158 313.161C-377.94 313.161 -378.996 312.49 -379.504 311.668ZM-139.237 311.65C-139.75 310.819 -139.45 310.139 -138.57 310.139C-137.69 310.139 -136.969 310.819 -136.969 311.65C-136.969 312.482 -137.269 313.161 -137.636 313.161C-138.002 313.161 -138.722 312.482 -139.237 311.65ZM-373.469 308.628C-373.983 307.796 -373.683 307.117 -372.803 307.117C-371.923 307.117 -371.202 307.796 -371.202 308.628C-371.202 309.459 -371.502 310.139 -371.869 310.139C-372.235 310.139 -372.955 309.459 -373.469 308.628ZM-366.669 308.628C-366.669 307.796 -366.368 307.117 -366.002 307.117C-365.636 307.117 -364.916 307.796 -364.402 308.628C-363.889 309.459 -364.188 310.139 -365.068 310.139C-365.949 310.139 -366.669 309.459 -366.669 308.628ZM-470.563 304.604C-471.602 304.186 -472.452 303.22 -472.452 302.457C-472.452 300.278 -465.78 300.84 -462.539 303.291C-459.753 305.399 -459.833 305.506 -464.14 305.438C-466.634 305.399 -469.524 305.024 -470.563 304.604ZM-432.323 303.748C-433.679 302.989 -436.673 302.782 -438.977 303.289C-441.282 303.794 -444.826 303.545 -446.853 302.735C-450.113 301.43 -449.825 301.276 -444.358 301.404C-436.324 301.592 -434.179 300.283 -436.232 296.447C-437.69 293.723 -437.251 293.516 -430.043 293.516C-423.068 293.516 -413.007 296.715 -411.303 299.473C-410.169 301.308 -429.616 305.262 -432.323 303.748ZM-403.336 304.703C-405.127 302.913 -402.901 301.073 -398.944 301.073C-396.568 301.073 -395.364 301.784 -395.752 302.961C-396.448 305.076 -401.745 306.293 -403.336 304.703ZM689.966 302.3C685.961 298.299 689.928 293.516 697.246 293.516C700.484 293.516 700.484 293.543 697.707 298.306C694.457 303.859 692.525 304.859 689.966 302.3ZM-390.848 301.989C-390.848 301.663 -389.828 301.004 -388.58 300.525C-387.334 300.047 -386.314 300.314 -386.314 301.12C-386.314 301.925 -387.334 302.584 -388.58 302.584C-389.828 302.584 -390.848 302.316 -390.848 301.989ZM-456.172 291.157C-456.64 290.691 -459.829 290.27 -463.262 290.222C-467.998 290.157 -469.134 289.691 -467.972 288.292C-466.849 286.939 -468.461 285.138 -474.016 281.539C-484.91 274.48 -490.992 273.1 -498.31 276.029C-505.172 278.775 -505.697 278.852 -505.697 277.123C-505.697 273.96 -493.671 270.481 -485.01 271.14C-476.728 271.77 -472.091 273.531 -455.828 282.232C-442.461 289.383 -442.447 289.396 -446.762 290.627C-451.661 292.024 -455.112 292.217 -456.172 291.157ZM-445.251 278.404C-442.321 276.511 -440.716 276.511 -440.716 278.404C-440.716 279.235 -442.246 279.905 -444.117 279.892C-446.867 279.874 -447.083 279.589 -445.251 278.404ZM758.253 275.724C757.344 275.121 755.771 273.062 754.76 271.149C753.237 268.266 753.404 266.866 755.681 262.959C759.2 256.923 761.58 256.171 762.731 260.729C763.934 265.524 760.454 277.178 758.253 275.724ZM-435.328 273.711C-434.32 272.078 -428.626 271.894 -428.629 273.493C-428.629 274.116 -430.324 274.724 -432.396 274.844C-434.468 274.963 -435.787 274.453 -435.328 273.711ZM-465.211 259.146C-467.628 256.372 -467.276 252.714 -464.593 252.714C-463.734 252.714 -463.379 254.042 -463.803 255.664C-464.227 257.287 -463.797 258.894 -462.846 259.236C-461.896 259.577 -461.518 260.294 -462.008 260.829C-462.498 261.362 -463.939 260.606 -465.211 259.146ZM-456.432 247.273C-456.971 245.872 -457.071 244.386 -456.655 243.97C-456.239 243.554 -455.46 244.361 -454.921 245.762C-454.384 247.165 -454.284 248.651 -454.7 249.066C-455.116 249.482 -455.895 248.676 -456.432 247.273ZM-465.903 245.913C-465.903 244.667 -464.608 243.647 -463.024 243.647C-460.467 243.647 -460.397 243.899 -462.413 245.913C-463.66 247.161 -464.955 248.181 -465.292 248.181C-465.628 248.181 -465.903 247.161 -465.903 245.913ZM801.474 212.783C801.474 211.601 799.824 208.671 797.802 206.273C793.017 200.581 794.719 196.782 800.387 200.499C804.456 203.17 806.592 208.629 805.082 212.548C803.944 215.52 801.474 215.681 801.474 212.783ZM-371.202 203.69C-371.202 203.324 -370.523 202.603 -369.691 202.089C-368.859 201.576 -368.18 201.875 -368.18 202.756C-368.18 203.636 -368.859 204.356 -369.691 204.356C-370.523 204.356 -371.202 204.057 -371.202 203.69ZM809.893 201.832C808.921 199.279 811.224 196.866 814.692 196.824C817.097 196.794 817.148 200.172 814.768 202.543C812.312 205.006 811.045 204.822 809.893 201.832ZM823.699 196.316C820.769 191.839 816.624 191.224 807.13 193.859C803.278 194.93 800.617 194.942 798.826 193.896C797.367 193.051 796.983 192.338 797.956 192.312C798.928 192.288 801.781 190.543 804.289 188.435C807.514 185.718 809.881 184.867 812.44 185.508C815.139 186.186 818.057 184.887 824.198 180.274C836.149 171.29 837.236 168.457 832.374 158.859C827.704 149.646 829.009 146.68 835.918 150.767C840.96 153.74 845.694 162.259 844.325 165.851C843.826 167.145 844.568 171.201 845.963 174.866C847.946 180.055 848.138 182.235 846.807 184.704C844.875 188.332 839.476 190.755 833.334 190.755C829.892 190.755 828.856 191.638 827.73 195.561L826.361 200.366L823.699 196.316ZM211.509 191.158C209.705 189.354 210.664 187.733 213.535 187.733C215.149 187.733 216.889 187.054 217.402 186.222C218.807 183.95 221.202 184.405 220.294 186.773C219.362 189.202 212.819 192.469 211.509 191.158ZM159.978 188.543L155.444 186.468L161.489 186.365C169.018 186.239 174.563 187.65 173.472 189.416C172.256 191.383 165.181 190.925 159.978 188.543ZM98.9306 173.469C92.8837 170.373 92.5984 169.986 95.7562 169.16C99.5371 168.172 107.906 169.402 107.736 170.922C107.677 171.441 107.167 172.992 106.603 174.367C105.674 176.63 104.938 176.544 98.9306 173.469ZM68.6411 157.12C67.3334 153.367 67.437 151.931 69.1362 150.232C72.2083 147.16 74.5959 149.319 74.5959 155.17C74.5959 162.082 70.8047 163.323 68.6411 157.12ZM33.2053 158.375C34.2776 155.582 38.8761 155.108 37.951 157.887C37.6042 158.926 36.1904 159.996 34.8073 160.263C33.0544 160.604 32.5694 160.032 33.2053 158.375ZM822.804 141.126C820.04 137.241 819.963 136.525 821.998 133.609C824.006 130.744 824.006 129.885 821.934 125.888C818.53 119.314 819.016 118.916 824.902 123.412C827.819 125.636 833.577 128.454 837.684 129.676C846.193 132.201 848.24 134.183 843.813 135.591C842.137 136.122 840.768 137.543 840.768 138.75C840.768 140.394 839.719 140.677 836.609 139.881C828.638 137.84 826.373 138.339 826.885 142.02C827.512 146.531 826.488 146.308 822.804 141.126ZM71.0696 142.902C69.3167 141.149 69.9781 138.22 72.3285 137.318C73.9663 136.69 74.5959 137.483 74.5959 140.178C74.5959 143.805 73.1168 144.948 71.0696 142.902ZM813.207 111.041C811.928 109.586 808.844 104.315 806.349 99.3258C803.854 94.337 797.252 85.1771 791.686 78.9689C785.468 72.0327 782.307 67.4342 783.485 67.0401C784.547 66.687 786.811 68.2671 788.539 70.5511C792.684 76.0887 797.815 80.8958 805.889 86.8494C812.58 91.7844 815.894 96.351 811.57 94.694C806.592 92.7811 807.833 97.3196 814.282 104.579C818.044 108.812 821.115 112.592 821.115 112.981C821.115 114.818 815.28 113.385 813.207 111.041ZM-292.62 108.396C-292.62 107.149 -291.963 106.129 -291.157 106.129C-290.352 106.129 -290.084 107.149 -290.563 108.396C-291.042 109.642 -291.701 110.662 -292.027 110.662C-292.353 110.662 -292.62 109.642 -292.62 108.396ZM-300.518 103.52L-306.147 102.929L-295.553 92.4395C-289.726 86.6702 -284.198 81.9502 -283.267 81.9502C-282.285 81.9502 -282.579 83.0608 -283.968 84.5962C-287.115 88.0726 -284.969 91.9776 -279.22 93.2405C-276.71 93.792 -274.208 95.715 -273.242 97.8365C-271.69 101.242 -271.953 101.589 -277.188 103.043C-282.681 104.569 -289.239 104.702 -300.518 103.52ZM-668.745 92.6775C-673.979 87.7885 -674.564 85.7272 -671.093 84.3953C-667.983 83.2028 -662.246 87.0912 -660.071 91.865C-657.788 96.8743 -657.829 97.0624 -661.189 97.0624C-662.763 97.0624 -666.164 95.0894 -668.745 92.6775ZM-3.2297 85.0005C-1.56763 84.1803 1.70409 82.8202 4.03917 81.977C9.18532 80.1205 8.33182 78.1424 1.82301 76.8411C-2.64117 75.948 -2.7985 75.7203 -0.244621 73.8522C1.2767 72.7403 2.07763 71.114 1.5364 70.2376C0.983658 69.3419 2.53701 67.9524 5.08322 67.0644C7.57568 66.1956 9.61519 64.8138 9.61519 63.9936C9.61519 60.5031 6.46504 54.6315 4.71469 54.8592C0.680427 55.3851 -1.18762 54.6737 -0.537631 52.8594C-0.165297 51.8204 -0.472372 49.7809 -1.22088 48.3261C-3.16572 44.5439 1.30486 36.7223 5.4594 36.6378C6.08251 36.6263 6.42287 37.449 6.21559 38.4675C6.00703 39.4873 7.43361 40.5634 9.38357 40.8589L12.9304 41.3963L9.54225 45.0045L6.15288 48.6114L9.97349 50.0637C14.0743 51.6234 18.0253 56.7017 22.0506 65.5853C23.9788 69.8409 25.2469 70.9528 27.4975 70.3642C32.1152 69.1564 32.6628 72.2861 28.3304 75.1253C25.3953 77.0484 24.8386 78.1321 26.1233 79.418C27.4092 80.7039 24.8745 81.5663 16.0843 82.8343C9.61771 83.7683 1.94587 84.9723 -0.963714 85.511C-5.00949 86.2608 -5.54176 86.1405 -3.2297 85.0005ZM-28.7147 76.6517C-29.2316 75.3057 -28.6418 72.2438 -27.4033 69.8512C-25.983 67.1041 -25.7079 65.1554 -26.6586 64.5681C-29.2777 62.9495 -28.2951 60.8844 -24.4489 59.9184C-22.4043 59.4053 -19.9412 58.0324 -18.9739 56.8681C-16.9613 54.4421 -7.65167 53.9956 -6.25446 56.2577C-5.74138 57.0869 -6.38108 59.2786 -7.67593 61.1275C-8.97079 62.9764 -10.0302 66.2967 -10.0302 68.5064C-10.0302 71.8766 -11.0666 72.8849 -16.452 74.7542C-19.9847 75.98 -23.9781 77.4604 -25.3241 78.0425C-26.9043 78.7258 -28.1082 78.2319 -28.7147 76.6517ZM-0.963714 61.638C-0.963714 61.2721 -0.283012 60.5517 0.548663 60.0387C1.37906 59.5243 2.05971 59.8237 2.05971 60.704C2.05971 61.5843 1.37906 62.3047 0.548663 62.3047C-0.283012 62.3047 -0.963714 62.0053 -0.963714 61.638ZM-671.625 54.3577C-673.105 52.5741 -673.012 51.7424 -671.154 50.2006C-668.083 47.6518 -666.559 49.3804 -668.347 53.3865C-669.579 56.149 -670.028 56.2821 -671.625 54.3577ZM-673.988 42.9919C-674.499 42.1666 -673.904 40.6504 -672.666 39.6229C-670.21 37.5847 -669.697 39.1828 -671.762 42.4429C-672.551 43.6879 -673.425 43.9041 -673.988 42.9919ZM-771.665 42.0284C-771.665 40.9651 -767.083 39.106 -760.582 37.5309C-758.118 36.9347 -756.661 37.078 -757.151 37.87C-757.619 38.6275 -759.886 39.6268 -762.189 40.0912C-764.492 40.557 -767.566 41.3976 -769.021 41.9593C-770.475 42.5223 -771.665 42.553 -771.665 42.0284ZM126.354 25.0353C123.566 23.9106 124.059 22.1766 127.236 21.9374C128.76 21.8226 130.006 22.6977 130.006 23.8825C130.006 26.1331 129.483 26.2982 126.354 25.0353ZM-205.728 17.3118C-215.291 12.0968 -219.862 4.08472 -217.092 -2.6049C-215.78 -5.77091 -215.74 -7.76181 -216.942 -10.0085C-219.445 -14.6843 -216.179 -20.1639 -207.831 -25.3015C-203.864 -27.7416 -199.905 -31.0738 -199.031 -32.7064C-196.611 -37.2295 -198.767 -44.9805 -202.979 -46.8999C-205.112 -47.8713 -206.271 -49.4074 -205.8 -50.635C-204.728 -53.4306 -209.759 -62.9788 -214.769 -67.657C-218.458 -71.1001 -220.045 -71.443 -232.673 -71.5257C-249.87 -71.6383 -253.074 -72.5943 -252.79 -77.5288C-252.671 -79.5784 -252.216 -81.2559 -251.779 -81.2566C-251.343 -81.2571 -245.221 -81.9664 -238.179 -82.8328C-229.187 -83.9389 -221.123 -86.2202 -211.1 -90.4946C-195.581 -97.1125 -194.398 -97.2419 -157.37 -96.3715C-145.678 -96.0967 -134.921 -96.962 -121.102 -99.2892C-108.233 -101.456 -98.7635 -102.273 -93.6507 -101.658C-89.3068 -101.134 -83.0167 -101.479 -79.4648 -102.436C-71.2235 -104.655 -49.8111 -101.985 -41.3895 -97.6889C-36.4109 -95.1489 -33.7765 -94.8135 -25.3753 -95.6499C-16.2998 -96.5534 -15.6139 -96.4345 -18.3418 -94.4312C-20.0039 -93.2103 -25.104 -91.7189 -29.6757 -91.1171C-39.5956 -89.811 -48.7095 -82.7409 -46.2938 -78.2267C-45.2523 -76.2794 -45.9995 -74.6174 -49.3684 -71.3894C-51.8161 -69.0439 -54.1781 -65.9958 -54.6157 -64.6159C-55.6687 -61.3009 -69.0279 -55.1313 -75.6519 -54.9013C-83.009 -54.6457 -83.7793 -53.0817 -78.0894 -49.9478C-75.4012 -48.4673 -71.4782 -45.9447 -69.3696 -44.342L-65.5375 -41.4281L-69.0024 -40.1465C-71.6586 -39.1641 -73.812 -39.7975 -78.2314 -42.86C-84.2284 -47.0159 -90.681 -47.0368 -87.2391 -42.8892C-85.8969 -41.2716 -86.2193 -40.6434 -88.7323 -39.9863C-94.348 -38.5177 -90.3751 -35.6138 -84.1823 -36.6601C-80.2402 -37.3261 -78.0228 -36.9752 -76.7907 -35.4899C-75.3244 -33.7227 -77.2372 -32.9044 -88.2435 -30.5911C-95.511 -29.0635 -105.197 -27.7579 -109.768 -27.6896C-118.261 -27.5626 -124.38 -25.1247 -133.383 -18.2824C-136.318 -16.0512 -142.557 -13.8399 -149.856 -12.4432C-165.115 -9.52393 -170.271 -6.14771 -179.464 6.94327C-186.848 17.458 -191.301 21.377 -195.906 21.4141C-197.152 21.4243 -201.573 19.5781 -205.728 17.3118ZM-312.878 7.20479C-316.124 5.21082 -320.1 1.49182 -321.715 -1.05951C-324.869 -6.04049 -327.777 -6.67333 -336.291 -4.23152C-339.173 -3.40497 -342.407 -3.32526 -343.701 -4.04908C-348.175 -6.55332 -340.092 -9.01636 -331.09 -7.89155C-324.243 -7.0362 -322.723 -7.27995 -321.925 -9.36043C-320.32 -13.5407 -312.979 -16.5365 -308.897 -14.6765C-306.384 -13.5315 -304.099 -13.5635 -300.89 -14.7884C-296.572 -16.4366 -296.511 -16.5854 -299.333 -18.6564C-300.946 -19.8411 -302.787 -20.8103 -303.425 -20.8103C-304.062 -20.8103 -306.362 -23.8461 -308.536 -27.5565C-310.711 -31.2669 -314.787 -35.7219 -317.592 -37.4565C-322.362 -40.4044 -322.993 -40.4562 -327.26 -38.2499C-330.99 -36.3212 -333.145 -36.1862 -339.046 -37.5113C-343.017 -38.4032 -348.564 -38.7035 -351.37 -38.1788C-356.238 -37.2686 -365.158 -39.6509 -365.158 -41.8613C-365.158 -45.9222 -352.359 -55.0359 -344.756 -56.3885L-338.712 -57.4642L-343.033 -52.8607C-348.993 -46.5104 -346.752 -43.5879 -340.279 -49.2707C-337.533 -51.6814 -332.789 -54.1224 -329.735 -54.6954C-325.069 -55.5708 -323.069 -54.9999 -317.21 -51.1188C-309.413 -45.9547 -308.813 -45.8163 -304.416 -48.1693C-301.768 -49.5862 -300.786 -49.1971 -297.911 -45.5913C-295.923 -43.0972 -291.482 -40.3815 -287.151 -39.0111C-280.248 -36.8271 -279.776 -36.352 -279.776 -31.5915C-279.776 -28.0216 -278.747 -25.769 -276.322 -24.0356C-266.181 -16.7827 -266.402 -17.0823 -268.597 -13.5684C-271.606 -8.75061 -273.981 -8.40142 -280.641 -11.7988C-285.274 -14.1621 -287.296 -14.4862 -289.629 -13.2381C-292.482 -11.7109 -292.513 -11.3846 -290.216 -6.94229C-288.33 -3.29647 -288.159 -1.45553 -289.44 1.35631C-291.019 4.8212 -291.269 4.8747 -295.557 2.65809C-303.984 -1.69977 -309.658 1.16785 -301.797 5.81155C-299.334 7.26647 -297.662 9.0121 -298.081 9.69075C-299.545 12.059 -307.023 10.8028 -312.878 7.20479ZM-2.47476 9.16154C-2.47476 8.46894 -1.45376 7.90226 -0.207526 7.90226C1.03871 7.90226 2.05971 8.46894 2.05971 9.16154C2.05971 9.85426 1.03871 10.421 -0.207526 10.421C-1.45376 10.421 -2.47476 9.85426 -2.47476 9.16154ZM-369.856 1.03452C-372.836 -0.531846 -375.149 -0.665941 -379.322 0.486123C-386.415 2.44466 -388.895 1.01136 -385.296 -2.9661C-380.688 -8.05788 -377.563 -9.05935 -372.004 -7.22505C-365.749 -5.16057 -362.972 -2.09195 -364.66 0.892234C-365.736 2.79473 -366.471 2.81482 -369.856 1.03452ZM-69.7214 0.346275C-72.2152 -1.29315 -75.3896 -2.27594 -76.7741 -1.83759C-78.6831 -1.23392 -79.1066 -1.75787 -78.5206 -3.99789C-77.6211 -7.43605 -64.3437 -12.3982 -59.8552 -10.9737C-58.2904 -10.477 -54.2907 -10.8855 -50.9678 -11.8812C-45.75 -13.4445 -44.3669 -13.3261 -40.8393 -11.0149L-36.7539 -8.33835L-40.3927 -5.50246C-43.4648 -3.1089 -49.1611 -1.03213 -62.9209 2.71067C-64.1684 3.04974 -67.229 1.98583 -69.7214 0.346275ZM-480.007 -27.8637C-482.085 -28.1921 -487.147 -29.9695 -491.255 -31.8136L-498.726 -35.1665L-488.233 -35.9221C-482.462 -36.3377 -477.741 -37.3577 -477.741 -38.1889C-477.741 -39.0201 -481.821 -40.0645 -486.808 -40.51C-493.392 -41.0982 -494.633 -41.512 -491.341 -42.0211C-485.829 -42.8738 -485.432 -45.2611 -490.586 -46.5626C-494.296 -47.5 -494.27 -47.5572 -489.049 -49.8065C-480.002 -53.7047 -470.365 -54.4514 -461.827 -51.9159C-454.818 -49.8342 -453.722 -49.843 -450.417 -52.0085C-448.08 -53.54 -446.693 -53.7963 -446.572 -52.7189C-446.469 -51.7922 -446.299 -50.2405 -446.195 -49.2709C-445.844 -45.9971 -442.83 -46.4207 -439.233 -50.2494C-435.903 -53.7937 -430.131 -55.4916 -430.144 -52.9229C-430.147 -52.2995 -431.491 -49.5888 -433.131 -46.899L-436.114 -42.0085L-431.236 -39.4643L-426.36 -36.9201L-434.367 -33.2656C-441.593 -29.9678 -443.074 -29.7791 -449.551 -31.3328C-455.831 -32.8392 -457.632 -32.6669 -463.96 -29.9548C-471.106 -26.8914 -472.613 -26.695 -480.007 -27.8637ZM-419.4 -28.9284C-420.765 -30.573 -420.201 -31.3823 -416.673 -32.8435C-414.218 -33.8605 -410.697 -34.1995 -408.809 -33.6005C-405.536 -32.5616 -405.612 -32.3984 -410.587 -29.7487C-416.934 -26.3682 -417.25 -26.3388 -419.4 -28.9284ZM-2.47476 -35.9221C0.45529 -37.8155 2.05971 -37.8155 2.05971 -35.9221C2.05971 -35.091 0.529483 -34.4214 -1.34114 -34.4341C-4.09079 -34.4528 -4.30701 -34.7376 -2.47476 -35.9221ZM274.827 -40.1147C267.102 -43.1664 267.26 -42.9996 269.508 -45.7083C270.559 -46.9751 270.826 -48.0333 270.101 -48.0596C269.375 -48.0861 270.143 -49.1354 271.805 -50.3915C273.467 -51.6475 274.839 -53.156 274.853 -53.7436C274.905 -55.9787 281.058 -61.8731 285.406 -63.8539C287.899 -64.99 294.359 -66.2704 299.762 -66.6993C305.164 -67.1282 312.401 -67.9141 315.843 -68.4456C319.506 -69.0112 322.491 -68.7799 323.043 -67.8877C324.114 -66.154 322.069 -65.4171 310.34 -63.3099C298.701 -61.2189 291.705 -57.9605 287.098 -52.4845C282.243 -46.7158 282.081 -43.0734 286.538 -39.9637L289.939 -37.5918L285.406 -37.6593C282.912 -37.6964 278.151 -38.8015 274.827 -40.1147ZM-516.647 -44.4962C-519.083 -46.9334 -518.528 -47.4639 -506.836 -53.865C-493.135 -61.3649 -486.251 -62.3605 -473.963 -58.6191L-467.162 -56.5487L-476.23 -54.7509C-483.645 -53.2805 -499.359 -48.0255 -511.769 -42.8664C-513.035 -42.34 -515.22 -43.0703 -516.647 -44.4962ZM-407.471 -46.4522C-407.471 -47.2567 -409.34 -48.9884 -411.627 -50.3003L-415.783 -52.6857L-410.218 -51.8106C-406.264 -51.1888 -404.295 -51.5592 -403.417 -53.0901C-402.373 -54.9107 -392.755 -58.5538 -388.919 -58.5815C-388.275 -58.5866 -388.802 -56.5521 -390.089 -54.0615C-393.123 -48.1954 -407.471 -41.914 -407.471 -46.4522ZM-383.942 -50.8645C-386.107 -54.3677 -371.321 -59.7904 -365.039 -57.7968C-360.462 -56.3438 -363.521 -53.8471 -371.507 -52.5197C-375.079 -51.9258 -379.124 -50.962 -380.494 -50.3782C-381.864 -49.7944 -383.416 -50.0132 -383.942 -50.8645ZM-335.69 -61.9925C-345.663 -62.7858 -354.01 -63.6075 -354.237 -63.8185C-355.588 -65.0723 -352.218 -69.1535 -348.591 -70.6559C-345.025 -72.1331 -343.382 -71.9371 -338.5 -69.4523C-333.741 -67.0303 -330.673 -66.6276 -321.833 -67.2648C-315.874 -67.6942 -309.074 -67.5585 -306.721 -66.963L-302.443 -65.8803L-307.733 -63.054C-310.642 -61.4995 -314.042 -60.3002 -315.288 -60.3889C-316.536 -60.4776 -325.716 -61.1991 -335.69 -61.9925ZM99.1942 -68.1685C91.7706 -71.9689 91.0553 -73.6924 96.886 -73.7248C99.1712 -73.7376 102.062 -74.4817 103.308 -75.3785C105.268 -76.7882 105.241 -76.9035 103.115 -76.2292C101.761 -75.8001 99.8634 -76.2407 98.8961 -77.2073C97.559 -78.5443 96.863 -78.5206 95.9904 -77.1086C95.1817 -75.8013 93.5235 -75.6466 90.3862 -76.586C82.4174 -78.9724 80.6402 -80.0318 80.6402 -82.398C80.6402 -84.4021 82.6388 -84.5857 94.9975 -83.7169C104.409 -83.0554 109.353 -83.2388 109.353 -84.2495C109.353 -87.2243 113.546 -85.7554 114.658 -82.3911L115.782 -78.9908L116.451 -82.3911C116.818 -84.2611 118.092 -85.7913 119.281 -85.7913C120.47 -85.7913 121.442 -86.6072 121.442 -87.6047C121.442 -89.0151 121.845 -89.0151 123.257 -87.6047C124.311 -86.5498 129.367 -85.7913 135.345 -85.7913C146.149 -85.7913 148.687 -83.8596 141.482 -81.1199C137.737 -79.6964 131.224 -80.099 124.087 -82.1956C122.632 -82.623 121.447 -82.4167 121.452 -81.7373C121.463 -80.3426 129.953 -75.2128 132.251 -75.2128C133.074 -75.2128 134.702 -74.2589 135.867 -73.093C137.687 -71.2736 137.671 -70.8517 135.76 -70.118C134.534 -69.6478 133.532 -69.9975 133.532 -70.8949C133.532 -71.9501 131.61 -72.1664 128.094 -71.5068C124.287 -70.7924 122.966 -70.9884 123.69 -72.1603C124.26 -73.0809 123.904 -74.8244 122.898 -76.0347C120.961 -78.3696 115.398 -79.0845 115.398 -76.9986C115.398 -76.3185 113.188 -73.3184 110.487 -70.3321L105.575 -64.9021L99.1942 -68.1685ZM-301.688 -71.4929C-304.307 -73.0309 -308.014 -73.4763 -313.777 -72.9461C-319.165 -72.4505 -323.307 -72.8778 -325.55 -74.1605C-328.642 -75.9289 -327.886 -76.1305 -318.448 -76.054C-306.646 -75.9584 -301.463 -78.4849 -307.854 -81.2176C-310.89 -82.5157 -310.448 -82.6337 -305.243 -81.9126C-298.449 -80.9714 -295.808 -82.7919 -299.509 -85.8643C-303.457 -89.1406 -299.116 -90.1577 -285.07 -89.2477C-276.378 -88.6846 -270.916 -89.0004 -268.684 -90.1953C-264.406 -92.4843 -266.085 -95.3982 -270.974 -94.1712C-274.353 -93.3232 -297.801 -94.7147 -296.812 -95.7045C-296.105 -96.4119 -262.884 -99.4887 -241.069 -100.867C-229.755 -101.582 -217.174 -102.58 -213.112 -103.084L-205.728 -104L-217.918 -98.1445C-229.348 -92.6545 -247.934 -87.3024 -255.57 -87.3024C-257.429 -87.3024 -262.772 -85.2623 -267.445 -82.7688C-272.118 -80.2753 -276.878 -78.2353 -278.023 -78.2353C-279.169 -78.2353 -284.112 -76.2038 -289.008 -73.7208C-293.904 -71.2379 -297.91 -69.222 -297.91 -69.2409C-297.91 -69.2598 -299.61 -70.2732 -301.688 -71.4929ZM-331.156 -85.2994C-338.48 -86.9199 -338.749 -87.5296 -333.366 -90.319C-325.522 -94.385 -318.098 -95.4271 -314.723 -92.9362C-312.051 -90.964 -312.206 -90.6593 -317.453 -87.5627C-322.923 -84.3354 -325.143 -83.9689 -331.156 -85.2994Z" stroke="#232222" stroke-opacity="0.05" stroke-width="2.559"/>
</g>
<defs>
<filter id="filter0_f_348_129" x="-668" y="-153" width="1200" height="1200" filterUnits="userSpaceOnUse" color-interpolation-filters="sRGB">
<feFlood flood-opacity="0" result="BackgroundImageFix"/>
<feBlend mode="normal" in="SourceGraphic" in2="BackgroundImageFix" result="shape"/>
<feGaussianBlur stdDeviation="250" result="effect1_foregroundBlur_348_129"/>
</filter>
<filter id="filter1_f_348_129" x="-232" y="376" width="1200" height="1200" filterUnits="userSpaceOnUse" color-interpolation-filters="sRGB">
<feFlood flood-opacity="0" result="BackgroundImageFix"/>
<feBlend mode="normal" in="SourceGraphic" in2="BackgroundImageFix" result="shape"/>
<feGaussianBlur stdDeviation="250" result="effect1_foregroundBlur_348_129"/>
</filter>
<clipPath id="clip0_348_129">
<rect width="375" height="889" fill="white"/>
</clipPath>
</defs>
</svg>
