<svg width="1440" height="829" viewBox="0 0 1440 829" fill="none" xmlns="http://www.w3.org/2000/svg">
<g clip-path="url(#clip0_312_510)">
<path d="M210.411 933.074C202.734 930.201 200.587 927.388 202.41 922.592C203.255 920.37 204.878 918.553 206.016 918.553C207.155 918.553 212.138 921.171 217.09 924.372C222.043 927.573 228.099 930.919 230.548 931.808L235 933.426L229.523 933.545C226.51 933.61 222.089 933.948 219.7 934.293C217.31 934.64 213.13 934.091 210.411 933.074ZM192.988 918.328C191.542 917.519 189.133 917.246 187.632 917.722C185.743 918.321 184.285 917.429 182.888 914.817C181.777 912.744 179.789 910.675 178.467 910.221C175.435 909.178 169.079 898.88 165.543 889.28C163.755 884.431 161.354 881.08 158.5 879.458C153.44 876.579 153.077 875.272 156.994 874.03C161.476 872.607 162.311 864.706 158.537 859.408C156.737 856.88 155.789 853.911 156.332 852.497C156.973 850.829 155.206 847.901 150.927 843.542C145.527 838.04 144.529 836.04 144.288 830.243C144.132 826.49 143.217 822.472 142.257 821.314C141.047 819.857 140.8 814.624 141.454 804.278C142.161 793.066 141.749 786.146 139.798 776.501C136.901 762.177 135.421 735.49 136.173 711.143C136.334 705.948 135.661 698.816 134.677 695.294C132.282 686.717 121.263 675.89 107.644 668.734C97.9032 663.614 96.5329 662.303 92.7251 654.44C90.4194 649.679 86.0115 642.563 82.9318 638.627C79.8508 634.691 76.5023 628.91 75.489 625.782C72.2736 615.852 66.6054 605.874 62.7426 603.342C60.6864 601.995 58.3411 598.492 57.5312 595.558C56.2197 590.809 56.5652 589.484 60.6685 583.519C65.1186 577.052 65.1711 576.789 62.1642 576.002C54.7751 574.07 57.883 564.194 71.145 547.457C79.9608 536.335 82.5428 527.86 80.1002 518.071C79.17 514.34 78.3371 510.437 78.2488 509.398C78.1618 508.359 77.499 507.51 76.7774 507.51C76.0545 507.51 76.1939 506.147 77.0858 504.481C78.4587 501.915 78.1119 501.182 74.8108 499.677C69.9999 497.485 62.7349 499.653 62.7068 503.289C62.6722 507.648 60.7555 507.969 54.4335 504.675C51.0467 502.909 47.5293 501.466 46.617 501.466C45.7048 501.466 42.1554 499.051 38.7302 496.101C35.305 493.15 31.652 490.063 30.6131 489.24C29.5741 488.418 28.7245 486.178 28.7245 484.261C28.7245 482.345 27.39 479.569 25.7586 478.093C24.1273 476.618 22.0136 473.049 21.0616 470.164C19.8103 466.373 18.8737 465.376 17.6812 466.568C15.1913 469.058 11.505 468.586 2.55876 464.629C-2.11909 462.561 -6.99142 459.028 -8.93754 456.295C-10.7954 453.685 -14.346 450.502 -16.8257 449.218C-20.9201 447.101 -21.9436 447.117 -27.9061 449.395L-34.4764 451.904L-54.6336 442.136C-67.0332 436.128 -76.6563 430.397 -79.6376 427.244C-84.2591 422.356 -84.4088 421.827 -82.8709 415.768C-81.4621 410.218 -81.7014 408.501 -84.7645 402.171C-86.694 398.187 -90.9074 392.067 -94.1292 388.571C-97.3509 385.076 -99.6221 381.624 -99.1742 380.901C-98.7264 380.176 -100.996 375.299 -104.218 370.061C-107.877 364.111 -110.459 357.736 -111.1 353.071C-111.923 347.092 -112.882 345.263 -115.915 343.881C-119.131 342.416 -120.03 342.602 -121.871 345.118C-124.465 348.66 -123.728 352.4 -117.993 364.79C-115.663 369.826 -113.255 377.291 -112.642 381.379C-112.029 385.466 -110.219 391.377 -108.618 394.513C-104.828 401.942 -107.276 401.811 -113.253 394.265C-116.778 389.815 -117.73 387.374 -117.028 384.583C-116.281 381.603 -117.017 380.167 -120.68 377.459C-126.237 373.35 -127.413 370.7 -125.372 366.887C-124.182 364.664 -124.727 362.224 -127.751 356.26C-130.82 350.201 -131.461 347.268 -130.701 342.769C-129.46 335.416 -132.759 328.761 -138.909 326.212C-142.46 324.742 -143.684 323.096 -144.407 318.822C-144.919 315.797 -145.9 311.118 -146.586 308.423C-147.3 305.62 -147.248 303.162 -146.464 302.678C-145.711 302.212 -146.204 300.138 -147.56 298.071C-149.556 295.024 -149.692 293.582 -148.279 290.479C-147.32 288.373 -146.957 285.967 -147.474 285.13C-147.991 284.293 -146.703 281.794 -144.612 279.577C-142.52 277.358 -139.736 272.935 -138.424 269.745C-137.113 266.557 -133.07 260.645 -129.442 256.61C-125.813 252.574 -121.212 245.504 -119.219 240.899C-116.451 234.506 -114.829 232.52 -112.361 232.5C-110.584 232.487 -109.223 233.324 -109.339 234.363C-109.82 238.693 -106.397 237.36 -102.552 231.719C-100.285 228.394 -99.0616 225.447 -99.8345 225.171C-100.606 224.893 -101.237 223.643 -101.237 222.391C-101.237 221.139 -104.365 217.074 -108.19 213.359C-114.531 207.195 -114.939 206.378 -112.83 204.048C-111.121 202.16 -110.92 200.775 -112.06 198.739C-114.062 195.16 -110.902 187.148 -107.477 187.116C-106.062 187.102 -105.657 186.621 -106.526 185.982C-108.476 184.551 -109.359 181.298 -109.085 176.56C-108.648 168.993 -110.303 165.829 -115.929 163.478C-118.963 162.211 -123.593 159.535 -126.219 157.533C-128.843 155.53 -132.174 153.892 -133.619 153.892C-135.064 153.892 -141.634 152.517 -148.218 150.836C-158.805 148.133 -160.671 148.026 -164.338 149.914C-171.937 153.825 -179.989 155.419 -183.271 153.662C-185.733 152.345 -188.42 153.159 -197.79 158.06C-204.113 161.367 -211.667 164.587 -214.576 165.213C-217.485 165.842 -223.052 167.961 -226.947 169.923C-237.996 175.49 -253.824 181.104 -258.202 181.006C-261.028 180.942 -259.117 179.704 -251.6 176.723C-238.823 171.656 -225.695 165.057 -224.481 163.093C-222.985 160.673 -226.232 159.805 -230.132 161.582C-233.003 162.89 -234.773 162.767 -238.086 161.032L-242.347 158.799L-237.712 156.402C-232.472 153.692 -230.823 150.626 -232.027 145.829C-233.193 141.184 -226.764 137.77 -212.914 135.681C-205.473 134.559 -199.816 132.691 -196.007 130.098C-189.29 125.526 -190.444 122.07 -197.686 125.07C-201.114 126.49 -203.611 126.505 -208.688 125.138C-214.857 123.477 -215.077 123.24 -212.318 121.222C-207.7 117.845 -198.15 115.814 -191.875 116.875C-187.904 117.545 -184.652 117.076 -181.314 115.35L-176.491 112.855L-179.666 109.476C-181.412 107.617 -182.841 105.696 -182.841 105.208C-182.841 103.806 -173.744 101.001 -169.195 101.001C-166.924 101.001 -160.7 99.3577 -155.363 97.3489C-150.026 95.3401 -137.713 92.5976 -128.001 91.2545C-112.248 89.076 -108.913 89.0494 -97.1002 91.0081C-89.8173 92.2157 -79.7783 93.6559 -74.7921 94.2086C-69.8046 94.7614 -60.9786 96.5158 -55.1761 98.1075C-41.703 101.804 -32.9269 101.759 -17.8748 97.9159C-11.2278 96.2187 -4.51047 95.2363 -2.94564 95.7328C-1.3821 96.2291 1.2767 95.8969 2.96308 94.9945C5.28665 93.7511 7.08819 93.9015 10.4034 95.6157C13.3987 97.1644 17.0952 97.6065 22.1287 97.0176C27.4386 96.3964 32.0883 97.0398 38.8773 99.3351C44.0452 101.083 49.7851 102.513 51.6327 102.513C54.9056 102.513 54.9159 102.568 52.0588 104.671C49.2554 106.734 49.2477 106.878 51.8796 107.898C53.3946 108.485 58.6533 108.545 63.5653 108.031C72.4373 107.104 72.5141 107.13 74.9886 111.914L77.4786 116.73L80.7119 112.676C82.5697 110.346 86.9853 107.706 91.0912 106.47C97.2993 104.602 99.1827 104.609 105.416 106.518C109.818 107.866 115.084 108.356 119.029 107.787C124.052 107.061 126.385 107.513 129.662 109.847C133.8 112.793 133.913 112.794 137.583 109.95C139.632 108.363 143.846 106.357 146.948 105.493C154.376 103.423 156.896 99.0134 152.434 95.889C149.28 93.6796 149.418 93.5109 157.71 89.4443C163.895 86.4112 166.679 85.7224 167.884 86.9279C169.089 88.1332 169.078 89.4591 167.839 91.7721C165.729 95.7143 168.356 101.673 171.647 100.411C172.829 99.9565 174.792 99.9666 176.008 100.433C177.917 101.166 177.886 101.787 175.782 104.997C169.972 113.864 182.999 111.352 191.817 101.904C195.402 98.0629 200.958 96.8983 206.164 98.8963C209.527 100.187 209.212 101.243 203.644 107.349C197.007 114.625 193.611 116.113 183.645 116.113C178.828 116.113 173.14 117.157 170.491 118.527C166.822 120.424 165.033 120.582 162.14 119.263C156.747 116.806 154.869 118.851 158.738 122.97L162.041 126.485L155.453 128.355C151.828 129.384 145.803 130.325 142.063 130.446C136.639 130.623 135.261 131.211 135.252 133.356C135.244 135.19 132.606 137.121 126.94 139.437C108.583 146.941 93.0104 160.472 98.6479 164.018C99.7047 164.682 101.381 167.078 102.375 169.341C103.519 171.946 105.724 173.763 108.387 174.297C110.702 174.76 116.675 177.149 121.662 179.604C126.648 182.061 132.77 184.514 135.262 185.057C142.127 186.553 142.187 186.712 138.99 194.822C136.255 201.761 136.2 202.752 138.319 206.851C139.589 209.308 141.461 211.294 142.48 211.264C147.431 211.121 152.073 206.552 154.959 198.981C157.708 191.767 158.961 190.421 166.854 186.205C178.501 179.984 183.344 173.857 182.055 166.977C181.214 162.495 181.65 161.443 185.486 158.712C187.903 156.99 191.103 152.871 192.598 149.557C195.938 142.15 201.306 139.582 210.357 141.061C218.383 142.374 227.876 147.47 229.022 151.082C229.493 152.565 229.103 155.228 228.154 157C226.718 159.685 226.989 160.818 229.779 163.788L233.128 167.353L238.598 164.519C241.606 162.959 246.428 159.918 249.313 157.759L254.557 153.834L255.79 157.165C256.466 158.996 256.66 161.439 256.217 162.593C255.774 163.746 256.118 166.009 256.982 167.623C257.953 169.437 258.029 171.491 257.18 173.007C256.223 174.716 256.863 177.314 259.294 181.595C262.78 187.73 262.78 187.734 259.719 189.877C255.694 192.698 258.277 195.689 262.695 193.324C267.085 190.975 272.108 191.281 275.207 194.084C279.787 198.23 275.979 203.188 263.821 208.907C250.597 215.129 244.704 216.362 227.445 216.514C214.7 216.626 213.012 217.033 200.621 222.973C193.349 226.459 187.398 229.91 187.398 230.641C187.398 233.759 189.689 233.488 198.482 229.329C203.662 226.878 210.339 224.92 213.519 224.92C218.952 224.919 219.15 225.087 217.453 228.256C216.471 230.092 214.352 232.659 212.743 233.961C210.216 236.007 210.068 236.871 211.651 240.343C214.023 245.551 220.22 248.057 227.632 246.806L233.489 245.818L228.985 248.925C226.508 250.634 222.428 252.476 219.918 253.018C217.408 253.561 212.251 255.568 208.456 257.48C204.605 259.419 200.735 260.447 199.695 259.805C197.304 258.325 199.828 256.108 207.599 252.862C214.509 249.974 213.404 246.907 205.957 248.304C203.056 248.848 193.649 252.391 185.054 256.178C171.636 262.089 169.295 263.648 168.514 267.205C167.554 271.576 164.279 273.644 152.762 277.148C149.088 278.265 144.327 280.966 142.183 283.15C140.04 285.334 135.934 288.604 133.06 290.417C130.186 292.228 127.434 295.404 126.945 297.472C126.139 300.882 125.952 300.962 124.943 298.336C123.052 293.416 120.202 298.226 120.039 306.616C119.871 315.213 115.513 321.077 105.956 325.567C96.158 330.171 82.2153 341.05 79.3901 346.295C76.8964 350.927 76.7915 352.731 78.3282 364.634C79.7625 375.739 79.6767 378.526 77.7895 382.174C76.3807 384.899 74.7379 386.2 73.3701 385.676C70.1279 384.432 66.1614 371.088 67.2733 365.164C68.0448 361.048 67.533 359.488 64.4661 356.607C61.9941 354.286 59.7127 353.403 57.7743 354.018C56.1544 354.531 51.5777 353.558 47.5971 351.851C41.499 349.237 39.5529 349.018 35.1988 350.455C32.247 351.428 29.3131 353.739 28.3535 355.847C26.9243 358.983 25.9774 359.386 22.0315 358.537C19.4789 357.989 15.5546 356.6 13.3091 355.454C7.78167 352.63 4.68657 352.827 -1.52284 356.397C-4.41963 358.063 -10.3284 361.25 -14.6556 363.48C-19.629 366.043 -23.044 368.959 -23.9397 371.408C-24.7189 373.538 -27.5056 381.844 -30.1324 389.862L-34.9075 404.445L-32.4688 413.857C-27.9867 431.149 -21.753 436.326 -8.76226 433.541C1.02975 431.44 6.91161 427.184 9.07268 420.634C10.4456 416.475 11.9273 415.099 16.3607 413.868C23.032 412.014 25.8188 411.946 28.3803 413.573C30.4954 414.915 29.752 417.123 20.2837 437.622C13.7876 451.688 14.2547 452.946 25.385 451.34C35.5263 449.877 44.795 451.001 45.8775 453.822C46.2997 454.922 45.6139 462.345 44.3523 470.316C42.0953 484.577 42.1119 484.897 45.3606 490.152C47.1762 493.09 50.5797 496.486 52.925 497.699C56.6688 499.635 57.8434 499.629 62.5532 497.662C70.0383 494.534 74.1019 494.866 79.3006 499.024C83.4576 502.351 84.045 502.444 87.3115 500.304C89.2512 499.033 91.896 495.886 93.1895 493.307C96.1081 487.495 101.024 483.409 105.153 483.364C106.879 483.347 109.887 481.631 111.84 479.553C115.803 475.333 122.784 473.959 119.372 478.07C116.508 481.519 114.872 492.617 116.717 496.065C118.254 498.936 118.378 498.919 121.173 495.466C123.164 493.007 123.566 491.43 122.477 490.343C119.882 487.747 120.663 485.59 125.493 482.02C130.507 478.312 134.387 478.693 138.714 483.316C141.886 486.707 158.827 491.288 163.681 490.07C171.074 488.215 191.051 500.361 198.556 511.276C202.13 516.473 213.548 521.702 218.568 520.442C228.896 517.851 243.055 528.197 246.365 540.757C247.351 544.497 248.838 547.981 249.668 548.498C251.874 549.872 248.571 555.298 241.352 562.166C236.739 566.554 235.637 568.444 236.935 569.741C238.232 571.039 240.365 569.901 245.487 565.18C252.938 558.314 255.422 557.617 259.155 561.349C261.425 563.619 261.355 564.081 258.244 567.393C256.391 569.366 253.803 571.023 252.494 571.076C251.113 571.131 251.671 571.793 253.82 572.652C256.772 573.83 258.313 573.499 261.376 571.023C269.355 564.577 271.231 564.267 278.318 568.227C282.926 570.801 284.772 572.761 284.539 574.834C283.893 580.596 285.251 581.872 289.247 579.254C292.423 577.174 294.601 577.075 305.226 578.53C316.526 580.077 318.007 580.694 323.428 586.116C327.453 590.142 331.981 592.789 337.669 594.442C345.306 596.662 346.135 597.339 347.521 602.482C349.528 609.941 347.177 618.216 340.812 626.078C338.095 629.435 334.763 634.365 333.408 637.033C332.054 639.699 329.175 643.653 327.01 645.819C323.345 649.484 323.141 650.401 324.055 659.103C325.84 676.105 317.523 707.825 309.502 714.608C306.89 716.816 304.655 717.336 300.515 716.695C297.11 716.166 294.59 716.506 293.925 717.584C293.333 718.542 290.033 720.564 286.592 722.076C283.15 723.59 278.029 726.799 275.209 729.207C270.327 733.377 270.163 733.839 271.806 738.816C273.7 744.554 272.424 751.349 268.366 757.144C267.053 759.018 265.98 762.205 265.98 764.227C265.98 766.25 264.403 770.009 262.476 772.581C260.549 775.153 256.831 781.039 254.215 785.664C247.779 797.038 243.908 799.01 234.574 795.664C226.475 792.761 222.155 792.414 222.155 794.667C222.155 795.517 223.77 796.946 225.743 797.846C227.716 798.745 230.792 802.406 232.577 805.98C235.236 811.304 235.517 813.151 234.132 816.193C231.985 820.904 223.778 824.859 216.148 824.859C209.391 824.859 207.715 826.512 210.049 830.872C211.489 833.564 210.521 837.895 207.734 841.216C207.509 841.484 205.143 840.576 202.477 839.198C196.112 835.907 193.859 838.003 197.076 844.224C198.384 846.753 200.872 849.273 202.603 849.823C205.581 850.767 205.613 850.977 203.193 853.651C201.783 855.21 201.051 857.574 201.566 858.913C202.117 860.351 200.886 863.457 198.55 866.52C194.752 871.5 194.697 871.845 197.132 875.56C198.524 877.685 200.696 879.82 201.959 880.305C206.51 882.051 207.263 888.017 203.793 894.819C200.317 901.634 199.783 908.466 202.474 911.709C204.921 914.657 196.69 920.399 192.988 918.328ZM81.6152 263.818C85.6533 255.381 93.1665 249.098 99.2173 249.098C103.573 249.098 103.624 249.804 99.6369 254.873L96.5009 258.86L99.7175 261.465C102.31 263.564 103.647 263.745 106.603 262.399C108.619 261.481 110.687 259.414 111.197 257.807C111.891 255.622 113.019 255.11 115.679 255.778C118.142 256.397 119.684 255.868 120.697 254.057C123.768 248.569 115.954 241.552 110.202 244.631C106.087 246.834 100.709 242.452 101.857 237.829C102.282 236.117 101.406 233.135 99.8916 231.135C96.7683 227.012 92.0162 226.578 81.6152 229.465C77.8752 230.504 73.6106 231.306 72.1379 231.25C70.6652 231.192 69.8553 231.785 70.3377 232.567C70.8213 233.347 70.6652 234.001 69.9935 234.019C69.3205 234.038 67.0788 235.353 65.0098 236.942L61.2494 239.832L65.473 241.437C68.7741 242.693 70.7202 242.513 74.3873 240.617C78.6966 238.388 79.495 238.39 84.1985 240.633C87.0313 241.984 90.8992 242.677 92.8581 242.186C94.8043 241.697 96.8144 241.972 97.3249 242.796C97.8456 243.639 95.7166 244.724 92.4628 245.275C83.6189 246.768 79.0242 250.451 72.6088 261.186C67.2515 270.154 66.9432 271.236 69.0799 273.607C71.1745 275.933 71.7541 275.969 74.6279 273.958C76.3936 272.724 79.5373 268.161 81.6152 263.818ZM109.071 273.147C114.451 270.403 114.968 269.713 113.072 267.817C111.177 265.922 109.979 266.045 103.811 268.773C96.57 271.976 94.272 276.299 99.8097 276.299C101.505 276.299 105.672 274.881 109.071 273.147ZM135.866 261.728C139.014 259.523 139.13 259.091 136.91 257.848C133.642 256.02 123.928 259.171 123.928 262.06C123.928 265.036 131.44 264.828 135.866 261.728ZM249.356 914.321C249.356 913.656 250.173 912.296 251.169 911.298C252.167 910.301 252.412 909.485 251.714 909.485C251.016 909.485 249.63 910.601 248.633 911.963C247.203 913.92 246.214 914.089 243.932 912.764C242.302 911.819 241.907 911.068 243.023 911.042C244.112 911.017 244.581 910.317 244.067 909.485C243.08 907.889 245.674 907.454 253.135 907.964C259.793 908.418 260.462 909.39 256.347 912.627C252.513 915.643 249.356 916.408 249.356 914.321ZM1511.4 876.395C1507.07 873.655 1516.07 867.607 1538.39 858.255C1544.62 855.642 1554.13 850.181 1559.5 846.116C1568.64 839.206 1569.4 838.906 1571.21 841.493C1573.96 845.42 1572.34 848.262 1565.62 851.291C1562.42 852.738 1558.38 855.544 1556.65 857.524C1554.94 859.506 1552.16 861.127 1550.5 861.127C1548.83 861.127 1544.92 863.418 1541.8 866.217C1531.13 875.798 1517.6 880.325 1511.4 876.395ZM1405.63 856.763C1404.06 855.768 1403.97 854.744 1405.25 852.351C1406.17 850.638 1406.92 847.105 1406.92 844.502C1406.92 840.245 1407.27 839.888 1410.32 840.962C1412.2 841.621 1416.1 842.248 1419.02 842.357C1421.92 842.466 1424.82 842.653 1425.46 842.774C1427.97 843.244 1421.28 850.863 1415.27 854.388C1408.1 858.588 1408.4 858.515 1405.63 856.763ZM1580.26 843.548C1579.73 843.022 1580.97 841.275 1583.02 839.664C1586.11 837.238 1586.46 836.213 1585.12 833.694C1583.16 830.048 1586.07 826.137 1592.77 823.357C1597.97 821.203 1599.28 816.834 1597.89 806.287C1596.93 799.031 1597.05 798.578 1599.39 800.511C1601.22 802.03 1601.68 803.943 1601.01 807.432C1600.3 811.255 1600.95 813.242 1604.13 817.032C1607.58 821.126 1608.6 821.572 1611.29 820.136C1613.95 818.707 1614.27 818.837 1613.42 821.029C1612.89 822.44 1612.44 823.862 1612.44 824.188C1612.44 824.514 1610.24 825.913 1607.52 827.296C1604.82 828.679 1599.55 832.337 1595.82 835.425C1589.74 840.447 1583.48 844.504 1581.82 844.504C1581.49 844.504 1580.78 844.074 1580.26 843.548ZM1420.45 824.031C1417.28 820.643 1416.69 820.512 1413.63 822.516C1409.73 825.069 1402.41 823.577 1396.53 819.034C1393.41 816.611 1393.2 815.83 1394.81 812.815C1396.19 810.24 1396.23 808.436 1394.99 805.707C1394.07 803.694 1393.32 800.721 1393.32 799.097C1393.32 795.437 1390.94 795.261 1388.97 798.779C1388.17 800.226 1387.07 800.977 1386.54 800.448C1386 799.919 1387.76 797 1390.43 793.961C1397 786.481 1394.44 784.452 1385.76 790.261C1382.03 792.764 1378.72 795.498 1378.43 796.337C1378.14 797.177 1376.33 794.587 1374.44 790.582C1372.38 786.239 1368.82 781.876 1365.62 779.77C1360.82 776.607 1359.19 776.346 1349.96 777.265C1336.44 778.611 1323.39 781.947 1314.85 786.241C1310.96 788.193 1303.39 790.192 1297.54 790.805C1291.82 791.405 1282.74 793.557 1277.34 795.589C1269.08 798.694 1266.73 799.02 1262.56 797.641C1256.94 795.79 1254.61 791.974 1258.25 790.582C1259.55 790.078 1261.94 786.61 1263.54 782.876C1266.1 776.898 1266.24 775.037 1264.72 767.313C1263.47 760.923 1263.43 754.874 1264.59 745.036C1265.48 737.608 1265.81 730.068 1265.35 728.28C1264.87 726.493 1265.6 722.117 1266.97 718.556C1269.37 712.278 1269.94 711.867 1286.15 705C1295.35 701.106 1304.77 697.919 1307.07 697.919C1313.32 697.919 1321.06 691.976 1325.32 683.901C1327.95 678.91 1329.78 677.011 1331.36 677.622C1335.77 679.328 1336.64 678.993 1336.31 675.72C1336.09 673.615 1336.99 672.085 1338.79 671.514C1340.35 671.02 1343.22 668.268 1345.18 665.398C1347.18 662.462 1351.3 659.151 1354.62 657.823C1360.13 655.609 1360.68 655.642 1363.68 658.37C1369.22 663.402 1373.15 664.871 1375.01 662.614C1375.92 661.516 1376.24 660.185 1375.7 659.657C1373.98 657.927 1381.9 647.996 1385.76 647.042C1387.85 646.529 1392.11 644.825 1395.24 643.254C1400.13 640.803 1401.86 640.641 1407.33 642.112C1419.14 645.284 1419.54 645.802 1415.15 652.443C1409.5 660.982 1410.99 664.322 1424.85 674.079C1431.26 678.585 1437.3 682.001 1438.29 681.673C1439.27 681.345 1442.38 677.896 1445.19 674.008C1449.05 668.711 1450.53 664.858 1451.14 658.628C1452.03 649.779 1456.25 637.472 1458.42 637.472C1459.14 637.472 1460.79 641.112 1462.08 645.559C1463.38 650.008 1466.08 655.199 1468.1 657.095C1472.82 661.528 1475.56 673.922 1473.45 681.245C1472.04 686.097 1472.31 686.876 1477.12 691.824C1479.97 694.76 1484.49 701.924 1487.16 707.742C1489.82 713.56 1494.62 721.792 1497.83 726.035L1503.67 733.75L1502 745.67C1500.8 754.318 1498.95 760.083 1495.22 766.668C1489.53 776.756 1481.02 786.381 1476.53 787.807C1474.92 788.319 1471.17 792.105 1468.21 796.22C1465.26 800.336 1462.17 803.702 1461.37 803.702C1460.55 803.702 1457.09 807.233 1453.68 811.551C1447.98 818.749 1446.95 819.408 1441.01 819.519C1436.47 819.605 1432.98 820.84 1429.24 823.689L1423.93 827.736L1420.45 824.031ZM683.572 792.257C680.372 789.057 679.837 787.42 680.553 783.012C681.226 778.864 680.585 776.426 677.71 772.194C675.669 769.19 673.998 765.993 673.998 765.089C673.998 764.186 671.326 759.865 668.06 755.486C663.012 748.72 661.974 746.018 661.143 737.457C659.674 722.353 654.85 706.004 648.368 694.155C645.181 688.329 642.12 680.766 641.565 677.346C640.384 670.071 643.338 659.242 650.084 646.124L654.571 637.396L652.049 629.805C650.639 625.559 649.95 620.535 650.486 618.401C651.113 615.903 650.438 612.928 648.534 609.784C646.935 607.142 644.559 601.241 643.255 596.67C641.514 590.564 639.087 586.593 634.108 581.708C624.53 572.312 623.285 568.613 626.257 558.388C632.308 537.573 625.771 525.433 609.802 527.827C603.584 528.76 603.346 528.643 602.467 524.251C601.793 520.881 599.967 518.899 595.38 516.559C589.419 513.517 586.869 513.506 579.549 516.487C577.887 517.164 571.086 519.51 564.438 521.701C554.44 524.996 551.437 525.42 547.086 524.158C542.963 522.962 539.49 523.271 531.053 525.585C522.335 527.978 519.175 528.234 514.465 526.934C504.636 524.22 487.749 508.999 485.347 500.689C483.488 494.258 471.928 479.27 467.993 478.19C465.493 477.504 465.186 476.973 466.716 475.986C468.256 474.991 467.988 474.489 465.583 473.859C461.763 472.861 461.383 469.74 465.077 469.707C467.338 469.688 467.392 469.472 465.455 468.219C464.028 467.296 463.869 466.746 465.026 466.731C466.226 466.717 465.769 464.853 463.711 461.362C460.811 456.45 460.751 455.8 462.966 453.354C469.727 445.883 471.209 429.798 466.069 419.663C463.615 414.825 465.192 408.142 470.428 401.195C472.4 398.578 476.249 392.213 478.982 387.05C483.762 378.017 494.418 365.458 497.302 365.458C500.494 365.458 510.791 354.388 510.791 350.958C510.791 343.21 515.422 335.487 522.973 330.642C527.031 328.038 531.785 323.587 533.538 320.749C537.126 314.945 537.634 314.755 541.811 317.668C543.451 318.81 547.524 320.202 550.864 320.763C555.958 321.617 558.392 321.002 565.976 316.947C579.024 309.969 587.088 308.226 602.018 309.158C611.865 309.772 616.298 309.379 621.071 307.469C628.1 304.656 634.177 306.321 632.532 310.609C632.038 311.896 632.34 313.802 633.202 314.842C634.29 316.151 634.281 318.027 633.175 320.934C631.786 324.587 632.094 325.675 635.535 329.266C637.713 331.537 641.609 333.82 644.196 334.337C656.341 336.765 659.794 338.339 662.302 342.585C664.139 345.695 666.549 347.292 670.53 348.039C673.627 348.62 678.123 350.109 680.523 351.35C684.597 353.458 685.124 353.381 688.523 350.189C690.807 348.043 691.843 345.771 691.307 344.083C690.837 342.604 691.196 340.008 692.101 338.315C694.44 333.945 701.078 334.374 711.442 339.564C722.735 345.217 744.15 349.251 751.741 347.155C755.393 346.147 758.904 346.133 762.1 347.115C772.542 350.324 777.889 347.813 779.316 339.029C779.789 336.11 780.597 333.724 781.112 333.724C782.089 333.724 782.6 329.337 782.741 319.745C782.787 316.629 783.524 314.079 784.379 314.079C785.396 314.079 785.346 312.983 784.233 310.904C782.375 307.432 778.606 307.511 769.587 311.212C765.308 312.968 764.118 312.894 760.286 310.629C755.316 307.694 750.218 307.254 748.747 309.634C747.653 311.403 739.927 310.162 735.736 307.545C732.726 305.665 729.912 300.068 729.912 295.958C729.912 294.383 728.382 292.016 726.512 290.698C723.617 288.66 723.449 288.083 725.379 286.82C726.625 286.004 729.189 285.699 731.078 286.143C733.484 286.71 735.698 285.762 738.494 282.966C741.124 280.337 744.323 278.885 747.907 278.694C750.892 278.535 755.217 277.166 757.517 275.65C762.511 272.359 773.849 273.274 782.645 277.677C794.506 283.614 805.04 283.264 809.281 276.794C811.486 273.427 811.499 272.72 809.405 269.525C808.13 267.579 802.003 263.094 795.791 259.559L784.494 253.132L786.61 249.04C787.775 246.788 788.347 244.566 787.881 244.1C787.415 243.636 787.593 242.359 788.276 241.265C788.96 240.171 789.652 238.397 789.814 237.324C790.161 235.035 787.724 235.667 775.707 240.982C768.729 244.067 767.693 245.012 769.241 246.876C770.255 248.098 772.531 249.127 774.299 249.164C776.779 249.215 776.191 249.928 771.73 252.284C766.311 255.142 765.706 255.179 762.183 252.871C759.17 250.897 758.777 249.979 760.204 248.258C761.622 246.551 761.409 245.894 759.173 245.053C757.625 244.471 755.629 243.024 754.737 241.835C750.408 236.066 736.675 251.243 732.682 266.211C730.806 273.236 730.869 273.601 734.398 276.264L738.061 279.027L731.341 280.412C727.646 281.174 722.666 281.263 720.273 280.609C715.86 279.404 710.267 281.221 710.267 283.861C710.267 284.636 709.238 284.876 707.98 284.394C706.724 283.912 704.728 284.32 703.545 285.301C701.711 286.823 701.919 288.07 704.958 293.786C708.25 299.977 708.351 300.823 706.298 304.939C703.724 310.097 701.332 309.714 697.698 303.561C695.163 299.271 695.181 299.172 698.534 298.696C702.764 298.096 703.036 295.403 698.933 294.747C689.569 293.249 684.577 288.316 684.577 280.562C684.577 274.511 678.967 267.841 672.166 265.803C668.63 264.743 664.788 262.52 663.626 260.861C662.464 259.202 659.064 256.822 656.07 255.571C653.074 254.319 649.723 252.009 648.621 250.436C647.04 248.178 646 247.906 643.685 249.145C642.072 250.009 640.753 251.687 640.753 252.876C640.753 256.8 660.014 274.551 669.429 279.303C679.411 284.343 680.971 286.142 674.035 284.618C667.851 283.26 666.167 284.619 668.282 289.263C669.768 292.523 669.525 293.514 666.536 296.386L663.065 299.723L663.854 295.22C665.108 288.075 655.687 277.81 647.873 277.81C645.01 277.81 634.006 267.136 631.123 261.561C628.043 255.605 624.616 254.455 619.761 257.747C612.446 262.706 606.962 264.383 601.225 263.414C593.604 262.127 588.809 264.784 590.024 269.622C590.658 272.149 590.304 273.276 588.88 273.276C587.747 273.276 584.844 274.976 582.429 277.052C580.013 279.129 577.518 280.829 576.883 280.831C575.013 280.833 569.739 290.381 569.733 293.773C569.726 297.016 563.816 303.409 558.115 306.338C556.299 307.27 552.073 308.034 548.723 308.034C544.113 308.034 542.225 308.793 540.961 311.156C539.305 314.25 539.255 314.242 535.382 310.369C531.748 306.735 529.656 305.827 522.325 304.692C518.472 304.096 517.821 295.376 520.702 282.951C521.934 277.64 522.538 271.687 522.046 269.725C520.614 264.019 525.097 260.654 532.595 261.807C549.911 264.466 560.039 264.613 562.414 262.239C565.675 258.977 567.147 248.219 565.156 242.186C563.859 238.251 562.072 236.643 556.743 234.609C548.906 231.616 548.741 228.72 556.403 228.644C559.323 228.614 563.533 227.396 565.761 225.936C567.989 224.476 570.453 223.678 571.236 224.161C573.373 225.482 581.462 220.819 584.149 216.72C585.446 214.738 588.003 212.736 589.83 212.27C591.656 211.805 596.55 208.256 600.706 204.385C606.598 198.898 609.689 197.177 614.74 196.574C621 195.827 627.294 190.679 624.339 188.724C622.502 187.51 620.968 180.193 621.991 177.527C622.475 176.265 624.614 174.089 626.745 172.693L630.618 170.155L629.624 176.373C628.761 181.77 628.981 182.533 631.291 182.146C632.754 181.902 635.493 180.855 637.375 179.822C640.241 178.246 640.943 178.323 641.699 180.292C642.994 183.668 639.394 187.635 636.908 185.573C635.535 184.434 634.665 184.475 633.897 185.716C633.106 186.996 632.487 186.927 631.579 185.455C630.897 184.351 629.991 183.796 629.567 184.219C629.144 184.643 630.352 186.941 632.252 189.324C635.455 193.342 636.066 193.533 640.632 191.941C644.542 190.577 646.421 190.67 649.75 192.393C653.508 194.336 654.777 194.243 662.001 191.498C668.331 189.093 670.825 188.784 673.627 190.061C676.204 191.236 678.113 191.212 680.507 189.974C687.305 186.462 689.187 183.814 688.344 178.952C687.092 171.747 689.384 169.386 695.417 171.663C699.523 173.213 700.723 173.152 702.578 171.296C704.543 169.331 704.373 168.605 701.154 165.179C698.056 161.88 697.839 161.062 699.727 159.787C700.953 158.961 705.544 158.665 709.929 159.129C717.955 159.979 727.957 156.844 726.214 154.024C724.689 151.554 715.475 150.841 707.67 152.587C700.75 154.137 698.933 154.011 693.627 151.619C685.388 147.903 684.417 143.556 690.068 135.679C697.342 125.541 698.673 122.31 696.601 119.813C693.532 116.116 690.519 117.321 683.508 125.048C679.804 129.131 674.758 133.307 672.292 134.328C669.828 135.349 666.779 138.181 665.517 140.62C663.462 144.594 663.465 145.426 665.548 148.604C666.826 150.556 669.251 152.59 670.936 153.125C675.572 154.596 674.654 157.357 668.024 161.894C665.984 163.289 663.264 167.238 661.978 170.667C660.369 174.965 657.92 177.897 654.1 180.102C648.716 183.21 648.472 183.222 645.497 180.529C643.813 179.005 642.026 175.897 641.525 173.621C641.026 171.346 638.757 167.256 636.483 164.532L632.348 159.579L627.105 162.775C624.221 164.533 620.502 165.958 618.84 165.943C614.044 165.899 608.493 160.719 608.122 155.942C607.937 153.569 607.319 150.462 606.751 149.039C605.396 145.654 612.163 139.306 619.196 137.364C626.253 135.416 640.568 125.383 643.008 120.676C644.093 118.582 647.769 114.369 651.178 111.313C654.587 108.257 657.375 105.083 657.375 104.259C657.375 103.436 660.605 101.612 664.554 100.205C668.501 98.7979 675.131 96.2453 679.287 94.5323C684.39 92.4292 690.77 91.3173 698.933 91.1085C713.197 90.7436 722.524 92.6343 730.222 97.4501C734.083 99.8666 737.131 100.691 740.048 100.108C745.265 99.0642 773.078 107.685 774.236 110.705C775.402 113.74 767.424 116.605 760.561 115.617C757.419 115.164 750.917 113.953 746.116 112.926C739.65 111.544 736.943 111.5 735.685 112.758C734.427 114.016 735.056 114.945 738.107 116.335C740.373 117.368 743.211 120.114 744.413 122.437C747.472 128.354 757.27 133.176 762.326 131.254C767.182 129.407 767.149 128.825 762.025 126.045C757.284 123.473 759.472 122.917 765.424 125.181C770.178 126.988 775.563 124.74 774.309 121.472C773.722 119.941 775.374 118.836 780.032 117.642C790.002 115.087 790.732 114.722 789.905 112.7C786.777 105.053 786.733 105.273 791.284 105.792C793.713 106.07 795.488 107.108 795.285 108.134C795.086 109.149 796.351 110.743 798.098 111.678C800.721 113.082 802.79 112.581 810.004 108.801C820.58 103.257 828.813 101.449 831.884 103.997C833.596 105.418 836.435 105.428 844.652 104.042C850.464 103.062 855.88 102.668 856.686 103.167C857.493 103.665 858.599 103.352 859.144 102.471C860.334 100.544 857.04 96.1722 855.238 97.2863C853.061 98.6315 845.914 96.2218 847.469 94.6671C849.035 93.1016 891.091 102.901 893.607 105.418C895.304 107.115 900.675 104.851 900.675 102.44C900.675 101.627 897.676 99.5051 894.01 97.7241C882.645 92.2021 881.914 83.3582 892.603 80.6755C898.807 79.1184 901.49 80.9145 910.071 92.3696C921.21 107.242 920.926 106.485 917.287 111.596C914.591 115.381 914.429 116.267 916.299 116.985C919.842 118.344 927.424 113.587 928.492 109.335C929.742 104.353 927.408 100.107 921.832 97.2235C917.448 94.9569 914.276 90.8035 914.276 87.3321C914.276 86.1487 915.92 85.8536 919.187 86.4504C924.086 87.3451 928.138 85.5685 939.232 77.6621C941.769 75.8539 946.058 74.6624 950.382 74.5644C959.155 74.3655 961.994 72.8927 959.469 69.8511C958.479 68.6584 957.984 67.3677 958.369 66.9832C960.299 65.0532 985.177 61.5755 990.907 62.4347C996.42 63.2615 998.127 62.8142 1002.66 59.3546C1005.58 57.1285 1007.97 54.7079 1007.97 53.9754C1007.97 52.1282 994.763 52.2933 993.613 54.1548C992.03 56.7162 989.978 55.8249 990.555 52.8267C991.042 50.2952 989.764 49.8832 978.757 49.0262C948.7 46.686 946.256 46.1368 949.863 42.531C953.032 39.3608 960.808 39.4222 967.317 42.669C969.983 43.9993 974.4 45.0877 977.133 45.0877C979.865 45.0877 982.521 45.7677 983.034 46.5988C983.548 47.43 986.196 48.1101 988.916 48.1101C996.453 48.1101 1011.03 51.3656 1010.11 52.8451C1009.67 53.5655 1011.08 54.1548 1013.24 54.1548C1015.41 54.1548 1019.36 55.3259 1022.03 56.7572C1025.6 58.6821 1030.6 59.3745 1041.22 59.4172C1052.63 59.4628 1056.42 60.0491 1059.73 62.2776C1062.01 63.8193 1063.88 65.5124 1063.87 66.0402C1063.85 66.568 1060.36 68.9185 1056.11 71.2636C1045.85 76.9271 1048.01 79.3953 1060.44 76.1779C1068.47 74.0938 1070.33 74.0805 1076.98 76.058C1082.44 77.6804 1085.86 77.8887 1089.56 76.8261C1093.26 75.7652 1097.06 75.9931 1103.5 77.6622C1110.22 79.4039 1113.7 79.5811 1117.96 78.3979C1127.69 75.6979 1139.65 76.4605 1146.58 80.2228C1150.03 82.0929 1156.4 85.553 1160.72 87.9122C1168.39 92.0939 1168.72 92.1401 1174.03 89.7563C1178.48 87.761 1180.96 87.5941 1187.53 88.849C1194.05 90.0964 1196.43 89.9444 1200.11 88.0442C1203.7 86.1852 1204.28 85.2714 1202.91 83.6182C1200.26 80.4211 1209.66 79.2326 1221.23 81.3043C1226.53 82.2532 1233.25 83.2004 1236.16 83.4092C1239.07 83.618 1244.75 85.2758 1248.79 87.0932C1254.95 89.8647 1259.59 90.4926 1277.61 90.9873C1294.7 91.4569 1300.15 92.141 1304.27 94.3389C1308.45 96.5697 1313.23 97.1372 1329.09 97.2918C1343.69 97.4343 1350.24 98.1266 1354.57 99.988C1361.55 102.993 1364.36 101.891 1360.56 97.6308C1357.82 94.5665 1357.83 94.5623 1368.39 95.611C1386.07 97.3682 1407.3 101.239 1414.47 104.019C1418.22 105.466 1425.35 107.148 1430.31 107.757C1435.29 108.365 1442.55 110.478 1446.44 112.452C1452.36 115.448 1454.28 115.779 1458.07 114.456C1463.26 112.646 1466.63 113.949 1474.56 120.836L1479.48 125.115L1475.77 126.047C1472.05 126.982 1462.16 124.533 1458.74 121.831C1457.75 121.037 1456.34 120.749 1455.62 121.191C1454.91 121.633 1451.37 120.979 1447.77 119.737C1439.32 116.829 1435.57 117.921 1439.42 122.169C1442.05 125.071 1442 125.132 1436.98 124.783C1427.61 124.129 1430.19 126.896 1443.94 132.262C1451.43 135.18 1457.86 137.877 1458.26 138.256C1459.68 139.629 1455 141.331 1451.59 140.681C1447.86 139.966 1438.66 143.976 1438.66 146.317C1438.66 147.094 1437.2 149.086 1435.42 150.742C1432.45 153.509 1431.84 153.571 1427.87 151.518C1424.15 149.595 1422.96 149.575 1419.39 151.375C1417.1 152.527 1413.19 153.959 1410.71 154.558C1408.22 155.157 1405.34 156.35 1404.3 157.209C1401.26 159.732 1406.62 167.079 1414.18 170.736C1418.29 172.727 1421.27 175.394 1422.15 177.882C1422.93 180.065 1424.58 183.649 1425.81 185.847C1427.83 189.431 1427.81 189.94 1425.64 190.772C1424.06 191.381 1423.6 192.601 1424.29 194.33C1424.86 195.777 1425.52 198.662 1425.73 200.74C1425.95 202.818 1426.62 205.646 1427.22 207.026C1427.99 208.821 1427.35 209.834 1424.97 210.59C1422.32 211.432 1420.53 210.417 1416.18 205.597C1413.16 202.27 1408.14 197.691 1405.02 195.419C1401.9 193.148 1396.29 187.243 1392.57 182.295C1386.02 173.569 1385.88 173.171 1388.05 168.961C1389.29 166.574 1390.32 163.058 1390.36 161.146C1390.38 159.234 1391.34 155.982 1392.48 153.918C1394.67 149.975 1393.82 146.827 1389.15 141.474C1386.09 137.96 1380.64 140.594 1382.01 144.925C1383.28 148.915 1379.4 150.208 1374.92 147.284C1372.99 146.016 1368.53 144.52 1365.02 143.959C1358.98 142.996 1358.53 143.181 1356.97 147.283C1356.06 149.672 1355.68 153.448 1356.13 155.675C1356.82 159.145 1356.33 159.855 1352.76 160.638C1350.35 161.172 1346.17 160.541 1342.8 159.124C1339.07 157.568 1335.55 157.099 1333.03 157.817C1330.87 158.432 1323.54 158.991 1316.75 159.059C1306 159.167 1303.92 159.636 1300.65 162.707C1298.59 164.645 1296.11 169.405 1295.15 173.285C1294.18 177.164 1292.41 181.852 1291.21 183.702C1289.13 186.9 1289.34 187.223 1295.26 190.244C1301.69 193.524 1308.7 194.387 1314.01 192.556C1318.1 191.143 1330.6 200.89 1334.5 208.541C1336.1 211.675 1338.75 214.954 1340.38 215.827C1346.56 219.13 1347.81 240.805 1342.64 254.974C1339.07 264.786 1335.07 267.993 1329.19 265.761C1326.96 264.907 1324.9 264.21 1324.61 264.21C1324.33 264.21 1322.66 266.999 1320.88 270.409C1318.55 274.886 1318.09 277.142 1319.24 278.529C1321.44 281.183 1319.82 284.635 1315.41 286.64C1313.38 287.566 1311.72 288.982 1311.72 289.787C1311.72 290.592 1316.44 294.503 1322.22 298.48C1329.58 303.541 1333.51 307.426 1335.3 311.421C1336.72 314.562 1337.6 317.381 1337.27 317.687C1336.92 317.991 1333.84 319.658 1330.4 321.391L1324.15 324.542L1320.39 315.911C1316.18 306.249 1312.57 302.365 1306.22 300.653C1303 299.79 1301.89 298.568 1301.89 295.922C1301.89 293.496 1300.33 291.435 1296.99 289.484C1292.14 286.642 1292.05 286.645 1286.88 289.836C1281.71 293.029 1281.66 293.032 1280.07 290.067C1279.19 288.422 1278.48 286.036 1278.48 284.763C1278.48 283.491 1277.2 281.77 1275.65 280.939C1273.34 279.703 1271.89 280.451 1267.64 285.042C1264.78 288.129 1261.13 291.407 1259.51 292.324C1257.01 293.749 1256.88 294.351 1258.6 296.432C1259.72 297.774 1263.56 300.509 1267.14 302.512C1272.85 305.698 1273.93 305.879 1275.85 303.956C1277.68 302.131 1279.17 302.063 1284.68 303.56L1291.32 305.36L1287.62 307.831C1280.77 312.413 1278.6 314.817 1277.63 318.952C1276.83 322.345 1277.3 323.366 1280.34 324.755C1282.38 325.681 1285.47 329.376 1287.21 332.968C1288.95 336.558 1292.45 340.711 1294.96 342.197C1300.5 345.465 1302.1 348.936 1298.9 350.724C1295.93 352.389 1297.35 354.881 1301.28 354.881C1305.98 354.881 1306.01 357.688 1301.46 373.891C1295.95 393.516 1290.98 400.064 1277.96 404.823C1272.85 406.698 1266.6 408.345 1264.12 408.483C1258.32 408.804 1253.82 411.258 1249.9 416.243L1246.8 420.2L1245.34 416.382C1243.44 411.401 1239.11 410.149 1232.87 412.786C1227.15 415.203 1223.39 419.057 1221.87 424.04C1220.51 428.499 1225.33 436.344 1233.3 442.654C1239.83 447.836 1247.18 460.839 1248.89 470.299C1250.4 478.528 1247.74 483.93 1240.62 487.143C1237.37 488.607 1234.33 491.007 1233.86 492.477C1232.75 496.008 1226.03 500.404 1224.8 498.413C1224.29 497.584 1224.28 495.646 1224.76 494.108C1225.25 492.572 1225.22 490.21 1224.71 488.861C1223.96 486.92 1223.14 486.746 1220.74 488.023C1218.26 489.353 1217.3 489.016 1215.29 486.106C1210.37 478.955 1196.08 467.464 1192.11 467.464C1190.71 467.464 1190.18 469.143 1190.42 472.754C1190.61 475.662 1190.01 481.334 1189.1 485.357C1187.61 491.912 1187.76 493.112 1190.57 496.917C1192.3 499.252 1194.14 502.872 1194.67 504.961C1195.19 507.083 1199.57 511.928 1204.56 515.937C1212.9 522.617 1213.77 523.936 1217.28 535.035C1219.35 541.592 1221.05 547.602 1221.05 548.39C1221.05 550.953 1217.89 549.915 1211.3 545.184C1204.49 540.292 1200.14 532.555 1196.51 518.877C1194.94 512.939 1193.21 510.393 1188.31 506.788C1182.3 502.366 1182.12 501.98 1182.6 494.665C1182.87 490.509 1183.56 484.618 1184.11 481.576C1184.91 477.291 1184.25 474.22 1181.25 467.975C1179.11 463.539 1176.58 456.724 1175.62 452.833C1173.49 444.139 1170.49 442.683 1165.18 447.771C1162.99 449.875 1160.76 451.597 1160.25 451.597C1157.84 451.597 1154.53 446.476 1155.32 443.979C1156.77 439.443 1147.92 423.631 1142.73 421.485C1139.91 420.311 1137.31 417.462 1135.57 413.616C1132.56 406.933 1129.18 404.377 1125.81 406.226C1124.58 406.896 1119.68 408.245 1114.9 409.224C1106.15 411.016 1103.02 413.665 1104.22 418.242C1104.66 419.927 1103.13 421.554 1099.46 423.305C1096.48 424.722 1093.28 427.576 1092.33 429.643C1091.4 431.712 1089.33 433.818 1087.73 434.324C1086.13 434.829 1083.67 437.142 1082.26 439.463C1080.86 441.784 1076.65 446.026 1072.92 448.89C1067.82 452.809 1066.23 455 1066.49 457.758C1067.97 473.872 1065.69 487.355 1060.14 495.362C1054.73 503.172 1054.36 503.39 1049.78 501.303C1047.26 500.155 1045.7 497.912 1045.06 494.487C1044.53 491.681 1041.49 483.771 1038.3 476.913C1018.97 435.411 1016.12 427.492 1017.76 419.997C1018.88 414.933 1016.21 407.292 1013.63 408.157C1012.59 408.505 1011.73 409.75 1011.71 410.924C1011.58 417.822 1003.83 418.881 997.776 412.828L993.765 408.818L997.216 407.541C1001.1 406.104 1000.74 402.231 996.792 402.941C995.389 403.193 992.177 401.664 989.655 399.542C987.134 397.419 984.488 395.683 983.776 395.683C983.065 395.683 982.049 394.315 981.518 392.644C980.126 388.255 972.108 384.437 968.091 386.249C964.476 387.879 931.674 387.539 926.183 385.814C924.205 385.192 920.547 382.349 918.053 379.496C913.548 374.339 913.479 374.319 906.72 376.14C900.316 377.867 899.385 377.703 890.759 373.349C883.305 369.586 881.072 367.557 878.771 362.454C875.835 355.944 869.315 351.229 865.351 352.75C864.102 353.23 862.643 355.61 862.11 358.041C861.343 361.53 862.125 363.799 865.831 368.837C868.41 372.346 871.221 377.816 872.077 380.993C873.914 387.819 877.544 389.849 880.553 385.735C882.368 383.252 882.858 383.165 884.088 385.111C884.872 386.354 885.296 388.052 885.028 388.882C884.188 391.495 892.909 395.793 896.977 394.772C899.034 394.256 903.427 390.754 906.74 386.99C911.962 381.058 913.784 380.657 912.892 385.639C912.29 388.991 914.929 392.92 919.294 395.177C926.037 398.663 935.433 406.429 935.433 408.517C935.433 409.48 933.666 411.916 931.507 413.931C929.349 415.946 926.242 420.209 924.603 423.406C920.621 431.171 909.082 442.529 905.174 442.529C900.657 442.529 893.939 446.343 891.265 450.425C889.997 452.358 886.666 455.086 883.861 456.487C869.498 463.658 852.205 470.926 847.338 471.84C842.134 472.816 841.713 472.58 838.956 467.143C837.36 463.995 835.549 457.678 834.932 453.108C834.128 447.162 832.573 443.383 829.463 439.832C827.072 437.101 825.116 434.212 825.116 433.411C825.116 432.61 822.389 429.144 819.056 425.71C814.905 421.433 812.222 416.791 810.541 410.974C809.191 406.304 806.444 400.442 804.436 397.95C790.567 380.727 786.461 374.654 784.393 368.312C781.652 359.906 779.335 358.55 778.267 364.724L777.507 369.106L772.395 362.651C764.517 352.705 763.524 357.226 770.92 369.368C774.419 375.115 779.998 385.256 783.317 391.904C786.635 398.554 790.938 406.098 792.877 408.671C794.875 411.318 796.404 415.457 796.404 418.215C796.404 423.908 798.103 427.463 804.777 435.729C807.46 439.054 810.112 443.907 810.669 446.516C811.383 449.861 814.3 453.358 820.571 458.387C830.101 466.031 836.277 474.01 837.81 480.66C838.385 483.157 840.566 485.721 843.332 487.152C847.545 489.331 849.029 489.271 862.348 486.385C870.292 484.664 878.709 482.265 881.05 481.054L885.307 478.853L886.318 484.835C887.237 490.27 886.248 492.888 875.49 513.521C863.923 535.706 863.382 536.44 851.88 545.52C845.406 550.63 838.631 556.889 836.826 559.425C835.019 561.962 829.239 568.813 823.982 574.651C808.641 591.685 806.555 606.666 816.73 626.747C819.314 631.847 820.324 635.708 819.712 638.15C819.202 640.179 819.529 645.306 820.438 649.542C821.868 656.214 821.706 657.997 819.23 662.849C815.658 669.849 812.815 672.366 802.827 677.372C798.462 679.558 794.893 681.993 794.893 682.783C794.893 683.572 791.832 687.664 788.092 691.875C784.352 696.086 781.292 700.216 781.292 701.053C781.292 701.89 782.694 705.321 784.407 708.681C789.544 718.751 786.092 726.048 773.778 731.148C768.587 733.299 766.883 737.689 768.168 745.601C768.839 749.748 768.412 751.127 766.063 752.385C764.441 753.252 761.508 756.485 759.546 759.566C753.352 769.294 735.546 786.508 727.455 790.588C720.705 793.993 718.979 794.294 714.019 792.925C709.646 791.717 706.117 791.908 698.786 793.75C686.912 796.733 688.171 796.857 683.572 792.257ZM882.616 310.262C886.518 308.244 887.074 307.133 887.074 301.379C887.074 297.254 886.193 294.071 884.708 292.839C883.407 291.759 881.299 288.857 880.022 286.389C877.912 282.307 877.921 281.987 880.121 282.832C883.028 283.946 887.074 282.605 887.074 280.526C887.074 279.705 885.669 277.057 883.951 274.644C881.362 271.009 880.325 270.526 877.905 271.82C875.949 272.867 874.985 272.876 874.985 271.849C874.985 271.005 872.288 268.939 868.991 267.258C861.695 263.536 859.099 259.412 861.375 255.16C863.098 251.942 869.249 249.688 871.876 251.311C875.419 253.5 876.463 250.274 873.541 246.169C866.452 236.214 856.584 236.869 844.345 248.107C836.447 255.358 835.761 257.285 840.228 259.675C841.89 260.566 843.25 262.305 843.25 263.541C843.25 264.777 845.938 268.704 849.224 272.268C856.79 280.478 858.178 284.228 857.241 293.943L856.488 301.765L866.87 307.091C872.58 310.021 877.456 312.452 877.704 312.493C877.954 312.534 880.164 311.53 882.616 310.262ZM840.984 732.383C836.717 729.962 836.11 728.685 834.996 719.765C834.105 712.637 834.478 711.088 838.741 704.158C843.075 697.114 843.387 695.758 842.431 688.108C841.051 677.062 843.4 671.257 849.82 669.848C855.868 668.521 868.956 656.967 872.092 650.185L874.489 645.003L876.155 648.658C880.345 657.857 879.919 661.897 872.627 682.071C868.726 692.865 864.541 705.778 863.327 710.764C859.441 726.725 857.234 730.572 850.868 732.48C844.092 734.51 844.747 734.517 840.984 732.383ZM1585.39 706.109C1580.57 700.834 1577.69 696.307 1577.69 694.019C1577.69 688.949 1578.49 689.391 1582.86 696.833C1584.94 700.391 1588.72 705.279 1591.24 707.693C1593.76 710.109 1595.82 712.639 1595.82 713.314C1595.82 716.221 1592.61 713.997 1585.39 706.109ZM911.254 703.964C911.254 703.133 911.934 702.452 912.765 702.452C913.596 702.452 914.276 703.133 914.276 703.964C914.276 704.795 913.596 705.475 912.765 705.475C911.934 705.475 911.254 704.795 911.254 703.964ZM1707.06 701.207C1706.52 700.345 1706.83 699.185 1707.72 698.628C1709.96 697.24 1710.77 698.344 1709.26 700.769C1708.46 702.069 1707.68 702.223 1707.06 701.207ZM921.832 698.764C921.832 698.398 922.512 697.677 923.343 697.164C924.175 696.65 924.854 696.949 924.854 697.83C924.854 698.71 924.175 699.43 923.343 699.43C922.512 699.43 921.832 699.131 921.832 698.764ZM1667.75 683.426C1666.28 679.592 1668.15 678.247 1672.32 680.144C1675.91 681.782 1675.99 682.033 1673.48 683.865C1669.98 686.428 1668.88 686.344 1667.75 683.426ZM1677.33 676.706C1674.38 674.882 1676.43 673.423 1681.12 674.004C1684.81 674.459 1684.88 674.626 1682.26 676.246C1680.58 677.282 1678.56 677.47 1677.33 676.706ZM1606.77 671.161C1603.67 664.478 1604.76 661.911 1607.97 668.343C1611.31 675.037 1611.36 675.257 1609.8 675.24C1609.18 675.234 1607.82 673.397 1606.77 671.161ZM1612.57 670.089C1612.49 668.496 1612.85 667.603 1613.36 668.105C1613.86 668.607 1613.91 669.911 1613.47 671.001C1612.99 672.206 1612.63 671.849 1612.57 670.089ZM1735.59 655.579C1734.21 653.341 1735.51 652.199 1738.74 652.828C1741.1 653.289 1741.13 653.533 1738.99 655.301C1737.29 656.71 1736.33 656.788 1735.59 655.579ZM842.495 648.051C841.981 647.219 842.281 646.539 843.162 646.539C844.042 646.539 844.761 647.219 844.761 648.051C844.761 648.881 844.462 649.562 844.096 649.562C843.729 649.562 843.008 648.881 842.495 648.051ZM1505.91 633.852C1496.34 630.837 1492 628.035 1488.24 622.441C1483.94 616.051 1476.07 611.214 1472.05 612.489C1470.43 613.005 1467.69 615.808 1465.97 618.719C1463.06 623.675 1462.49 623.947 1457.18 623.003C1454.06 622.448 1449.7 620.31 1447.48 618.252C1444.68 615.637 1442.53 614.81 1440.35 615.505C1438.62 616.051 1436.12 615.892 1434.79 615.148C1432.71 613.985 1432.91 613.44 1436.24 611.264C1440.09 608.742 1440.09 608.708 1437.52 603.294C1435.43 598.944 1432.58 596.677 1423.23 591.974C1416.79 588.738 1409.51 586.092 1407.05 586.092C1401.44 586.092 1399.12 580.911 1403.35 577.816C1405.86 575.975 1405.5 575.517 1398.93 572.326C1391.95 568.936 1391.85 568.793 1395.19 566.943C1397.07 565.897 1400.1 565.018 1401.92 564.989C1405.47 564.931 1409.94 570.039 1409.94 574.135C1409.94 575.5 1411.42 578.485 1413.21 580.768C1416.43 584.86 1416.51 584.876 1418.87 581.922C1420.19 580.274 1424.42 577.129 1428.24 574.932L1435.21 570.94L1444.86 575.297C1450.17 577.693 1457.72 580.804 1461.62 582.211C1465.53 583.617 1473.33 587.8 1478.97 591.504C1489.75 598.577 1494.42 604.541 1491.74 607.774C1489.55 610.41 1498.14 622.416 1507.03 629.152C1516.81 636.555 1516.64 637.24 1505.91 633.852ZM1571.67 633.73C1570.48 632.295 1570.37 631.427 1571.37 631.427C1573.2 631.427 1575.32 634.295 1574.27 635.343C1573.89 635.723 1572.72 634.997 1571.67 633.73ZM1317.76 627.578C1315.57 626.368 1314.94 625.476 1316.25 625.46C1318.95 625.423 1323.27 627.938 1322.25 628.955C1321.85 629.347 1319.84 628.729 1317.76 627.578ZM1343.31 625.582C1347.59 619.564 1354.3 616.988 1360.5 618.979C1365.02 620.43 1365.08 620.551 1361.5 620.695C1359.38 620.779 1354.43 622.889 1350.5 625.383C1341.52 631.073 1339.35 631.133 1343.31 625.582ZM1562.58 627.649C1560.53 625.188 1561.01 624.881 1564.71 626.3C1566.03 626.804 1567.11 627.824 1567.11 628.566C1567.11 630.657 1564.66 630.162 1562.58 627.649ZM1569.65 626.316C1569.09 624.835 1568.67 622.49 1568.72 621.103C1568.78 619.433 1569.31 619.814 1570.27 622.23C1571.07 624.238 1571.49 626.583 1571.2 627.443C1570.92 628.304 1570.21 627.796 1569.65 626.316ZM1686.5 627.738C1686.5 627.372 1687.17 626.652 1688 626.138C1688.84 625.625 1689.51 625.924 1689.51 626.804C1689.51 627.685 1688.84 628.405 1688 628.405C1687.17 628.405 1686.5 628.104 1686.5 627.738ZM1300 621.391C1298.95 620.951 1298.49 619.969 1298.95 619.209C1300.1 617.341 1309.78 617.445 1310.96 619.337C1311.47 620.169 1311 620.859 1309.91 620.87C1308.83 620.882 1306.57 621.184 1304.91 621.541C1303.26 621.899 1301.03 621.832 1300 621.391ZM1322.43 620.257C1319.69 616.948 1322.85 615.941 1329.96 617.858C1337.14 619.789 1337.12 620.091 1329.68 621.433C1325.82 622.13 1323.69 621.786 1322.43 620.257ZM1549.32 619.337C1548.27 617.664 1548.09 616.315 1548.91 616.315C1549.72 616.315 1551.1 617.675 1551.99 619.337C1552.89 621.001 1553.07 622.361 1552.42 622.361C1551.75 622.361 1550.36 621.001 1549.32 619.337ZM1558.79 617.817C1554.75 613.353 1556.91 612.651 1561.07 617.076C1563.01 619.152 1563.92 620.848 1563.07 620.848C1562.22 620.848 1560.3 619.484 1558.79 617.817ZM1275.44 617.555C1270.04 616.806 1262.43 615.144 1258.52 613.862C1254.61 612.58 1250.01 611.978 1248.29 612.524C1244.82 613.622 1230.11 609.296 1230.11 607.179C1230.11 602.349 1243.66 601.982 1250.86 606.618C1253.55 608.349 1255.66 608.464 1261.34 607.191C1267.64 605.78 1268.96 605.954 1272.65 608.688C1274.96 610.39 1277.52 611.782 1278.36 611.782C1281.34 611.782 1290.41 616.837 1289.65 618.076C1289.22 618.769 1288.06 619.243 1287.07 619.127C1286.08 619.011 1280.86 618.305 1275.44 617.555ZM1546.71 610.271C1545.2 608.609 1544.65 607.248 1545.48 607.248C1546.31 607.248 1548.22 608.609 1549.73 610.271C1551.23 611.933 1551.78 613.293 1550.95 613.293C1550.13 613.293 1548.21 611.933 1546.71 610.271ZM1537.18 608.357C1536.32 607.323 1535.18 604.44 1534.64 601.95C1533.77 597.941 1533.88 597.77 1535.49 600.448C1536.49 602.11 1538.28 604.594 1539.45 605.965C1540.71 607.419 1541.02 608.83 1540.17 609.348C1539.38 609.837 1538.03 609.39 1537.18 608.357ZM1505.18 603.552L1501.42 601.473L1507.24 600.381C1510.44 599.781 1515.36 597.27 1518.16 594.801C1521.24 592.106 1523.27 591.129 1523.26 592.358C1523.22 595.431 1521.36 597.798 1515.72 601.965C1509.82 606.32 1510.09 606.277 1505.18 603.552ZM1221.69 597.668C1216.14 594.505 1206.13 582.267 1202.87 574.661C1201.12 570.559 1197.09 563.802 1193.91 559.646C1190.75 555.49 1187.11 550.05 1185.84 547.557C1184.56 545.063 1180.68 540.302 1177.22 536.978C1169.92 529.969 1165.43 522.603 1168.49 522.655C1172.46 522.723 1182.67 528.399 1187.04 532.969C1199.12 545.578 1201.59 547.822 1207.3 551.334C1212.8 554.725 1215.41 558.252 1215.66 562.668C1215.72 563.5 1217.28 565.88 1219.15 567.957C1221.01 570.035 1224.52 573.943 1226.96 576.641C1229.39 579.34 1231.83 583.551 1232.36 585.998C1234.12 594.009 1227.67 601.07 1221.69 597.668ZM917.298 596.67C917.298 595.839 917.978 595.158 918.81 595.158C919.641 595.158 920.321 595.839 920.321 596.67C920.321 597.501 919.641 598.181 918.81 598.181C917.978 598.181 917.298 597.501 917.298 596.67ZM1317 596.657C1316.48 595.817 1316.48 593.809 1316.98 592.191C1317.5 590.573 1316.87 587.659 1315.59 585.707C1313.48 582.495 1313.51 581.822 1315.81 578.542C1317.21 576.551 1318.84 571.204 1319.46 566.659C1320.23 561.052 1321.72 557.256 1324.14 554.844C1327.43 551.545 1328.26 551.399 1335.68 552.806C1342.04 554.012 1344.55 553.864 1348.02 552.071C1353.81 549.071 1354.23 549.205 1352.32 553.434C1349.86 558.81 1344.97 560.529 1339.8 557.825C1330.59 552.996 1318.37 560.172 1324.82 566.623C1327.19 568.994 1328.5 569.21 1332.89 567.95C1340.42 565.791 1343.38 566.188 1338.71 568.728C1333.42 571.603 1332.42 574.794 1335.14 580.068C1336.39 582.467 1337.4 586.188 1337.4 588.336C1337.4 591.775 1337.04 592.049 1334.38 590.624C1332.71 589.733 1330.31 586.518 1329.04 583.479C1326.75 577.995 1326.71 577.976 1323.78 580.909C1321.21 583.48 1321.03 584.623 1322.44 589.721C1323.72 594.327 1323.63 595.849 1322.04 596.856C1319.37 598.548 1318.13 598.499 1316.99 596.657H1317ZM1524.33 588.596C1522.91 586.422 1519.65 583.558 1517.08 582.234C1514.52 580.909 1512.76 579.485 1513.17 579.069C1515.53 576.718 1528.64 587.392 1527.52 590.744C1527.18 591.774 1525.82 590.852 1524.33 588.596ZM1287.02 583.566C1284.75 582.372 1281.67 581.777 1280.19 582.246C1276.44 583.438 1261.5 580.399 1260.03 578.14C1258.85 576.342 1255.38 565.271 1253.54 557.379C1253.03 555.21 1253.54 552.394 1254.72 550.765C1256.46 548.402 1257.35 548.222 1260.09 549.689C1262.98 551.236 1263.59 550.971 1265.17 547.492C1266.17 545.317 1269.47 542.266 1272.51 540.714C1275.72 539.071 1278.82 535.994 1279.92 533.346C1281.19 530.291 1283.49 528.239 1286.96 527.098C1289.79 526.164 1293.88 523.074 1296.04 520.232C1298.22 517.39 1300.79 515.065 1301.78 515.065C1302.76 515.065 1305.74 517.311 1308.4 520.054L1313.24 525.043L1309.36 530.256C1304.96 536.176 1305.19 541.268 1310.18 548.275L1313.2 552.516L1309.44 554.983C1307.37 556.34 1305.68 558.283 1305.68 559.303C1305.69 562.764 1296 582.715 1293.59 584.23C1291.88 585.286 1289.93 585.087 1287.02 583.566ZM1374.81 583.539C1371.69 582.722 1371.25 580.048 1374.25 580.048C1375.38 580.048 1378.58 580.499 1381.35 581.053C1385.61 581.904 1385.93 582.235 1383.43 583.213C1380.14 584.498 1378.69 584.553 1374.81 583.539ZM1615.46 564.269C1615.46 563.903 1616.15 563.182 1616.98 562.668C1617.81 562.155 1618.49 562.454 1618.49 563.335C1618.49 564.215 1617.81 564.935 1616.98 564.935C1616.15 564.935 1615.46 564.635 1615.46 564.269ZM1369.51 560.17C1368.31 558.963 1368.23 557.562 1369.28 555.605C1370.11 554.053 1370.39 552.131 1369.9 551.334C1368.54 549.13 1371.94 543.779 1374.72 543.779C1376.93 543.779 1376.93 544.038 1374.62 546.59C1372.62 548.796 1372.4 550.256 1373.59 553.376C1375.99 559.685 1373.38 564.035 1369.51 560.17ZM610.528 555.202C610.528 554.835 611.209 554.115 612.039 553.601C612.871 553.087 613.55 553.388 613.55 554.268C613.55 555.148 612.871 555.868 612.039 555.868C611.209 555.868 610.528 555.568 610.528 555.202ZM1658.54 551.334C1658.01 550.504 1658.32 549.823 1659.2 549.823C1660.07 549.823 1660.8 550.504 1660.8 551.334C1660.8 552.166 1660.5 552.845 1660.14 552.845C1659.77 552.845 1659.05 552.166 1658.54 551.334ZM619.596 537.068C619.596 536.7 620.276 535.98 621.107 535.467C621.938 534.953 622.618 535.253 622.618 536.134C622.618 537.014 621.938 537.733 621.107 537.733C620.276 537.733 619.596 537.434 619.596 537.068ZM1346.49 514.346C1343.6 507.623 1343.22 507.321 1338.79 508.294C1334.36 509.265 1334.21 509.146 1335.86 506.051C1337.24 503.487 1338.51 502.979 1341.76 503.693C1344.89 504.382 1346.9 503.686 1349.97 500.84C1352.2 498.77 1354.04 495.854 1354.07 494.359C1354.11 490.545 1359.72 503.336 1361 510.175C1361.98 515.369 1361.85 515.65 1359.49 513.694C1355.99 510.791 1352.61 513.803 1355.49 517.269C1356.64 518.652 1356.78 519.6 1355.85 519.6C1354.99 519.6 1353.21 520.009 1351.89 520.512C1350.14 521.185 1348.73 519.569 1346.49 514.346ZM1070.95 517.017C1069.26 514.272 1068.31 501.958 1069.53 498.69C1070.83 495.224 1070.92 495.266 1074.77 500.956C1079.39 507.776 1080.86 512.149 1079.33 514.485C1077.88 516.72 1071.89 518.53 1070.95 517.017ZM1408.43 509.2C1408.43 508.368 1409.11 507.268 1409.94 506.755C1410.78 506.241 1411.45 506.5 1411.45 507.332C1411.45 508.162 1410.78 509.263 1409.94 509.777C1409.11 510.29 1408.43 510.031 1408.43 509.2ZM1645.69 509.021C1645.69 508.191 1645.99 507.51 1646.36 507.51C1646.72 507.51 1647.44 508.191 1647.96 509.021C1648.47 509.853 1648.16 510.532 1647.29 510.532C1646.41 510.532 1645.69 509.853 1645.69 509.021ZM1302.65 500.291C1302.65 499.645 1305.68 495.735 1309.38 491.602C1314.81 485.545 1316.13 484.689 1316.18 487.191C1316.22 488.9 1313.94 492.81 1311.13 495.881C1306.37 501.089 1302.65 503.02 1302.65 500.291ZM1335.37 496.258C1334.82 494.824 1334.94 492.645 1335.63 491.418C1336.69 489.515 1337.14 489.496 1338.62 491.294C1339.97 492.903 1339.9 494.048 1338.38 496.134C1336.5 498.695 1336.32 498.703 1335.37 496.258ZM178.133 490.37C179.058 489.255 179.369 487.895 178.821 487.348C178.275 486.801 179.237 486.353 180.961 486.353C183.348 486.353 183.905 487.071 183.302 489.376C182.844 491.131 181.241 492.398 179.48 492.398C177.117 492.398 176.82 491.952 178.133 490.37ZM1345.52 489.971C1344.96 488.397 1344.22 486.599 1343.88 485.976C1343.55 485.353 1343.91 484.842 1344.7 484.842C1346.2 484.842 1348.32 491.048 1347.21 492.171C1346.84 492.533 1346.08 491.543 1345.52 489.971ZM1330.21 486.027C1328.08 483.469 1330.15 479.829 1333.33 480.538C1335.31 480.982 1335.39 481.61 1333.79 484.567C1332.25 487.419 1331.59 487.69 1330.21 486.027ZM1348.07 480.834C1346.34 478.629 1345.18 476.573 1345.48 476.264C1346.71 475.036 1350.96 477.742 1353.22 481.192C1356.69 486.495 1352.29 486.188 1348.07 480.834ZM1323.23 474.984C1321.89 473.638 1320.79 471.754 1320.79 470.798C1320.79 469.841 1322.27 470.551 1324.1 472.375C1325.92 474.199 1327.02 476.083 1326.55 476.561C1326.07 477.039 1324.58 476.33 1323.23 474.984ZM137.025 474.767C136.471 474.213 136.018 473.058 136.018 472.198C136.018 471.251 136.722 471.341 137.806 472.426C138.79 473.409 139.243 474.565 138.814 474.994C138.384 475.424 137.579 475.321 137.025 474.767ZM128.462 472.752C128.462 471.922 128.762 471.241 129.128 471.241C129.495 471.241 130.216 471.922 130.729 472.752C131.243 473.584 130.942 474.265 130.062 474.265C129.182 474.265 128.462 473.584 128.462 472.752ZM199.488 469.73C199.488 468.9 199.787 468.219 200.154 468.219C200.52 468.219 201.241 468.9 201.754 469.73C202.268 470.562 201.969 471.241 201.088 471.241C200.208 471.241 199.488 470.562 199.488 469.73ZM1338.43 469.5C1336.91 468.646 1334.04 468.356 1332.05 468.857C1329.12 469.592 1327.11 468.415 1321.63 462.778C1313.89 454.817 1312.38 451.46 1314.66 447.218C1315.53 445.579 1316.25 442.194 1316.25 439.695C1316.25 431.492 1321.75 431.824 1325.77 440.27C1328.01 444.949 1328.02 445.953 1325.92 450.973C1323.67 456.376 1323.71 456.616 1327.74 460.82C1330.64 463.856 1332.83 464.887 1335.12 464.31C1337.06 463.823 1339.16 464.427 1340.3 465.805C1343.03 469.084 1341.84 471.423 1338.43 469.5ZM190.42 459.997C190.42 459.631 191.101 458.911 191.931 458.396C192.763 457.883 193.443 458.183 193.443 459.063C193.443 459.943 192.763 460.663 191.931 460.663C191.101 460.663 190.42 460.364 190.42 459.997ZM427.676 454.619C427.676 453.787 428.356 453.108 429.187 453.108C430.018 453.108 430.698 453.787 430.698 454.619C430.698 455.45 430.018 456.13 429.187 456.13C428.356 456.13 427.676 455.45 427.676 454.619ZM185.887 448.753C185.887 447.921 186.567 446.821 187.398 446.307C188.229 445.793 188.909 446.053 188.909 446.885C188.909 447.715 188.229 448.815 187.398 449.33C186.567 449.843 185.887 449.583 185.887 448.753ZM173.052 442.547C172.524 441.69 173.13 441.436 174.475 441.952C177.093 442.958 177.571 444.04 175.397 444.04C174.616 444.04 173.56 443.368 173.052 442.547ZM413.319 442.529C412.806 441.697 413.105 441.018 413.986 441.018C414.866 441.018 415.586 441.697 415.586 442.529C415.586 443.361 415.287 444.04 414.92 444.04C414.554 444.04 413.833 443.361 413.319 442.529ZM179.086 439.507C178.573 438.675 178.872 437.996 179.753 437.996C180.633 437.996 181.353 438.675 181.353 439.507C181.353 440.337 181.054 441.018 180.687 441.018C180.321 441.018 179.601 440.337 179.086 439.507ZM185.887 439.507C185.887 438.675 186.187 437.996 186.553 437.996C186.919 437.996 187.64 438.675 188.154 439.507C188.667 440.337 188.368 441.018 187.487 441.018C186.607 441.018 185.887 440.337 185.887 439.507ZM81.9926 435.483C80.9537 435.064 80.1041 434.098 80.1041 433.336C80.1041 431.157 86.7754 431.719 90.0164 434.17C92.8031 436.277 92.7225 436.385 88.4157 436.317C85.922 436.277 83.0316 435.903 81.9926 435.483ZM120.233 434.627C118.877 433.868 115.883 433.661 113.578 434.168C111.274 434.673 107.73 434.423 105.703 433.614C102.443 432.308 102.731 432.155 108.198 432.283C116.232 432.471 118.376 431.162 116.324 427.326C114.866 424.602 115.304 424.395 122.513 424.395C129.488 424.395 139.548 427.593 141.253 430.352C142.386 432.187 122.939 436.141 120.233 434.627ZM149.22 435.581C147.429 433.791 149.655 431.951 153.611 431.951C155.987 431.951 157.191 432.663 156.804 433.84C156.108 435.955 150.811 437.172 149.22 435.581ZM1242.52 433.179C1238.52 429.177 1242.48 424.395 1249.8 424.395C1253.04 424.395 1253.04 424.422 1250.26 429.185C1247.01 434.738 1245.08 435.738 1242.52 433.179ZM161.708 432.868C161.708 432.541 162.728 431.882 163.975 431.404C165.222 430.925 166.241 431.193 166.241 431.999C166.241 432.804 165.222 433.463 163.975 433.463C162.728 433.463 161.708 433.195 161.708 432.868ZM96.3832 422.035C95.9162 421.57 92.7264 421.149 89.2935 421.101C84.5581 421.036 83.4219 420.57 84.5836 419.17C85.707 417.818 84.0949 416.017 78.5393 412.417C67.6456 405.358 61.5642 403.979 54.2454 406.908C47.3835 409.654 46.8589 409.73 46.8589 408.002C46.8589 404.839 58.8849 401.36 67.5458 402.019C75.828 402.648 80.4649 404.41 96.7274 413.111C110.094 420.262 110.108 420.275 105.794 421.506C100.895 422.903 97.4439 423.096 96.3832 422.035ZM107.305 409.282C110.235 407.39 111.84 407.39 111.84 409.282C111.84 410.114 110.309 410.783 108.439 410.771C105.689 410.753 105.473 410.467 107.305 409.282ZM1310.81 406.603C1309.9 405.999 1308.33 403.941 1307.32 402.028C1305.79 399.145 1305.96 397.745 1308.24 393.838C1311.76 387.802 1314.14 387.05 1315.29 391.607C1316.49 396.403 1313.01 408.057 1310.81 406.603ZM117.228 404.589C118.236 402.957 123.93 402.772 123.927 404.372C123.927 404.995 122.232 405.603 120.16 405.723C118.087 405.842 116.768 405.331 117.228 404.589ZM87.3448 390.025C84.9278 387.251 85.2797 383.593 87.9628 383.593C88.8213 383.593 89.177 384.921 88.7522 386.543C88.3287 388.166 88.7586 389.773 89.7093 390.114C90.66 390.456 91.0374 391.172 90.5474 391.707C90.0573 392.241 88.6166 391.485 87.3448 390.025ZM96.1234 378.152C95.5848 376.751 95.4849 375.264 95.9008 374.849C96.3166 374.433 97.0958 375.24 97.6345 376.641C98.1719 378.043 98.2717 379.53 97.8559 379.945C97.44 380.361 96.6608 379.555 96.1234 378.152ZM86.6526 376.792C86.6526 375.546 87.9474 374.526 89.5314 374.526C92.0892 374.526 92.1582 374.778 90.143 376.792C88.8955 378.04 87.6007 379.059 87.2642 379.059C86.9277 379.059 86.6526 378.04 86.6526 376.792ZM1354.03 343.662C1354.03 342.48 1352.38 339.55 1350.36 337.152C1345.57 331.459 1347.27 327.66 1352.94 331.377C1357.01 334.049 1359.15 339.507 1357.64 343.427C1356.5 346.399 1354.03 346.56 1354.03 343.662ZM181.353 334.568C181.353 334.203 182.033 333.482 182.865 332.968C183.696 332.455 184.376 332.754 184.376 333.634C184.376 334.515 183.696 335.235 182.865 335.235C182.033 335.235 181.353 334.936 181.353 334.568ZM1362.45 332.711C1361.48 330.158 1363.78 327.745 1367.25 327.703C1369.65 327.673 1369.7 331.051 1367.32 333.422C1364.87 335.885 1363.6 335.701 1362.45 332.711ZM1376.25 327.195C1373.32 322.718 1369.18 322.102 1359.69 324.738C1355.83 325.809 1353.17 325.821 1351.38 324.775C1349.92 323.929 1349.54 323.217 1350.51 323.191C1351.48 323.167 1354.34 321.422 1356.84 319.314C1360.07 316.597 1362.44 315.746 1365 316.387C1367.7 317.065 1370.61 315.766 1376.75 311.152C1388.7 302.169 1389.79 299.336 1384.93 289.737C1380.26 280.525 1381.56 277.559 1388.47 281.646C1393.52 284.619 1398.25 293.138 1396.88 296.73C1396.38 298.023 1397.12 302.079 1398.52 305.745C1400.5 310.934 1400.69 313.114 1399.36 315.583C1397.43 319.211 1392.03 321.634 1385.89 321.634C1382.45 321.634 1381.41 322.517 1380.29 326.44L1378.92 331.244L1376.25 327.195ZM764.064 322.037C762.26 320.233 763.22 318.612 766.091 318.612C767.705 318.612 769.445 317.932 769.958 317.101C771.363 314.828 773.758 315.284 772.849 317.652C771.918 320.081 765.375 323.347 764.064 322.037ZM712.534 319.422L707.999 317.346L714.045 317.244C721.573 317.117 727.119 318.529 726.027 320.294C724.812 322.262 717.736 321.804 712.534 319.422ZM651.486 304.348C645.439 301.252 645.154 300.865 648.312 300.039C652.093 299.051 660.462 300.28 660.292 301.8C660.233 302.32 659.722 303.871 659.158 305.246C658.229 307.508 657.494 307.423 651.486 304.348ZM621.197 287.998C619.889 284.246 619.993 282.81 621.692 281.111C624.764 278.039 627.152 280.197 627.152 286.048C627.152 292.96 623.36 294.201 621.197 287.998ZM585.761 289.254C586.833 286.46 591.432 285.987 590.507 288.766C590.16 289.805 588.746 290.875 587.363 291.142C585.61 291.482 585.125 290.911 585.761 289.254ZM1375.36 272.005C1372.6 268.12 1372.52 267.404 1374.55 264.488C1376.56 261.623 1376.56 260.764 1374.49 256.767C1371.09 250.193 1371.57 249.795 1377.46 254.291C1380.37 256.515 1386.13 259.332 1390.24 260.554C1398.75 263.08 1400.8 265.062 1396.37 266.47C1394.69 267.001 1393.32 268.422 1393.32 269.629C1393.32 271.273 1392.27 271.556 1389.17 270.76C1381.19 268.719 1378.93 269.218 1379.44 272.899C1380.07 277.409 1379.04 277.187 1375.36 272.005ZM623.625 273.781C621.872 272.028 622.534 269.099 624.884 268.197C626.522 267.569 627.152 268.362 627.152 271.057C627.152 274.684 625.672 275.827 623.625 273.781ZM1365.76 241.92C1364.48 240.465 1361.4 235.193 1358.9 230.205C1356.41 225.216 1349.81 216.056 1344.24 209.848C1338.02 202.911 1334.86 198.313 1336.04 197.919C1337.1 197.566 1339.37 199.146 1341.09 201.43C1345.24 206.968 1350.37 211.775 1358.44 217.728C1365.14 222.663 1368.45 227.23 1364.13 225.573C1359.15 223.66 1360.39 228.198 1366.84 235.458C1370.6 239.691 1373.67 243.47 1373.67 243.859C1373.67 245.697 1367.84 244.264 1365.76 241.92ZM259.935 239.275C259.935 238.027 260.593 237.008 261.399 237.008C262.204 237.008 262.471 238.027 261.993 239.275C261.514 240.521 260.855 241.541 260.529 241.541C260.203 241.541 259.935 240.521 259.935 239.275ZM252.038 234.399L246.408 233.808L257.003 223.318C262.829 217.549 268.358 212.829 269.288 212.829C270.271 212.829 269.977 213.94 268.587 215.475C265.441 218.951 267.587 222.856 273.335 224.119C275.846 224.671 278.347 226.594 279.313 228.715C280.865 232.121 280.603 232.468 275.367 233.922C269.874 235.448 263.317 235.581 252.038 234.399ZM-116.189 223.556C-121.423 218.667 -122.008 216.606 -118.537 215.274C-115.428 214.082 -109.69 217.97 -107.515 222.744C-105.233 227.753 -105.274 227.941 -108.634 227.941C-110.207 227.941 -113.608 225.968 -116.189 223.556ZM549.326 215.879C550.988 215.059 554.26 213.699 556.595 212.856C561.741 210.999 560.887 209.021 554.379 207.72C549.914 206.827 549.757 206.599 552.311 204.731C553.832 203.619 554.633 201.993 554.092 201.116C553.539 200.221 555.093 198.831 557.639 197.943C560.131 197.074 562.171 195.693 562.171 194.872C562.171 191.382 559.021 185.51 557.27 185.738C553.236 186.264 551.368 185.552 552.018 183.738C552.39 182.699 552.083 180.66 551.335 179.205C549.39 175.423 553.861 167.601 558.015 167.517C558.638 167.505 558.979 168.328 558.771 169.346C558.563 170.366 559.989 171.442 561.939 171.738L565.486 172.275L562.098 175.883L558.709 179.49L562.529 180.942C566.63 182.502 570.581 187.58 574.606 196.464C576.535 200.72 577.803 201.832 580.053 201.243C584.671 200.035 585.218 203.165 580.886 206.004C577.951 207.927 577.394 209.011 578.679 210.297C579.965 211.583 577.43 212.445 568.64 213.713C562.173 214.647 554.502 215.851 551.592 216.39C547.546 217.14 547.014 217.019 549.326 215.879ZM523.841 207.53C523.324 206.184 523.914 203.123 525.152 200.73C526.573 197.983 526.848 196.034 525.897 195.447C523.278 193.828 524.261 191.763 528.107 190.797C530.151 190.284 532.614 188.911 533.582 187.747C535.594 185.321 544.904 184.874 546.301 187.136C546.814 187.966 546.175 190.157 544.88 192.006C543.585 193.855 542.525 197.175 542.525 199.385C542.525 202.755 541.489 203.764 536.104 205.633C532.571 206.859 528.578 208.339 527.232 208.921C525.651 209.605 524.447 209.111 523.841 207.53ZM551.592 192.517C551.592 192.151 552.273 191.431 553.104 190.917C553.935 190.403 554.615 190.702 554.615 191.583C554.615 192.463 553.935 193.183 553.104 193.183C552.273 193.183 551.592 192.884 551.592 192.517ZM-119.069 185.236C-120.55 183.453 -120.456 182.621 -118.598 181.079C-115.528 178.531 -114.004 180.259 -115.791 184.265C-117.023 187.028 -117.472 187.161 -119.069 185.236ZM-121.432 173.871C-121.943 173.045 -121.348 171.529 -120.111 170.502C-117.654 168.463 -117.141 170.062 -119.206 173.322C-119.996 174.567 -120.869 174.783 -121.432 173.871ZM-219.109 172.907C-219.109 171.844 -214.527 169.985 -208.027 168.41C-205.563 167.813 -204.106 167.957 -204.595 168.749C-205.063 169.506 -207.33 170.506 -209.633 170.97C-211.936 171.436 -215.01 172.276 -216.465 172.838C-217.919 173.401 -219.109 173.432 -219.109 172.907ZM678.91 155.914C676.122 154.789 676.614 153.055 679.791 152.816C681.315 152.701 682.561 153.576 682.561 154.761C682.561 157.012 682.038 157.177 678.91 155.914ZM346.827 148.191C337.264 142.976 332.694 134.963 335.464 128.274C336.776 125.108 336.815 123.117 335.614 120.87C333.111 116.194 336.376 110.715 344.725 105.577C348.691 103.137 352.65 99.8049 353.524 98.1724C355.945 93.6492 353.789 85.8983 349.577 83.9789C347.444 83.0075 346.285 81.4713 346.756 80.2437C347.828 77.4482 342.797 67.9 337.786 63.2218C334.098 59.7786 332.511 59.4357 319.882 59.353C302.686 59.2405 299.482 58.2844 299.766 53.35C299.885 51.3004 300.339 49.6228 300.777 49.6222C301.213 49.6217 307.334 48.9123 314.377 48.046C323.369 46.9398 331.432 44.6586 341.456 40.3842C356.975 33.7662 358.157 33.6369 395.186 34.5072C406.878 34.7821 417.635 33.9167 431.453 31.5896C444.323 29.4224 453.792 28.6054 458.905 29.2212C463.249 29.7444 469.539 29.3993 473.091 28.443C481.332 26.2239 502.745 28.8933 511.166 33.1898C516.145 35.7299 518.779 36.0653 527.18 35.2289C536.256 34.3254 536.942 34.4442 534.214 36.4476C532.552 37.6685 527.452 39.1598 522.88 39.7617C512.96 41.0678 503.846 48.1378 506.262 52.652C507.303 54.5993 506.556 56.2614 503.187 59.4893C500.74 61.8349 498.378 64.8829 497.94 66.2629C496.887 69.5778 483.528 75.7474 476.904 75.9775C469.547 76.233 468.776 77.7971 474.466 80.931C477.154 82.4115 481.077 84.934 483.186 86.5367L487.018 89.4507L483.553 90.7322C480.897 91.7146 478.744 91.0813 474.324 88.0188C468.327 83.8628 461.875 83.842 465.317 87.9896C466.659 89.6071 466.336 90.2354 463.823 90.8924C458.208 92.361 462.181 95.265 468.373 94.2186C472.315 93.5526 474.533 93.9036 475.765 95.3888C477.231 97.1561 475.318 97.9743 464.312 100.288C457.045 101.815 447.359 103.121 442.787 103.189C434.295 103.316 428.175 105.754 419.173 112.596C416.238 114.828 409.999 117.039 402.699 118.436C387.441 121.355 382.285 124.731 373.092 137.822C365.708 148.337 361.255 152.256 356.65 152.293C355.404 152.303 350.983 150.457 346.827 148.191ZM239.678 138.084C236.432 136.09 232.455 132.371 230.841 129.819C227.687 124.838 224.778 124.205 216.265 126.647C213.383 127.474 210.149 127.553 208.855 126.83C204.381 124.325 212.463 121.862 221.466 122.987C228.312 123.843 229.832 123.599 230.631 121.518C232.235 117.338 239.577 114.342 243.659 116.202C246.172 117.347 248.457 117.315 251.666 116.09C255.984 114.442 256.044 114.293 253.223 112.222C251.609 111.038 249.768 110.068 249.131 110.068C248.494 110.068 246.193 107.033 244.019 103.322C241.844 99.6118 237.769 95.1569 234.963 93.4222C230.193 90.4744 229.562 90.4226 225.295 92.6288C221.566 94.5575 219.411 94.6925 213.51 93.3675C209.538 92.4755 203.992 92.1752 201.186 92.7C196.317 93.6102 187.398 91.2279 187.398 89.0174C187.398 84.9565 200.197 75.8429 207.799 74.4902L213.844 73.4145L209.523 78.0181C203.563 84.3684 205.803 87.2909 212.276 81.6081C215.022 79.1974 219.767 76.7563 222.821 76.1834C227.487 75.3079 229.487 75.8788 235.346 79.76C243.143 84.924 243.743 85.0625 248.139 82.7095C250.788 81.2926 251.769 81.6817 254.644 85.2874C256.633 87.7816 261.074 90.4973 265.405 91.8677C272.308 94.0516 272.78 94.5267 272.78 99.2872C272.78 102.857 273.809 105.11 276.233 106.843C286.375 114.096 286.153 113.796 283.959 117.31C280.95 122.128 278.575 122.477 271.915 119.08C267.282 116.717 265.259 116.393 262.927 117.641C260.073 119.168 260.043 119.494 262.339 123.936C264.225 127.582 264.397 129.423 263.116 132.235C261.537 135.7 261.286 135.753 256.999 133.537C248.572 129.179 242.897 132.047 250.759 136.69C253.222 138.145 254.894 139.891 254.474 140.569C253.011 142.938 245.533 141.682 239.678 138.084ZM550.081 140.04C550.081 139.348 551.102 138.781 552.348 138.781C553.594 138.781 554.615 139.348 554.615 140.04C554.615 140.733 553.594 141.3 552.348 141.3C551.102 141.3 550.081 140.733 550.081 140.04ZM182.699 131.913C179.72 130.347 177.406 130.213 173.234 131.365C166.14 133.323 163.661 131.89 167.26 127.913C171.867 122.821 174.993 121.819 180.551 123.654C186.807 125.718 189.583 128.787 187.896 131.771C186.819 133.673 186.085 133.694 182.699 131.913ZM482.834 131.225C480.34 129.586 477.166 128.603 475.782 129.041C473.873 129.645 473.449 129.121 474.035 126.881C474.935 123.443 488.212 118.481 492.7 119.905C494.265 120.402 498.265 119.993 501.588 118.998C506.806 117.434 508.189 117.553 511.716 119.864L515.802 122.54L512.163 125.376C509.091 127.77 503.395 129.847 489.635 133.589C488.387 133.928 485.327 132.865 482.834 131.225ZM72.5487 103.015C70.4708 102.687 65.409 100.909 61.3006 99.0651L53.8296 95.7123L64.3228 94.9566C70.0933 94.541 74.8147 93.521 74.8147 92.6899C74.8147 91.8587 70.7343 90.8142 65.7481 90.3687C59.1638 89.7805 57.9227 89.3667 61.2149 88.8576C66.7269 88.005 67.1236 85.6177 61.9698 84.3162C58.2592 83.3788 58.2861 83.3216 63.5064 81.0722C72.5538 77.1741 82.191 76.4274 90.7291 78.9628C97.7382 81.0446 98.8334 81.0358 102.138 78.8702C104.476 77.3388 105.863 77.0825 105.983 78.1598C106.087 79.0866 106.257 80.6382 106.361 81.6078C106.711 84.8817 109.726 84.458 113.322 80.6294C116.653 77.085 122.425 75.3871 122.412 77.9559C122.408 78.5792 121.065 81.29 119.424 83.9798L116.442 88.8703L121.319 91.4144L126.195 93.9586L118.188 97.6131C110.963 100.911 109.481 101.1 103.005 99.5459C96.7248 98.0396 94.9233 98.2118 88.5961 100.924C81.4501 103.987 79.9429 104.184 72.5487 103.015ZM133.156 101.95C131.791 100.306 132.355 99.4964 135.883 98.0352C138.338 97.0183 141.859 96.6792 143.746 97.2783C147.019 98.3171 146.944 98.4804 141.969 101.13C135.622 104.511 135.306 104.54 133.156 101.95ZM550.081 94.9566C553.011 93.0632 554.615 93.0632 554.615 94.9566C554.615 95.7878 553.085 96.4574 551.215 96.4447C548.465 96.426 548.249 96.1412 550.081 94.9566ZM827.383 90.7641C819.657 87.7123 819.816 87.8792 822.064 85.1705C823.114 83.9036 823.382 82.8455 822.656 82.8191C821.931 82.7926 822.699 81.7433 824.361 80.4872C826.023 79.2313 827.394 77.7227 827.408 77.1352C827.461 74.9 833.614 69.0056 837.962 67.0248C840.454 65.8888 846.914 64.6084 852.318 64.1795C857.72 63.7506 864.957 62.9647 868.399 62.4332C872.062 61.8675 875.047 62.0989 875.598 62.9911C876.669 64.7248 874.625 65.4616 862.895 67.5689C851.257 69.6598 844.261 72.9182 839.653 78.3942C834.799 84.163 834.636 87.8054 839.094 90.9151L842.495 93.287L837.962 93.2194C835.468 93.1823 830.707 92.0772 827.383 90.7641ZM35.9089 86.3825C33.4728 83.9454 34.0281 83.4149 45.7201 77.0138C59.421 69.5138 66.3047 68.5183 78.593 72.2597L85.3936 74.33L76.3257 76.1278C68.911 77.5982 53.1962 82.8533 40.7864 88.0124C39.5209 88.5388 37.3356 87.8084 35.9089 86.3825ZM145.085 84.4266C145.085 83.622 143.215 81.8903 140.929 80.5785L136.773 78.1931L142.338 79.0681C146.291 79.69 148.26 79.3196 149.138 77.7886C150.182 75.968 159.8 72.3249 163.636 72.2973C164.281 72.2921 163.754 74.3267 162.467 76.8172C159.433 82.6834 145.085 88.9647 145.085 84.4266ZM168.613 80.0142C166.449 76.5111 181.234 71.0884 187.517 73.082C192.094 74.535 189.034 77.0317 181.049 78.359C177.477 78.953 173.432 79.9167 172.062 80.5005C170.691 81.0844 169.139 80.8656 168.613 80.0142ZM216.866 68.8862C206.892 68.093 198.546 67.2713 198.318 67.0603C196.967 65.8065 200.337 61.7252 203.965 60.2229C207.531 58.7457 209.174 58.9417 214.056 61.4265C218.815 63.8485 221.883 64.2511 230.723 63.6139C236.682 63.1845 243.482 63.3203 245.835 63.9158L250.112 64.9985L244.823 67.8248C241.913 69.3792 238.514 70.5785 237.268 70.4898C236.02 70.4012 226.84 69.6797 216.866 68.8862ZM651.75 62.7102C644.326 58.9098 643.611 57.1863 649.442 57.154C651.727 57.1412 654.617 56.397 655.863 55.5002C657.824 54.0906 657.797 53.9753 655.67 54.6496C654.317 55.0786 652.419 54.6381 651.452 53.6714C650.115 52.3345 649.419 52.3581 648.546 53.7702C647.737 55.0775 646.079 55.2322 642.942 54.2927C634.973 51.9063 633.196 50.8469 633.196 48.4807C633.196 46.4766 635.194 46.293 647.553 47.1618C656.965 47.8233 661.909 47.64 661.909 46.6293C661.909 43.6544 666.102 45.1233 667.214 48.4876L668.337 51.8879L669.006 48.4876C669.374 46.6176 670.648 45.0875 671.837 45.0875C673.025 45.0875 673.998 44.2715 673.998 43.274C673.998 41.8637 674.401 41.8637 675.812 43.274C676.866 44.329 681.923 45.0875 687.901 45.0875C698.705 45.0875 701.242 47.0192 694.037 49.7588C690.292 51.1824 683.78 50.7797 676.643 48.6831C675.188 48.2558 674.003 48.462 674.008 49.1415C674.018 50.5361 682.509 55.6659 684.807 55.6659C685.63 55.6659 687.257 56.6199 688.423 57.7858C690.242 59.6051 690.227 60.0271 688.315 60.7608C687.09 61.231 686.088 60.8813 686.088 59.9838C686.088 58.9286 684.166 58.7124 680.65 59.372C676.842 60.0863 675.522 59.8903 676.246 58.7184C676.815 57.7978 676.46 56.0544 675.454 54.8441C673.517 52.5091 667.953 51.7943 667.953 53.8801C667.953 54.5603 665.744 57.5603 663.043 60.5467L658.131 65.9767L651.75 62.7102ZM250.867 59.3858C248.248 57.8478 244.542 57.4024 238.779 57.9327C233.391 58.4282 229.249 58.001 227.006 56.7183C223.913 54.9499 224.67 54.7482 234.107 54.8248C245.909 54.9203 251.093 52.3938 244.701 49.6612C241.665 48.363 242.108 48.245 247.313 48.9662C254.107 49.9074 256.748 48.0869 253.046 45.0144C249.099 41.7381 253.439 40.7211 267.486 41.631C276.177 42.1941 281.639 41.8784 283.872 40.6834C288.149 38.3944 286.471 35.4805 281.582 36.7075C278.203 37.5556 254.755 36.164 255.744 35.1742C256.451 34.4668 289.672 31.39 311.486 30.0116C322.801 29.2966 335.382 28.2992 339.443 27.7952L346.827 26.8788L334.637 32.7343C323.208 38.2243 304.622 43.5764 296.986 43.5764C295.127 43.5764 289.783 45.6164 285.111 48.1099C280.438 50.6034 275.678 52.6435 274.533 52.6435C273.387 52.6435 268.444 54.6749 263.547 57.1579C258.652 59.6408 254.646 61.6568 254.646 61.6379C254.646 61.6189 252.945 60.6056 250.867 59.3858ZM221.399 45.5793C214.075 43.9588 213.807 43.3492 219.19 40.5597C227.034 36.4937 234.458 35.4516 237.833 37.9425C240.505 39.9147 240.35 40.2195 235.103 43.316C229.633 46.5433 227.413 46.9099 221.399 45.5793Z" stroke="#232222" stroke-opacity="0.05" stroke-width="2.559"/>
<g opacity="0.7" filter="url(#filter0_f_312_510)">
<circle cx="435" cy="-11" r="100" fill="#FF3333"/>
</g>
<g opacity="0.7" filter="url(#filter1_f_312_510)">
<circle cx="1271" cy="704" r="100" fill="#FF3333"/>
</g>
<g opacity="0.8" filter="url(#filter2_f_312_510)">
<circle cx="68" cy="929" r="100" fill="#FF3333"/>
</g>
</g>
<defs>
<filter id="filter0_f_312_510" x="-165" y="-611" width="1200" height="1200" filterUnits="userSpaceOnUse" color-interpolation-filters="sRGB">
<feFlood flood-opacity="0" result="BackgroundImageFix"/>
<feBlend mode="normal" in="SourceGraphic" in2="BackgroundImageFix" result="shape"/>
<feGaussianBlur stdDeviation="250" result="effect1_foregroundBlur_312_510"/>
</filter>
<filter id="filter1_f_312_510" x="671" y="104" width="1200" height="1200" filterUnits="userSpaceOnUse" color-interpolation-filters="sRGB">
<feFlood flood-opacity="0" result="BackgroundImageFix"/>
<feBlend mode="normal" in="SourceGraphic" in2="BackgroundImageFix" result="shape"/>
<feGaussianBlur stdDeviation="250" result="effect1_foregroundBlur_312_510"/>
</filter>
<filter id="filter2_f_312_510" x="-532" y="329" width="1200" height="1200" filterUnits="userSpaceOnUse" color-interpolation-filters="sRGB">
<feFlood flood-opacity="0" result="BackgroundImageFix"/>
<feBlend mode="normal" in="SourceGraphic" in2="BackgroundImageFix" result="shape"/>
<feGaussianBlur stdDeviation="250" result="effect1_foregroundBlur_312_510"/>
</filter>
<clipPath id="clip0_312_510">
<rect width="1440" height="829" fill="white"/>
</clipPath>
</defs>
</svg>
